G04 #@! TF.GenerationSoftware,KiCad,Pcbnew,(5.1.6-0-10_14)*
G04 #@! TF.CreationDate,2020-07-27T13:44:28+02:00*
G04 #@! TF.ProjectId,HelloWorld-panel,48656c6c-6f57-46f7-926c-642d70616e65,rev?*
G04 #@! TF.SameCoordinates,Original*
G04 #@! TF.FileFunction,Legend,Bot*
G04 #@! TF.FilePolarity,Positive*
%FSLAX46Y46*%
G04 Gerber Fmt 4.6, Leading zero omitted, Abs format (unit mm)*
G04 Created by KiCad (PCBNEW (5.1.6-0-10_14)) date 2020-07-27 13:44:28*
%MOMM*%
%LPD*%
G01*
G04 APERTURE LIST*
%ADD10C,0.150000*%
G04 APERTURE END LIST*
D10*
X119619047Y-73452380D02*
X119619047Y-74166666D01*
X119666666Y-74309523D01*
X119761904Y-74404761D01*
X119904761Y-74452380D01*
X120000000Y-74452380D01*
X118666666Y-74452380D02*
X119142857Y-74452380D01*
X119142857Y-73452380D01*
X117761904Y-74357142D02*
X117809523Y-74404761D01*
X117952380Y-74452380D01*
X118047619Y-74452380D01*
X118190476Y-74404761D01*
X118285714Y-74309523D01*
X118333333Y-74214285D01*
X118380952Y-74023809D01*
X118380952Y-73880952D01*
X118333333Y-73690476D01*
X118285714Y-73595238D01*
X118190476Y-73500000D01*
X118047619Y-73452380D01*
X117952380Y-73452380D01*
X117809523Y-73500000D01*
X117761904Y-73547619D01*
X117047619Y-73452380D02*
X117047619Y-74166666D01*
X117095238Y-74309523D01*
X117190476Y-74404761D01*
X117333333Y-74452380D01*
X117428571Y-74452380D01*
X116095238Y-74452380D02*
X116571428Y-74452380D01*
X116571428Y-73452380D01*
X115190476Y-74357142D02*
X115238095Y-74404761D01*
X115380952Y-74452380D01*
X115476190Y-74452380D01*
X115619047Y-74404761D01*
X115714285Y-74309523D01*
X115761904Y-74214285D01*
X115809523Y-74023809D01*
X115809523Y-73880952D01*
X115761904Y-73690476D01*
X115714285Y-73595238D01*
X115619047Y-73500000D01*
X115476190Y-73452380D01*
X115380952Y-73452380D01*
X115238095Y-73500000D01*
X115190476Y-73547619D01*
X114476190Y-73452380D02*
X114476190Y-74166666D01*
X114523809Y-74309523D01*
X114619047Y-74404761D01*
X114761904Y-74452380D01*
X114857142Y-74452380D01*
X113523809Y-74452380D02*
X114000000Y-74452380D01*
X114000000Y-73452380D01*
X112619047Y-74357142D02*
X112666666Y-74404761D01*
X112809523Y-74452380D01*
X112904761Y-74452380D01*
X113047619Y-74404761D01*
X113142857Y-74309523D01*
X113190476Y-74214285D01*
X113238095Y-74023809D01*
X113238095Y-73880952D01*
X113190476Y-73690476D01*
X113142857Y-73595238D01*
X113047619Y-73500000D01*
X112904761Y-73452380D01*
X112809523Y-73452380D01*
X112666666Y-73500000D01*
X112619047Y-73547619D01*
X111904761Y-73452380D02*
X111904761Y-74166666D01*
X111952380Y-74309523D01*
X112047619Y-74404761D01*
X112190476Y-74452380D01*
X112285714Y-74452380D01*
X110952380Y-74452380D02*
X111428571Y-74452380D01*
X111428571Y-73452380D01*
X110047619Y-74357142D02*
X110095238Y-74404761D01*
X110238095Y-74452380D01*
X110333333Y-74452380D01*
X110476190Y-74404761D01*
X110571428Y-74309523D01*
X110619047Y-74214285D01*
X110666666Y-74023809D01*
X110666666Y-73880952D01*
X110619047Y-73690476D01*
X110571428Y-73595238D01*
X110476190Y-73500000D01*
X110333333Y-73452380D01*
X110238095Y-73452380D01*
X110095238Y-73500000D01*
X110047619Y-73547619D01*
M02*
