G04 #@! TF.GenerationSoftware,KiCad,Pcbnew,(5.1.6-0-10_14)*
G04 #@! TF.CreationDate,2020-07-27T13:44:28+02:00*
G04 #@! TF.ProjectId,HelloWorld-panel,48656c6c-6f57-46f7-926c-642d70616e65,rev?*
G04 #@! TF.SameCoordinates,Original*
G04 #@! TF.FileFunction,Copper,L2,Bot*
G04 #@! TF.FilePolarity,Positive*
%FSLAX46Y46*%
G04 Gerber Fmt 4.6, Leading zero omitted, Abs format (unit mm)*
G04 Created by KiCad (PCBNEW (5.1.6-0-10_14)) date 2020-07-27 13:44:28*
%MOMM*%
%LPD*%
G01*
G04 APERTURE LIST*
G04 #@! TA.AperFunction,ComponentPad*
%ADD10C,8.500000*%
G04 #@! TD*
G04 #@! TA.AperFunction,ComponentPad*
%ADD11C,7.700000*%
G04 #@! TD*
G04 #@! TA.AperFunction,ComponentPad*
%ADD12O,6.900000X3.700000*%
G04 #@! TD*
G04 #@! TA.AperFunction,NonConductor*
%ADD13C,0.254000*%
G04 #@! TD*
G04 APERTURE END LIST*
D10*
X107500000Y-117250000D03*
D11*
X107500000Y-131250000D03*
X107500000Y-82750000D03*
X107500000Y-60750000D03*
X107500000Y-38750000D03*
D10*
X121000000Y-86750000D03*
X121000000Y-64750000D03*
X121000000Y-42750000D03*
D12*
X109100000Y-23000000D03*
X109100000Y-145500000D03*
D13*
G36*
X106544431Y-20693052D02*
G01*
X106112728Y-20923801D01*
X105734338Y-21234338D01*
X105423801Y-21612728D01*
X105193052Y-22044431D01*
X105050957Y-22512855D01*
X105002977Y-23000000D01*
X105050957Y-23487145D01*
X105193052Y-23955569D01*
X105423801Y-24387272D01*
X105734338Y-24765662D01*
X106112728Y-25076199D01*
X106544431Y-25306948D01*
X107012855Y-25449043D01*
X107377929Y-25485000D01*
X110822071Y-25485000D01*
X111187145Y-25449043D01*
X111655569Y-25306948D01*
X112087272Y-25076199D01*
X112465662Y-24765662D01*
X112776199Y-24387272D01*
X113006948Y-23955569D01*
X113149043Y-23487145D01*
X113197023Y-23000000D01*
X113149043Y-22512855D01*
X113006948Y-22044431D01*
X112776199Y-21612728D01*
X112465662Y-21234338D01*
X112087272Y-20923801D01*
X111655569Y-20693052D01*
X111629025Y-20685000D01*
X129315000Y-20685000D01*
X129315001Y-147815000D01*
X111629025Y-147815000D01*
X111655569Y-147806948D01*
X112087272Y-147576199D01*
X112465662Y-147265662D01*
X112776199Y-146887272D01*
X113006948Y-146455569D01*
X113149043Y-145987145D01*
X113197023Y-145500000D01*
X113149043Y-145012855D01*
X113006948Y-144544431D01*
X112776199Y-144112728D01*
X112465662Y-143734338D01*
X112087272Y-143423801D01*
X111655569Y-143193052D01*
X111187145Y-143050957D01*
X110822071Y-143015000D01*
X107377929Y-143015000D01*
X107012855Y-143050957D01*
X106544431Y-143193052D01*
X106112728Y-143423801D01*
X105734338Y-143734338D01*
X105423801Y-144112728D01*
X105193052Y-144544431D01*
X105050957Y-145012855D01*
X105002977Y-145500000D01*
X105050957Y-145987145D01*
X105193052Y-146455569D01*
X105423801Y-146887272D01*
X105734338Y-147265662D01*
X106112728Y-147576199D01*
X106544431Y-147806948D01*
X106570975Y-147815000D01*
X100685000Y-147815000D01*
X100685000Y-130808266D01*
X103015000Y-130808266D01*
X103015000Y-131691734D01*
X103187356Y-132558226D01*
X103525445Y-133374444D01*
X104016273Y-134109021D01*
X104640979Y-134733727D01*
X105375556Y-135224555D01*
X106191774Y-135562644D01*
X107058266Y-135735000D01*
X107941734Y-135735000D01*
X108808226Y-135562644D01*
X109624444Y-135224555D01*
X110359021Y-134733727D01*
X110983727Y-134109021D01*
X111474555Y-133374444D01*
X111812644Y-132558226D01*
X111985000Y-131691734D01*
X111985000Y-130808266D01*
X111812644Y-129941774D01*
X111474555Y-129125556D01*
X110983727Y-128390979D01*
X110359021Y-127766273D01*
X109624444Y-127275445D01*
X108808226Y-126937356D01*
X107941734Y-126765000D01*
X107058266Y-126765000D01*
X106191774Y-126937356D01*
X105375556Y-127275445D01*
X104640979Y-127766273D01*
X104016273Y-128390979D01*
X103525445Y-129125556D01*
X103187356Y-129941774D01*
X103015000Y-130808266D01*
X100685000Y-130808266D01*
X100685000Y-116768870D01*
X102615000Y-116768870D01*
X102615000Y-117731130D01*
X102802728Y-118674902D01*
X103170970Y-119563915D01*
X103705573Y-120364006D01*
X104385994Y-121044427D01*
X105186085Y-121579030D01*
X106075098Y-121947272D01*
X107018870Y-122135000D01*
X107981130Y-122135000D01*
X108924902Y-121947272D01*
X109813915Y-121579030D01*
X110614006Y-121044427D01*
X111294427Y-120364006D01*
X111829030Y-119563915D01*
X112197272Y-118674902D01*
X112385000Y-117731130D01*
X112385000Y-116768870D01*
X112197272Y-115825098D01*
X111829030Y-114936085D01*
X111294427Y-114135994D01*
X110614006Y-113455573D01*
X109813915Y-112920970D01*
X108924902Y-112552728D01*
X107981130Y-112365000D01*
X107018870Y-112365000D01*
X106075098Y-112552728D01*
X105186085Y-112920970D01*
X104385994Y-113455573D01*
X103705573Y-114135994D01*
X103170970Y-114936085D01*
X102802728Y-115825098D01*
X102615000Y-116768870D01*
X100685000Y-116768870D01*
X100685000Y-82308266D01*
X103015000Y-82308266D01*
X103015000Y-83191734D01*
X103187356Y-84058226D01*
X103525445Y-84874444D01*
X104016273Y-85609021D01*
X104640979Y-86233727D01*
X105375556Y-86724555D01*
X106191774Y-87062644D01*
X107058266Y-87235000D01*
X107941734Y-87235000D01*
X108808226Y-87062644D01*
X109624444Y-86724555D01*
X110306425Y-86268870D01*
X116115000Y-86268870D01*
X116115000Y-87231130D01*
X116302728Y-88174902D01*
X116670970Y-89063915D01*
X117205573Y-89864006D01*
X117885994Y-90544427D01*
X118686085Y-91079030D01*
X119575098Y-91447272D01*
X120518870Y-91635000D01*
X121481130Y-91635000D01*
X122424902Y-91447272D01*
X123313915Y-91079030D01*
X124114006Y-90544427D01*
X124794427Y-89864006D01*
X125329030Y-89063915D01*
X125697272Y-88174902D01*
X125885000Y-87231130D01*
X125885000Y-86268870D01*
X125697272Y-85325098D01*
X125329030Y-84436085D01*
X124794427Y-83635994D01*
X124114006Y-82955573D01*
X123313915Y-82420970D01*
X122424902Y-82052728D01*
X121481130Y-81865000D01*
X120518870Y-81865000D01*
X119575098Y-82052728D01*
X118686085Y-82420970D01*
X117885994Y-82955573D01*
X117205573Y-83635994D01*
X116670970Y-84436085D01*
X116302728Y-85325098D01*
X116115000Y-86268870D01*
X110306425Y-86268870D01*
X110359021Y-86233727D01*
X110983727Y-85609021D01*
X111474555Y-84874444D01*
X111812644Y-84058226D01*
X111985000Y-83191734D01*
X111985000Y-82308266D01*
X111812644Y-81441774D01*
X111474555Y-80625556D01*
X110983727Y-79890979D01*
X110359021Y-79266273D01*
X109624444Y-78775445D01*
X108808226Y-78437356D01*
X107941734Y-78265000D01*
X107058266Y-78265000D01*
X106191774Y-78437356D01*
X105375556Y-78775445D01*
X104640979Y-79266273D01*
X104016273Y-79890979D01*
X103525445Y-80625556D01*
X103187356Y-81441774D01*
X103015000Y-82308266D01*
X100685000Y-82308266D01*
X100685000Y-60308266D01*
X103015000Y-60308266D01*
X103015000Y-61191734D01*
X103187356Y-62058226D01*
X103525445Y-62874444D01*
X104016273Y-63609021D01*
X104640979Y-64233727D01*
X105375556Y-64724555D01*
X106191774Y-65062644D01*
X107058266Y-65235000D01*
X107941734Y-65235000D01*
X108808226Y-65062644D01*
X109624444Y-64724555D01*
X110306425Y-64268870D01*
X116115000Y-64268870D01*
X116115000Y-65231130D01*
X116302728Y-66174902D01*
X116670970Y-67063915D01*
X117205573Y-67864006D01*
X117885994Y-68544427D01*
X118686085Y-69079030D01*
X119575098Y-69447272D01*
X120518870Y-69635000D01*
X121481130Y-69635000D01*
X122424902Y-69447272D01*
X123313915Y-69079030D01*
X124114006Y-68544427D01*
X124794427Y-67864006D01*
X125329030Y-67063915D01*
X125697272Y-66174902D01*
X125885000Y-65231130D01*
X125885000Y-64268870D01*
X125697272Y-63325098D01*
X125329030Y-62436085D01*
X124794427Y-61635994D01*
X124114006Y-60955573D01*
X123313915Y-60420970D01*
X122424902Y-60052728D01*
X121481130Y-59865000D01*
X120518870Y-59865000D01*
X119575098Y-60052728D01*
X118686085Y-60420970D01*
X117885994Y-60955573D01*
X117205573Y-61635994D01*
X116670970Y-62436085D01*
X116302728Y-63325098D01*
X116115000Y-64268870D01*
X110306425Y-64268870D01*
X110359021Y-64233727D01*
X110983727Y-63609021D01*
X111474555Y-62874444D01*
X111812644Y-62058226D01*
X111985000Y-61191734D01*
X111985000Y-60308266D01*
X111812644Y-59441774D01*
X111474555Y-58625556D01*
X110983727Y-57890979D01*
X110359021Y-57266273D01*
X109624444Y-56775445D01*
X108808226Y-56437356D01*
X107941734Y-56265000D01*
X107058266Y-56265000D01*
X106191774Y-56437356D01*
X105375556Y-56775445D01*
X104640979Y-57266273D01*
X104016273Y-57890979D01*
X103525445Y-58625556D01*
X103187356Y-59441774D01*
X103015000Y-60308266D01*
X100685000Y-60308266D01*
X100685000Y-38308266D01*
X103015000Y-38308266D01*
X103015000Y-39191734D01*
X103187356Y-40058226D01*
X103525445Y-40874444D01*
X104016273Y-41609021D01*
X104640979Y-42233727D01*
X105375556Y-42724555D01*
X106191774Y-43062644D01*
X107058266Y-43235000D01*
X107941734Y-43235000D01*
X108808226Y-43062644D01*
X109624444Y-42724555D01*
X110306425Y-42268870D01*
X116115000Y-42268870D01*
X116115000Y-43231130D01*
X116302728Y-44174902D01*
X116670970Y-45063915D01*
X117205573Y-45864006D01*
X117885994Y-46544427D01*
X118686085Y-47079030D01*
X119575098Y-47447272D01*
X120518870Y-47635000D01*
X121481130Y-47635000D01*
X122424902Y-47447272D01*
X123313915Y-47079030D01*
X124114006Y-46544427D01*
X124794427Y-45864006D01*
X125329030Y-45063915D01*
X125697272Y-44174902D01*
X125885000Y-43231130D01*
X125885000Y-42268870D01*
X125697272Y-41325098D01*
X125329030Y-40436085D01*
X124794427Y-39635994D01*
X124114006Y-38955573D01*
X123313915Y-38420970D01*
X122424902Y-38052728D01*
X121481130Y-37865000D01*
X120518870Y-37865000D01*
X119575098Y-38052728D01*
X118686085Y-38420970D01*
X117885994Y-38955573D01*
X117205573Y-39635994D01*
X116670970Y-40436085D01*
X116302728Y-41325098D01*
X116115000Y-42268870D01*
X110306425Y-42268870D01*
X110359021Y-42233727D01*
X110983727Y-41609021D01*
X111474555Y-40874444D01*
X111812644Y-40058226D01*
X111985000Y-39191734D01*
X111985000Y-38308266D01*
X111812644Y-37441774D01*
X111474555Y-36625556D01*
X110983727Y-35890979D01*
X110359021Y-35266273D01*
X109624444Y-34775445D01*
X108808226Y-34437356D01*
X107941734Y-34265000D01*
X107058266Y-34265000D01*
X106191774Y-34437356D01*
X105375556Y-34775445D01*
X104640979Y-35266273D01*
X104016273Y-35890979D01*
X103525445Y-36625556D01*
X103187356Y-37441774D01*
X103015000Y-38308266D01*
X100685000Y-38308266D01*
X100685000Y-20685000D01*
X106570975Y-20685000D01*
X106544431Y-20693052D01*
G37*
X106544431Y-20693052D02*
X106112728Y-20923801D01*
X105734338Y-21234338D01*
X105423801Y-21612728D01*
X105193052Y-22044431D01*
X105050957Y-22512855D01*
X105002977Y-23000000D01*
X105050957Y-23487145D01*
X105193052Y-23955569D01*
X105423801Y-24387272D01*
X105734338Y-24765662D01*
X106112728Y-25076199D01*
X106544431Y-25306948D01*
X107012855Y-25449043D01*
X107377929Y-25485000D01*
X110822071Y-25485000D01*
X111187145Y-25449043D01*
X111655569Y-25306948D01*
X112087272Y-25076199D01*
X112465662Y-24765662D01*
X112776199Y-24387272D01*
X113006948Y-23955569D01*
X113149043Y-23487145D01*
X113197023Y-23000000D01*
X113149043Y-22512855D01*
X113006948Y-22044431D01*
X112776199Y-21612728D01*
X112465662Y-21234338D01*
X112087272Y-20923801D01*
X111655569Y-20693052D01*
X111629025Y-20685000D01*
X129315000Y-20685000D01*
X129315001Y-147815000D01*
X111629025Y-147815000D01*
X111655569Y-147806948D01*
X112087272Y-147576199D01*
X112465662Y-147265662D01*
X112776199Y-146887272D01*
X113006948Y-146455569D01*
X113149043Y-145987145D01*
X113197023Y-145500000D01*
X113149043Y-145012855D01*
X113006948Y-144544431D01*
X112776199Y-144112728D01*
X112465662Y-143734338D01*
X112087272Y-143423801D01*
X111655569Y-143193052D01*
X111187145Y-143050957D01*
X110822071Y-143015000D01*
X107377929Y-143015000D01*
X107012855Y-143050957D01*
X106544431Y-143193052D01*
X106112728Y-143423801D01*
X105734338Y-143734338D01*
X105423801Y-144112728D01*
X105193052Y-144544431D01*
X105050957Y-145012855D01*
X105002977Y-145500000D01*
X105050957Y-145987145D01*
X105193052Y-146455569D01*
X105423801Y-146887272D01*
X105734338Y-147265662D01*
X106112728Y-147576199D01*
X106544431Y-147806948D01*
X106570975Y-147815000D01*
X100685000Y-147815000D01*
X100685000Y-130808266D01*
X103015000Y-130808266D01*
X103015000Y-131691734D01*
X103187356Y-132558226D01*
X103525445Y-133374444D01*
X104016273Y-134109021D01*
X104640979Y-134733727D01*
X105375556Y-135224555D01*
X106191774Y-135562644D01*
X107058266Y-135735000D01*
X107941734Y-135735000D01*
X108808226Y-135562644D01*
X109624444Y-135224555D01*
X110359021Y-134733727D01*
X110983727Y-134109021D01*
X111474555Y-133374444D01*
X111812644Y-132558226D01*
X111985000Y-131691734D01*
X111985000Y-130808266D01*
X111812644Y-129941774D01*
X111474555Y-129125556D01*
X110983727Y-128390979D01*
X110359021Y-127766273D01*
X109624444Y-127275445D01*
X108808226Y-126937356D01*
X107941734Y-126765000D01*
X107058266Y-126765000D01*
X106191774Y-126937356D01*
X105375556Y-127275445D01*
X104640979Y-127766273D01*
X104016273Y-128390979D01*
X103525445Y-129125556D01*
X103187356Y-129941774D01*
X103015000Y-130808266D01*
X100685000Y-130808266D01*
X100685000Y-116768870D01*
X102615000Y-116768870D01*
X102615000Y-117731130D01*
X102802728Y-118674902D01*
X103170970Y-119563915D01*
X103705573Y-120364006D01*
X104385994Y-121044427D01*
X105186085Y-121579030D01*
X106075098Y-121947272D01*
X107018870Y-122135000D01*
X107981130Y-122135000D01*
X108924902Y-121947272D01*
X109813915Y-121579030D01*
X110614006Y-121044427D01*
X111294427Y-120364006D01*
X111829030Y-119563915D01*
X112197272Y-118674902D01*
X112385000Y-117731130D01*
X112385000Y-116768870D01*
X112197272Y-115825098D01*
X111829030Y-114936085D01*
X111294427Y-114135994D01*
X110614006Y-113455573D01*
X109813915Y-112920970D01*
X108924902Y-112552728D01*
X107981130Y-112365000D01*
X107018870Y-112365000D01*
X106075098Y-112552728D01*
X105186085Y-112920970D01*
X104385994Y-113455573D01*
X103705573Y-114135994D01*
X103170970Y-114936085D01*
X102802728Y-115825098D01*
X102615000Y-116768870D01*
X100685000Y-116768870D01*
X100685000Y-82308266D01*
X103015000Y-82308266D01*
X103015000Y-83191734D01*
X103187356Y-84058226D01*
X103525445Y-84874444D01*
X104016273Y-85609021D01*
X104640979Y-86233727D01*
X105375556Y-86724555D01*
X106191774Y-87062644D01*
X107058266Y-87235000D01*
X107941734Y-87235000D01*
X108808226Y-87062644D01*
X109624444Y-86724555D01*
X110306425Y-86268870D01*
X116115000Y-86268870D01*
X116115000Y-87231130D01*
X116302728Y-88174902D01*
X116670970Y-89063915D01*
X117205573Y-89864006D01*
X117885994Y-90544427D01*
X118686085Y-91079030D01*
X119575098Y-91447272D01*
X120518870Y-91635000D01*
X121481130Y-91635000D01*
X122424902Y-91447272D01*
X123313915Y-91079030D01*
X124114006Y-90544427D01*
X124794427Y-89864006D01*
X125329030Y-89063915D01*
X125697272Y-88174902D01*
X125885000Y-87231130D01*
X125885000Y-86268870D01*
X125697272Y-85325098D01*
X125329030Y-84436085D01*
X124794427Y-83635994D01*
X124114006Y-82955573D01*
X123313915Y-82420970D01*
X122424902Y-82052728D01*
X121481130Y-81865000D01*
X120518870Y-81865000D01*
X119575098Y-82052728D01*
X118686085Y-82420970D01*
X117885994Y-82955573D01*
X117205573Y-83635994D01*
X116670970Y-84436085D01*
X116302728Y-85325098D01*
X116115000Y-86268870D01*
X110306425Y-86268870D01*
X110359021Y-86233727D01*
X110983727Y-85609021D01*
X111474555Y-84874444D01*
X111812644Y-84058226D01*
X111985000Y-83191734D01*
X111985000Y-82308266D01*
X111812644Y-81441774D01*
X111474555Y-80625556D01*
X110983727Y-79890979D01*
X110359021Y-79266273D01*
X109624444Y-78775445D01*
X108808226Y-78437356D01*
X107941734Y-78265000D01*
X107058266Y-78265000D01*
X106191774Y-78437356D01*
X105375556Y-78775445D01*
X104640979Y-79266273D01*
X104016273Y-79890979D01*
X103525445Y-80625556D01*
X103187356Y-81441774D01*
X103015000Y-82308266D01*
X100685000Y-82308266D01*
X100685000Y-60308266D01*
X103015000Y-60308266D01*
X103015000Y-61191734D01*
X103187356Y-62058226D01*
X103525445Y-62874444D01*
X104016273Y-63609021D01*
X104640979Y-64233727D01*
X105375556Y-64724555D01*
X106191774Y-65062644D01*
X107058266Y-65235000D01*
X107941734Y-65235000D01*
X108808226Y-65062644D01*
X109624444Y-64724555D01*
X110306425Y-64268870D01*
X116115000Y-64268870D01*
X116115000Y-65231130D01*
X116302728Y-66174902D01*
X116670970Y-67063915D01*
X117205573Y-67864006D01*
X117885994Y-68544427D01*
X118686085Y-69079030D01*
X119575098Y-69447272D01*
X120518870Y-69635000D01*
X121481130Y-69635000D01*
X122424902Y-69447272D01*
X123313915Y-69079030D01*
X124114006Y-68544427D01*
X124794427Y-67864006D01*
X125329030Y-67063915D01*
X125697272Y-66174902D01*
X125885000Y-65231130D01*
X125885000Y-64268870D01*
X125697272Y-63325098D01*
X125329030Y-62436085D01*
X124794427Y-61635994D01*
X124114006Y-60955573D01*
X123313915Y-60420970D01*
X122424902Y-60052728D01*
X121481130Y-59865000D01*
X120518870Y-59865000D01*
X119575098Y-60052728D01*
X118686085Y-60420970D01*
X117885994Y-60955573D01*
X117205573Y-61635994D01*
X116670970Y-62436085D01*
X116302728Y-63325098D01*
X116115000Y-64268870D01*
X110306425Y-64268870D01*
X110359021Y-64233727D01*
X110983727Y-63609021D01*
X111474555Y-62874444D01*
X111812644Y-62058226D01*
X111985000Y-61191734D01*
X111985000Y-60308266D01*
X111812644Y-59441774D01*
X111474555Y-58625556D01*
X110983727Y-57890979D01*
X110359021Y-57266273D01*
X109624444Y-56775445D01*
X108808226Y-56437356D01*
X107941734Y-56265000D01*
X107058266Y-56265000D01*
X106191774Y-56437356D01*
X105375556Y-56775445D01*
X104640979Y-57266273D01*
X104016273Y-57890979D01*
X103525445Y-58625556D01*
X103187356Y-59441774D01*
X103015000Y-60308266D01*
X100685000Y-60308266D01*
X100685000Y-38308266D01*
X103015000Y-38308266D01*
X103015000Y-39191734D01*
X103187356Y-40058226D01*
X103525445Y-40874444D01*
X104016273Y-41609021D01*
X104640979Y-42233727D01*
X105375556Y-42724555D01*
X106191774Y-43062644D01*
X107058266Y-43235000D01*
X107941734Y-43235000D01*
X108808226Y-43062644D01*
X109624444Y-42724555D01*
X110306425Y-42268870D01*
X116115000Y-42268870D01*
X116115000Y-43231130D01*
X116302728Y-44174902D01*
X116670970Y-45063915D01*
X117205573Y-45864006D01*
X117885994Y-46544427D01*
X118686085Y-47079030D01*
X119575098Y-47447272D01*
X120518870Y-47635000D01*
X121481130Y-47635000D01*
X122424902Y-47447272D01*
X123313915Y-47079030D01*
X124114006Y-46544427D01*
X124794427Y-45864006D01*
X125329030Y-45063915D01*
X125697272Y-44174902D01*
X125885000Y-43231130D01*
X125885000Y-42268870D01*
X125697272Y-41325098D01*
X125329030Y-40436085D01*
X124794427Y-39635994D01*
X124114006Y-38955573D01*
X123313915Y-38420970D01*
X122424902Y-38052728D01*
X121481130Y-37865000D01*
X120518870Y-37865000D01*
X119575098Y-38052728D01*
X118686085Y-38420970D01*
X117885994Y-38955573D01*
X117205573Y-39635994D01*
X116670970Y-40436085D01*
X116302728Y-41325098D01*
X116115000Y-42268870D01*
X110306425Y-42268870D01*
X110359021Y-42233727D01*
X110983727Y-41609021D01*
X111474555Y-40874444D01*
X111812644Y-40058226D01*
X111985000Y-39191734D01*
X111985000Y-38308266D01*
X111812644Y-37441774D01*
X111474555Y-36625556D01*
X110983727Y-35890979D01*
X110359021Y-35266273D01*
X109624444Y-34775445D01*
X108808226Y-34437356D01*
X107941734Y-34265000D01*
X107058266Y-34265000D01*
X106191774Y-34437356D01*
X105375556Y-34775445D01*
X104640979Y-35266273D01*
X104016273Y-35890979D01*
X103525445Y-36625556D01*
X103187356Y-37441774D01*
X103015000Y-38308266D01*
X100685000Y-38308266D01*
X100685000Y-20685000D01*
X106570975Y-20685000D01*
X106544431Y-20693052D01*
M02*
