G04 #@! TF.GenerationSoftware,KiCad,Pcbnew,(5.1.6-0-10_14)*
G04 #@! TF.CreationDate,2020-07-27T13:54:38+02:00*
G04 #@! TF.ProjectId,HelloWorld-noPanel,48656c6c-6f57-46f7-926c-642d6e6f5061,rev?*
G04 #@! TF.SameCoordinates,Original*
G04 #@! TF.FileFunction,Copper,L2,Bot*
G04 #@! TF.FilePolarity,Positive*
%FSLAX46Y46*%
G04 Gerber Fmt 4.6, Leading zero omitted, Abs format (unit mm)*
G04 Created by KiCad (PCBNEW (5.1.6-0-10_14)) date 2020-07-27 13:54:38*
%MOMM*%
%LPD*%
G01*
G04 APERTURE LIST*
G04 #@! TA.AperFunction,ComponentPad*
%ADD10O,1.600000X1.600000*%
G04 #@! TD*
G04 #@! TA.AperFunction,ComponentPad*
%ADD11R,1.600000X1.600000*%
G04 #@! TD*
G04 #@! TA.AperFunction,ComponentPad*
%ADD12C,1.600000*%
G04 #@! TD*
G04 #@! TA.AperFunction,ComponentPad*
%ADD13C,2.130000*%
G04 #@! TD*
G04 #@! TA.AperFunction,ComponentPad*
%ADD14R,1.930000X1.830000*%
G04 #@! TD*
G04 #@! TA.AperFunction,ComponentPad*
%ADD15O,1.700000X1.700000*%
G04 #@! TD*
G04 #@! TA.AperFunction,ComponentPad*
%ADD16R,1.700000X1.700000*%
G04 #@! TD*
G04 #@! TA.AperFunction,ComponentPad*
%ADD17O,1.400000X1.400000*%
G04 #@! TD*
G04 #@! TA.AperFunction,ComponentPad*
%ADD18C,1.400000*%
G04 #@! TD*
G04 #@! TA.AperFunction,ComponentPad*
%ADD19O,2.720000X3.240000*%
G04 #@! TD*
G04 #@! TA.AperFunction,ComponentPad*
%ADD20C,1.800000*%
G04 #@! TD*
G04 #@! TA.AperFunction,ComponentPad*
%ADD21R,1.800000X1.800000*%
G04 #@! TD*
G04 #@! TA.AperFunction,ViaPad*
%ADD22C,0.800000*%
G04 #@! TD*
G04 #@! TA.AperFunction,Conductor*
%ADD23C,0.600000*%
G04 #@! TD*
G04 #@! TA.AperFunction,Conductor*
%ADD24C,0.254000*%
G04 #@! TD*
G04 APERTURE END LIST*
D10*
X87376000Y-84836000D03*
X77216000Y-92456000D03*
X87376000Y-87376000D03*
X77216000Y-89916000D03*
X87376000Y-89916000D03*
X77216000Y-87376000D03*
X87376000Y-92456000D03*
D11*
X77216000Y-84836000D03*
D12*
X94488000Y-87336000D03*
X94488000Y-84836000D03*
X80812000Y-96012000D03*
X83312000Y-96012000D03*
X73152000Y-87336000D03*
X73152000Y-84836000D03*
X94488000Y-92416000D03*
X94488000Y-89916000D03*
D13*
X76500000Y-23100000D03*
D14*
X76500000Y-34500000D03*
D13*
X76500000Y-31400000D03*
X76500000Y-45100000D03*
D14*
X76500000Y-56500000D03*
D13*
X76500000Y-53400000D03*
X76500000Y-67100000D03*
D14*
X76500000Y-78500000D03*
D13*
X76500000Y-75400000D03*
D15*
X95540000Y-125660000D03*
X93000000Y-125660000D03*
X95540000Y-123120000D03*
X93000000Y-123120000D03*
X95540000Y-120580000D03*
X93000000Y-120580000D03*
X95540000Y-118040000D03*
X93000000Y-118040000D03*
X95540000Y-115500000D03*
D16*
X93000000Y-115500000D03*
D13*
X76500000Y-125900000D03*
D14*
X76500000Y-114500000D03*
D13*
X76500000Y-117600000D03*
D17*
X86360000Y-21844000D03*
D18*
X93980000Y-21844000D03*
D17*
X86360000Y-41656000D03*
D18*
X93980000Y-41656000D03*
D17*
X86360000Y-64008000D03*
D18*
X93980000Y-64008000D03*
D17*
X85344000Y-109220000D03*
D18*
X85344000Y-101600000D03*
D17*
X90424000Y-92456000D03*
D18*
X90424000Y-84836000D03*
D17*
X90250000Y-101630000D03*
D18*
X90250000Y-109250000D03*
D19*
X94800000Y-32500000D03*
X85200000Y-32500000D03*
D20*
X87500000Y-25000000D03*
X90000000Y-25000000D03*
D21*
X92500000Y-25000000D03*
D19*
X94800000Y-54500000D03*
X85200000Y-54500000D03*
D20*
X87500000Y-47000000D03*
X90000000Y-47000000D03*
D21*
X92500000Y-47000000D03*
D19*
X94800000Y-76500000D03*
X85200000Y-76500000D03*
D20*
X87500000Y-69000000D03*
X90000000Y-69000000D03*
D21*
X92500000Y-69000000D03*
D19*
X81300000Y-107000000D03*
X71700000Y-107000000D03*
D20*
X74000000Y-99500000D03*
X76500000Y-99500000D03*
D21*
X79000000Y-99500000D03*
D22*
X85500000Y-98250000D03*
D23*
X85550000Y-98250000D02*
X85500000Y-98250000D01*
X88930000Y-101630000D02*
X85550000Y-98250000D01*
X90250000Y-101630000D02*
X88930000Y-101630000D01*
D24*
G36*
X85508987Y-20807038D02*
G01*
X85323038Y-20992987D01*
X85176939Y-21211641D01*
X85076304Y-21454595D01*
X85025000Y-21712514D01*
X85025000Y-21975486D01*
X85076304Y-22233405D01*
X85176939Y-22476359D01*
X85323038Y-22695013D01*
X85508987Y-22880962D01*
X85727641Y-23027061D01*
X85970595Y-23127696D01*
X86228514Y-23179000D01*
X86491486Y-23179000D01*
X86749405Y-23127696D01*
X86992359Y-23027061D01*
X87211013Y-22880962D01*
X87396962Y-22695013D01*
X87543061Y-22476359D01*
X87643696Y-22233405D01*
X87695000Y-21975486D01*
X87695000Y-21712514D01*
X87643696Y-21454595D01*
X87543061Y-21211641D01*
X87396962Y-20992987D01*
X87211013Y-20807038D01*
X87028369Y-20685000D01*
X93311631Y-20685000D01*
X93128987Y-20807038D01*
X92943038Y-20992987D01*
X92796939Y-21211641D01*
X92696304Y-21454595D01*
X92645000Y-21712514D01*
X92645000Y-21975486D01*
X92696304Y-22233405D01*
X92796939Y-22476359D01*
X92943038Y-22695013D01*
X93128987Y-22880962D01*
X93347641Y-23027061D01*
X93590595Y-23127696D01*
X93848514Y-23179000D01*
X94111486Y-23179000D01*
X94369405Y-23127696D01*
X94612359Y-23027061D01*
X94831013Y-22880962D01*
X95016962Y-22695013D01*
X95163061Y-22476359D01*
X95263696Y-22233405D01*
X95315000Y-21975486D01*
X95315000Y-21712514D01*
X95263696Y-21454595D01*
X95163061Y-21211641D01*
X95016962Y-20992987D01*
X94831013Y-20807038D01*
X94648369Y-20685000D01*
X97315001Y-20685000D01*
X97315000Y-127315000D01*
X77442223Y-127315000D01*
X77583687Y-127220477D01*
X77820477Y-126983687D01*
X78006521Y-126705252D01*
X78134670Y-126395872D01*
X78200000Y-126067435D01*
X78200000Y-125732565D01*
X78156474Y-125513740D01*
X91515000Y-125513740D01*
X91515000Y-125806260D01*
X91572068Y-126093158D01*
X91684010Y-126363411D01*
X91846525Y-126606632D01*
X92053368Y-126813475D01*
X92296589Y-126975990D01*
X92566842Y-127087932D01*
X92853740Y-127145000D01*
X93146260Y-127145000D01*
X93433158Y-127087932D01*
X93703411Y-126975990D01*
X93946632Y-126813475D01*
X94153475Y-126606632D01*
X94270000Y-126432240D01*
X94386525Y-126606632D01*
X94593368Y-126813475D01*
X94836589Y-126975990D01*
X95106842Y-127087932D01*
X95393740Y-127145000D01*
X95686260Y-127145000D01*
X95973158Y-127087932D01*
X96243411Y-126975990D01*
X96486632Y-126813475D01*
X96693475Y-126606632D01*
X96855990Y-126363411D01*
X96967932Y-126093158D01*
X97025000Y-125806260D01*
X97025000Y-125513740D01*
X96967932Y-125226842D01*
X96855990Y-124956589D01*
X96693475Y-124713368D01*
X96486632Y-124506525D01*
X96304466Y-124384805D01*
X96421355Y-124315178D01*
X96637588Y-124120269D01*
X96811641Y-123886920D01*
X96936825Y-123624099D01*
X96981476Y-123476890D01*
X96860155Y-123247000D01*
X95667000Y-123247000D01*
X95667000Y-123267000D01*
X95413000Y-123267000D01*
X95413000Y-123247000D01*
X93127000Y-123247000D01*
X93127000Y-123267000D01*
X92873000Y-123267000D01*
X92873000Y-123247000D01*
X91679845Y-123247000D01*
X91558524Y-123476890D01*
X91603175Y-123624099D01*
X91728359Y-123886920D01*
X91902412Y-124120269D01*
X92118645Y-124315178D01*
X92235534Y-124384805D01*
X92053368Y-124506525D01*
X91846525Y-124713368D01*
X91684010Y-124956589D01*
X91572068Y-125226842D01*
X91515000Y-125513740D01*
X78156474Y-125513740D01*
X78134670Y-125404128D01*
X78006521Y-125094748D01*
X77820477Y-124816313D01*
X77583687Y-124579523D01*
X77305252Y-124393479D01*
X76995872Y-124265330D01*
X76667435Y-124200000D01*
X76332565Y-124200000D01*
X76004128Y-124265330D01*
X75694748Y-124393479D01*
X75416313Y-124579523D01*
X75179523Y-124816313D01*
X74993479Y-125094748D01*
X74865330Y-125404128D01*
X74800000Y-125732565D01*
X74800000Y-126067435D01*
X74865330Y-126395872D01*
X74993479Y-126705252D01*
X75179523Y-126983687D01*
X75416313Y-127220477D01*
X75557777Y-127315000D01*
X70685000Y-127315000D01*
X70685000Y-120936890D01*
X91558524Y-120936890D01*
X91603175Y-121084099D01*
X91728359Y-121346920D01*
X91902412Y-121580269D01*
X92118645Y-121775178D01*
X92244255Y-121850000D01*
X92118645Y-121924822D01*
X91902412Y-122119731D01*
X91728359Y-122353080D01*
X91603175Y-122615901D01*
X91558524Y-122763110D01*
X91679845Y-122993000D01*
X92873000Y-122993000D01*
X92873000Y-120707000D01*
X93127000Y-120707000D01*
X93127000Y-122993000D01*
X95413000Y-122993000D01*
X95413000Y-120707000D01*
X95667000Y-120707000D01*
X95667000Y-122993000D01*
X96860155Y-122993000D01*
X96981476Y-122763110D01*
X96936825Y-122615901D01*
X96811641Y-122353080D01*
X96637588Y-122119731D01*
X96421355Y-121924822D01*
X96295745Y-121850000D01*
X96421355Y-121775178D01*
X96637588Y-121580269D01*
X96811641Y-121346920D01*
X96936825Y-121084099D01*
X96981476Y-120936890D01*
X96860155Y-120707000D01*
X95667000Y-120707000D01*
X95413000Y-120707000D01*
X93127000Y-120707000D01*
X92873000Y-120707000D01*
X91679845Y-120707000D01*
X91558524Y-120936890D01*
X70685000Y-120936890D01*
X70685000Y-117432565D01*
X74800000Y-117432565D01*
X74800000Y-117767435D01*
X74865330Y-118095872D01*
X74993479Y-118405252D01*
X75179523Y-118683687D01*
X75416313Y-118920477D01*
X75694748Y-119106521D01*
X76004128Y-119234670D01*
X76332565Y-119300000D01*
X76667435Y-119300000D01*
X76995872Y-119234670D01*
X77305252Y-119106521D01*
X77583687Y-118920477D01*
X77820477Y-118683687D01*
X78006521Y-118405252D01*
X78009984Y-118396890D01*
X91558524Y-118396890D01*
X91603175Y-118544099D01*
X91728359Y-118806920D01*
X91902412Y-119040269D01*
X92118645Y-119235178D01*
X92244255Y-119310000D01*
X92118645Y-119384822D01*
X91902412Y-119579731D01*
X91728359Y-119813080D01*
X91603175Y-120075901D01*
X91558524Y-120223110D01*
X91679845Y-120453000D01*
X92873000Y-120453000D01*
X92873000Y-118167000D01*
X93127000Y-118167000D01*
X93127000Y-120453000D01*
X95413000Y-120453000D01*
X95413000Y-118167000D01*
X95667000Y-118167000D01*
X95667000Y-120453000D01*
X96860155Y-120453000D01*
X96981476Y-120223110D01*
X96936825Y-120075901D01*
X96811641Y-119813080D01*
X96637588Y-119579731D01*
X96421355Y-119384822D01*
X96295745Y-119310000D01*
X96421355Y-119235178D01*
X96637588Y-119040269D01*
X96811641Y-118806920D01*
X96936825Y-118544099D01*
X96981476Y-118396890D01*
X96860155Y-118167000D01*
X95667000Y-118167000D01*
X95413000Y-118167000D01*
X93127000Y-118167000D01*
X92873000Y-118167000D01*
X91679845Y-118167000D01*
X91558524Y-118396890D01*
X78009984Y-118396890D01*
X78134670Y-118095872D01*
X78200000Y-117767435D01*
X78200000Y-117432565D01*
X78134670Y-117104128D01*
X78006521Y-116794748D01*
X77820477Y-116516313D01*
X77583687Y-116279523D01*
X77305252Y-116093479D01*
X77204860Y-116051895D01*
X77465000Y-116053072D01*
X77589482Y-116040812D01*
X77709180Y-116004502D01*
X77819494Y-115945537D01*
X77916185Y-115866185D01*
X77995537Y-115769494D01*
X78054502Y-115659180D01*
X78090812Y-115539482D01*
X78103072Y-115415000D01*
X78100000Y-114785750D01*
X77964250Y-114650000D01*
X91511928Y-114650000D01*
X91511928Y-116350000D01*
X91524188Y-116474482D01*
X91560498Y-116594180D01*
X91619463Y-116704494D01*
X91698815Y-116801185D01*
X91795506Y-116880537D01*
X91905820Y-116939502D01*
X91986466Y-116963966D01*
X91902412Y-117039731D01*
X91728359Y-117273080D01*
X91603175Y-117535901D01*
X91558524Y-117683110D01*
X91679845Y-117913000D01*
X92873000Y-117913000D01*
X92873000Y-117893000D01*
X93127000Y-117893000D01*
X93127000Y-117913000D01*
X95413000Y-117913000D01*
X95413000Y-117893000D01*
X95667000Y-117893000D01*
X95667000Y-117913000D01*
X96860155Y-117913000D01*
X96981476Y-117683110D01*
X96936825Y-117535901D01*
X96811641Y-117273080D01*
X96637588Y-117039731D01*
X96421355Y-116844822D01*
X96304466Y-116775195D01*
X96486632Y-116653475D01*
X96693475Y-116446632D01*
X96855990Y-116203411D01*
X96967932Y-115933158D01*
X97025000Y-115646260D01*
X97025000Y-115353740D01*
X96967932Y-115066842D01*
X96855990Y-114796589D01*
X96693475Y-114553368D01*
X96486632Y-114346525D01*
X96243411Y-114184010D01*
X95973158Y-114072068D01*
X95686260Y-114015000D01*
X95393740Y-114015000D01*
X95106842Y-114072068D01*
X94836589Y-114184010D01*
X94593368Y-114346525D01*
X94461513Y-114478380D01*
X94439502Y-114405820D01*
X94380537Y-114295506D01*
X94301185Y-114198815D01*
X94204494Y-114119463D01*
X94094180Y-114060498D01*
X93974482Y-114024188D01*
X93850000Y-114011928D01*
X92150000Y-114011928D01*
X92025518Y-114024188D01*
X91905820Y-114060498D01*
X91795506Y-114119463D01*
X91698815Y-114198815D01*
X91619463Y-114295506D01*
X91560498Y-114405820D01*
X91524188Y-114525518D01*
X91511928Y-114650000D01*
X77964250Y-114650000D01*
X77941250Y-114627000D01*
X76627000Y-114627000D01*
X76627000Y-114647000D01*
X76373000Y-114647000D01*
X76373000Y-114627000D01*
X75058750Y-114627000D01*
X74900000Y-114785750D01*
X74896928Y-115415000D01*
X74909188Y-115539482D01*
X74945498Y-115659180D01*
X75004463Y-115769494D01*
X75083815Y-115866185D01*
X75180506Y-115945537D01*
X75290820Y-116004502D01*
X75410518Y-116040812D01*
X75535000Y-116053072D01*
X75795140Y-116051895D01*
X75694748Y-116093479D01*
X75416313Y-116279523D01*
X75179523Y-116516313D01*
X74993479Y-116794748D01*
X74865330Y-117104128D01*
X74800000Y-117432565D01*
X70685000Y-117432565D01*
X70685000Y-113585000D01*
X74896928Y-113585000D01*
X74900000Y-114214250D01*
X75058750Y-114373000D01*
X76373000Y-114373000D01*
X76373000Y-113108750D01*
X76627000Y-113108750D01*
X76627000Y-114373000D01*
X77941250Y-114373000D01*
X78100000Y-114214250D01*
X78103072Y-113585000D01*
X78090812Y-113460518D01*
X78054502Y-113340820D01*
X77995537Y-113230506D01*
X77916185Y-113133815D01*
X77819494Y-113054463D01*
X77709180Y-112995498D01*
X77589482Y-112959188D01*
X77465000Y-112946928D01*
X76785750Y-112950000D01*
X76627000Y-113108750D01*
X76373000Y-113108750D01*
X76214250Y-112950000D01*
X75535000Y-112946928D01*
X75410518Y-112959188D01*
X75290820Y-112995498D01*
X75180506Y-113054463D01*
X75083815Y-113133815D01*
X75004463Y-113230506D01*
X74945498Y-113340820D01*
X74909188Y-113460518D01*
X74896928Y-113585000D01*
X70685000Y-113585000D01*
X70685000Y-108979576D01*
X70932854Y-109112057D01*
X71308913Y-109226133D01*
X71700000Y-109264652D01*
X72091088Y-109226133D01*
X72467147Y-109112057D01*
X72813725Y-108926807D01*
X73117503Y-108677503D01*
X73366807Y-108373725D01*
X73552057Y-108027147D01*
X73666133Y-107651087D01*
X73695000Y-107357997D01*
X73695000Y-106642003D01*
X79305000Y-106642003D01*
X79305000Y-107357998D01*
X79333867Y-107651088D01*
X79447943Y-108027147D01*
X79633193Y-108373725D01*
X79882498Y-108677503D01*
X80186276Y-108926807D01*
X80532854Y-109112057D01*
X80908913Y-109226133D01*
X81300000Y-109264652D01*
X81691088Y-109226133D01*
X82067147Y-109112057D01*
X82111192Y-109088514D01*
X84009000Y-109088514D01*
X84009000Y-109351486D01*
X84060304Y-109609405D01*
X84160939Y-109852359D01*
X84307038Y-110071013D01*
X84492987Y-110256962D01*
X84711641Y-110403061D01*
X84954595Y-110503696D01*
X85212514Y-110555000D01*
X85475486Y-110555000D01*
X85733405Y-110503696D01*
X85976359Y-110403061D01*
X86195013Y-110256962D01*
X86380962Y-110071013D01*
X86527061Y-109852359D01*
X86627696Y-109609405D01*
X86679000Y-109351486D01*
X86679000Y-109118514D01*
X88915000Y-109118514D01*
X88915000Y-109381486D01*
X88966304Y-109639405D01*
X89066939Y-109882359D01*
X89213038Y-110101013D01*
X89398987Y-110286962D01*
X89617641Y-110433061D01*
X89860595Y-110533696D01*
X90118514Y-110585000D01*
X90381486Y-110585000D01*
X90639405Y-110533696D01*
X90882359Y-110433061D01*
X91101013Y-110286962D01*
X91286962Y-110101013D01*
X91433061Y-109882359D01*
X91533696Y-109639405D01*
X91585000Y-109381486D01*
X91585000Y-109118514D01*
X91533696Y-108860595D01*
X91433061Y-108617641D01*
X91286962Y-108398987D01*
X91101013Y-108213038D01*
X90882359Y-108066939D01*
X90639405Y-107966304D01*
X90381486Y-107915000D01*
X90118514Y-107915000D01*
X89860595Y-107966304D01*
X89617641Y-108066939D01*
X89398987Y-108213038D01*
X89213038Y-108398987D01*
X89066939Y-108617641D01*
X88966304Y-108860595D01*
X88915000Y-109118514D01*
X86679000Y-109118514D01*
X86679000Y-109088514D01*
X86627696Y-108830595D01*
X86527061Y-108587641D01*
X86380962Y-108368987D01*
X86195013Y-108183038D01*
X85976359Y-108036939D01*
X85733405Y-107936304D01*
X85475486Y-107885000D01*
X85212514Y-107885000D01*
X84954595Y-107936304D01*
X84711641Y-108036939D01*
X84492987Y-108183038D01*
X84307038Y-108368987D01*
X84160939Y-108587641D01*
X84060304Y-108830595D01*
X84009000Y-109088514D01*
X82111192Y-109088514D01*
X82413725Y-108926807D01*
X82717503Y-108677503D01*
X82966807Y-108373725D01*
X83152057Y-108027147D01*
X83266133Y-107651087D01*
X83295000Y-107357997D01*
X83295000Y-106642002D01*
X83266133Y-106348912D01*
X83152057Y-105972853D01*
X82966807Y-105626275D01*
X82717503Y-105322497D01*
X82413725Y-105073193D01*
X82067146Y-104887943D01*
X81691087Y-104773867D01*
X81300000Y-104735348D01*
X80908912Y-104773867D01*
X80532853Y-104887943D01*
X80186275Y-105073193D01*
X79882497Y-105322497D01*
X79633193Y-105626275D01*
X79447943Y-105972854D01*
X79333867Y-106348913D01*
X79305000Y-106642003D01*
X73695000Y-106642003D01*
X73695000Y-106642002D01*
X73666133Y-106348912D01*
X73552057Y-105972853D01*
X73366807Y-105626275D01*
X73117503Y-105322497D01*
X72813725Y-105073193D01*
X72467146Y-104887943D01*
X72091087Y-104773867D01*
X71700000Y-104735348D01*
X71308912Y-104773867D01*
X70932853Y-104887943D01*
X70685000Y-105020423D01*
X70685000Y-101468514D01*
X84009000Y-101468514D01*
X84009000Y-101731486D01*
X84060304Y-101989405D01*
X84160939Y-102232359D01*
X84307038Y-102451013D01*
X84492987Y-102636962D01*
X84711641Y-102783061D01*
X84954595Y-102883696D01*
X85212514Y-102935000D01*
X85475486Y-102935000D01*
X85733405Y-102883696D01*
X85976359Y-102783061D01*
X86195013Y-102636962D01*
X86380962Y-102451013D01*
X86527061Y-102232359D01*
X86627696Y-101989405D01*
X86679000Y-101731486D01*
X86679000Y-101468514D01*
X86627696Y-101210595D01*
X86527061Y-100967641D01*
X86380962Y-100748987D01*
X86195013Y-100563038D01*
X85976359Y-100416939D01*
X85733405Y-100316304D01*
X85475486Y-100265000D01*
X85212514Y-100265000D01*
X84954595Y-100316304D01*
X84711641Y-100416939D01*
X84492987Y-100563038D01*
X84307038Y-100748987D01*
X84160939Y-100967641D01*
X84060304Y-101210595D01*
X84009000Y-101468514D01*
X70685000Y-101468514D01*
X70685000Y-99348816D01*
X72465000Y-99348816D01*
X72465000Y-99651184D01*
X72523989Y-99947743D01*
X72639701Y-100227095D01*
X72807688Y-100478505D01*
X73021495Y-100692312D01*
X73272905Y-100860299D01*
X73552257Y-100976011D01*
X73848816Y-101035000D01*
X74151184Y-101035000D01*
X74447743Y-100976011D01*
X74727095Y-100860299D01*
X74978505Y-100692312D01*
X75192312Y-100478505D01*
X75250000Y-100392169D01*
X75307688Y-100478505D01*
X75521495Y-100692312D01*
X75772905Y-100860299D01*
X76052257Y-100976011D01*
X76348816Y-101035000D01*
X76651184Y-101035000D01*
X76947743Y-100976011D01*
X77227095Y-100860299D01*
X77478505Y-100692312D01*
X77516120Y-100654697D01*
X77569463Y-100754494D01*
X77648815Y-100851185D01*
X77745506Y-100930537D01*
X77855820Y-100989502D01*
X77975518Y-101025812D01*
X78100000Y-101038072D01*
X79900000Y-101038072D01*
X80024482Y-101025812D01*
X80144180Y-100989502D01*
X80254494Y-100930537D01*
X80351185Y-100851185D01*
X80430537Y-100754494D01*
X80489502Y-100644180D01*
X80525812Y-100524482D01*
X80538072Y-100400000D01*
X80538072Y-98600000D01*
X80525812Y-98475518D01*
X80489502Y-98355820D01*
X80430537Y-98245506D01*
X80351185Y-98148815D01*
X80350267Y-98148061D01*
X84465000Y-98148061D01*
X84465000Y-98351939D01*
X84504774Y-98551898D01*
X84582795Y-98740256D01*
X84696063Y-98909774D01*
X84840226Y-99053937D01*
X85009744Y-99167205D01*
X85198102Y-99245226D01*
X85229104Y-99251393D01*
X88236370Y-102258659D01*
X88265656Y-102294344D01*
X88408028Y-102411186D01*
X88570460Y-102498007D01*
X88746708Y-102551471D01*
X88930000Y-102569524D01*
X88975932Y-102565000D01*
X89297025Y-102565000D01*
X89398987Y-102666962D01*
X89617641Y-102813061D01*
X89860595Y-102913696D01*
X90118514Y-102965000D01*
X90381486Y-102965000D01*
X90639405Y-102913696D01*
X90882359Y-102813061D01*
X91101013Y-102666962D01*
X91286962Y-102481013D01*
X91433061Y-102262359D01*
X91533696Y-102019405D01*
X91585000Y-101761486D01*
X91585000Y-101498514D01*
X91533696Y-101240595D01*
X91433061Y-100997641D01*
X91286962Y-100778987D01*
X91101013Y-100593038D01*
X90882359Y-100446939D01*
X90639405Y-100346304D01*
X90381486Y-100295000D01*
X90118514Y-100295000D01*
X89860595Y-100346304D01*
X89617641Y-100446939D01*
X89398987Y-100593038D01*
X89307157Y-100684868D01*
X86442076Y-97819787D01*
X86417205Y-97759744D01*
X86303937Y-97590226D01*
X86159774Y-97446063D01*
X85990256Y-97332795D01*
X85801898Y-97254774D01*
X85601939Y-97215000D01*
X85398061Y-97215000D01*
X85198102Y-97254774D01*
X85009744Y-97332795D01*
X84840226Y-97446063D01*
X84696063Y-97590226D01*
X84582795Y-97759744D01*
X84504774Y-97948102D01*
X84465000Y-98148061D01*
X80350267Y-98148061D01*
X80254494Y-98069463D01*
X80144180Y-98010498D01*
X80024482Y-97974188D01*
X79900000Y-97961928D01*
X78100000Y-97961928D01*
X77975518Y-97974188D01*
X77855820Y-98010498D01*
X77745506Y-98069463D01*
X77648815Y-98148815D01*
X77569463Y-98245506D01*
X77516120Y-98345303D01*
X77478505Y-98307688D01*
X77227095Y-98139701D01*
X76947743Y-98023989D01*
X76651184Y-97965000D01*
X76348816Y-97965000D01*
X76052257Y-98023989D01*
X75772905Y-98139701D01*
X75521495Y-98307688D01*
X75307688Y-98521495D01*
X75250000Y-98607831D01*
X75192312Y-98521495D01*
X74978505Y-98307688D01*
X74727095Y-98139701D01*
X74447743Y-98023989D01*
X74151184Y-97965000D01*
X73848816Y-97965000D01*
X73552257Y-98023989D01*
X73272905Y-98139701D01*
X73021495Y-98307688D01*
X72807688Y-98521495D01*
X72639701Y-98772905D01*
X72523989Y-99052257D01*
X72465000Y-99348816D01*
X70685000Y-99348816D01*
X70685000Y-95870665D01*
X79377000Y-95870665D01*
X79377000Y-96153335D01*
X79432147Y-96430574D01*
X79540320Y-96691727D01*
X79697363Y-96926759D01*
X79897241Y-97126637D01*
X80132273Y-97283680D01*
X80393426Y-97391853D01*
X80670665Y-97447000D01*
X80953335Y-97447000D01*
X81230574Y-97391853D01*
X81491727Y-97283680D01*
X81726759Y-97126637D01*
X81848694Y-97004702D01*
X82498903Y-97004702D01*
X82570486Y-97248671D01*
X82825996Y-97369571D01*
X83100184Y-97438300D01*
X83382512Y-97452217D01*
X83662130Y-97410787D01*
X83928292Y-97315603D01*
X84053514Y-97248671D01*
X84125097Y-97004702D01*
X83312000Y-96191605D01*
X82498903Y-97004702D01*
X81848694Y-97004702D01*
X81926637Y-96926759D01*
X82060692Y-96726131D01*
X82075329Y-96753514D01*
X82319298Y-96825097D01*
X83132395Y-96012000D01*
X83491605Y-96012000D01*
X84304702Y-96825097D01*
X84548671Y-96753514D01*
X84669571Y-96498004D01*
X84738300Y-96223816D01*
X84752217Y-95941488D01*
X84710787Y-95661870D01*
X84615603Y-95395708D01*
X84548671Y-95270486D01*
X84304702Y-95198903D01*
X83491605Y-96012000D01*
X83132395Y-96012000D01*
X82319298Y-95198903D01*
X82075329Y-95270486D01*
X82061676Y-95299341D01*
X81926637Y-95097241D01*
X81848694Y-95019298D01*
X82498903Y-95019298D01*
X83312000Y-95832395D01*
X84125097Y-95019298D01*
X84053514Y-94775329D01*
X83798004Y-94654429D01*
X83523816Y-94585700D01*
X83241488Y-94571783D01*
X82961870Y-94613213D01*
X82695708Y-94708397D01*
X82570486Y-94775329D01*
X82498903Y-95019298D01*
X81848694Y-95019298D01*
X81726759Y-94897363D01*
X81491727Y-94740320D01*
X81230574Y-94632147D01*
X80953335Y-94577000D01*
X80670665Y-94577000D01*
X80393426Y-94632147D01*
X80132273Y-94740320D01*
X79897241Y-94897363D01*
X79697363Y-95097241D01*
X79540320Y-95332273D01*
X79432147Y-95593426D01*
X79377000Y-95870665D01*
X70685000Y-95870665D01*
X70685000Y-92314665D01*
X75781000Y-92314665D01*
X75781000Y-92597335D01*
X75836147Y-92874574D01*
X75944320Y-93135727D01*
X76101363Y-93370759D01*
X76301241Y-93570637D01*
X76536273Y-93727680D01*
X76797426Y-93835853D01*
X77074665Y-93891000D01*
X77357335Y-93891000D01*
X77634574Y-93835853D01*
X77895727Y-93727680D01*
X78130759Y-93570637D01*
X78330637Y-93370759D01*
X78487680Y-93135727D01*
X78595853Y-92874574D01*
X78609684Y-92805039D01*
X85984096Y-92805039D01*
X86024754Y-92939087D01*
X86144963Y-93193420D01*
X86312481Y-93419414D01*
X86520869Y-93608385D01*
X86762119Y-93753070D01*
X87026960Y-93847909D01*
X87249000Y-93726624D01*
X87249000Y-92583000D01*
X87503000Y-92583000D01*
X87503000Y-93726624D01*
X87725040Y-93847909D01*
X87989881Y-93753070D01*
X88231131Y-93608385D01*
X88439519Y-93419414D01*
X88607037Y-93193420D01*
X88727246Y-92939087D01*
X88767904Y-92805039D01*
X88645915Y-92583000D01*
X87503000Y-92583000D01*
X87249000Y-92583000D01*
X86106085Y-92583000D01*
X85984096Y-92805039D01*
X78609684Y-92805039D01*
X78651000Y-92597335D01*
X78651000Y-92314665D01*
X78595853Y-92037426D01*
X78487680Y-91776273D01*
X78330637Y-91541241D01*
X78130759Y-91341363D01*
X77895727Y-91184320D01*
X77885135Y-91179933D01*
X78071131Y-91068385D01*
X78279519Y-90879414D01*
X78447037Y-90653420D01*
X78567246Y-90399087D01*
X78607904Y-90265039D01*
X78485915Y-90043000D01*
X77343000Y-90043000D01*
X77343000Y-90063000D01*
X77089000Y-90063000D01*
X77089000Y-90043000D01*
X75946085Y-90043000D01*
X75824096Y-90265039D01*
X75864754Y-90399087D01*
X75984963Y-90653420D01*
X76152481Y-90879414D01*
X76360869Y-91068385D01*
X76546865Y-91179933D01*
X76536273Y-91184320D01*
X76301241Y-91341363D01*
X76101363Y-91541241D01*
X75944320Y-91776273D01*
X75836147Y-92037426D01*
X75781000Y-92314665D01*
X70685000Y-92314665D01*
X70685000Y-84694665D01*
X71717000Y-84694665D01*
X71717000Y-84977335D01*
X71772147Y-85254574D01*
X71880320Y-85515727D01*
X72037363Y-85750759D01*
X72237241Y-85950637D01*
X72439827Y-86086000D01*
X72237241Y-86221363D01*
X72037363Y-86421241D01*
X71880320Y-86656273D01*
X71772147Y-86917426D01*
X71717000Y-87194665D01*
X71717000Y-87477335D01*
X71772147Y-87754574D01*
X71880320Y-88015727D01*
X72037363Y-88250759D01*
X72237241Y-88450637D01*
X72472273Y-88607680D01*
X72733426Y-88715853D01*
X73010665Y-88771000D01*
X73293335Y-88771000D01*
X73570574Y-88715853D01*
X73831727Y-88607680D01*
X74066759Y-88450637D01*
X74266637Y-88250759D01*
X74423680Y-88015727D01*
X74531853Y-87754574D01*
X74587000Y-87477335D01*
X74587000Y-87194665D01*
X74531853Y-86917426D01*
X74423680Y-86656273D01*
X74266637Y-86421241D01*
X74066759Y-86221363D01*
X73864173Y-86086000D01*
X74066759Y-85950637D01*
X74266637Y-85750759D01*
X74423680Y-85515727D01*
X74531853Y-85254574D01*
X74587000Y-84977335D01*
X74587000Y-84694665D01*
X74531853Y-84417426D01*
X74423680Y-84156273D01*
X74343317Y-84036000D01*
X75777928Y-84036000D01*
X75777928Y-85636000D01*
X75790188Y-85760482D01*
X75826498Y-85880180D01*
X75885463Y-85990494D01*
X75964815Y-86087185D01*
X76061506Y-86166537D01*
X76171820Y-86225502D01*
X76291518Y-86261812D01*
X76299961Y-86262643D01*
X76101363Y-86461241D01*
X75944320Y-86696273D01*
X75836147Y-86957426D01*
X75781000Y-87234665D01*
X75781000Y-87517335D01*
X75836147Y-87794574D01*
X75944320Y-88055727D01*
X76101363Y-88290759D01*
X76301241Y-88490637D01*
X76536273Y-88647680D01*
X76546865Y-88652067D01*
X76360869Y-88763615D01*
X76152481Y-88952586D01*
X75984963Y-89178580D01*
X75864754Y-89432913D01*
X75824096Y-89566961D01*
X75946085Y-89789000D01*
X77089000Y-89789000D01*
X77089000Y-89769000D01*
X77343000Y-89769000D01*
X77343000Y-89789000D01*
X78485915Y-89789000D01*
X78607904Y-89566961D01*
X78567246Y-89432913D01*
X78447037Y-89178580D01*
X78279519Y-88952586D01*
X78071131Y-88763615D01*
X77885135Y-88652067D01*
X77895727Y-88647680D01*
X78130759Y-88490637D01*
X78330637Y-88290759D01*
X78487680Y-88055727D01*
X78595853Y-87794574D01*
X78651000Y-87517335D01*
X78651000Y-87234665D01*
X78595853Y-86957426D01*
X78487680Y-86696273D01*
X78330637Y-86461241D01*
X78132039Y-86262643D01*
X78140482Y-86261812D01*
X78260180Y-86225502D01*
X78370494Y-86166537D01*
X78467185Y-86087185D01*
X78546537Y-85990494D01*
X78605502Y-85880180D01*
X78641812Y-85760482D01*
X78654072Y-85636000D01*
X78654072Y-84694665D01*
X85941000Y-84694665D01*
X85941000Y-84977335D01*
X85996147Y-85254574D01*
X86104320Y-85515727D01*
X86261363Y-85750759D01*
X86461241Y-85950637D01*
X86693759Y-86106000D01*
X86461241Y-86261363D01*
X86261363Y-86461241D01*
X86104320Y-86696273D01*
X85996147Y-86957426D01*
X85941000Y-87234665D01*
X85941000Y-87517335D01*
X85996147Y-87794574D01*
X86104320Y-88055727D01*
X86261363Y-88290759D01*
X86461241Y-88490637D01*
X86693759Y-88646000D01*
X86461241Y-88801363D01*
X86261363Y-89001241D01*
X86104320Y-89236273D01*
X85996147Y-89497426D01*
X85941000Y-89774665D01*
X85941000Y-90057335D01*
X85996147Y-90334574D01*
X86104320Y-90595727D01*
X86261363Y-90830759D01*
X86461241Y-91030637D01*
X86696273Y-91187680D01*
X86706865Y-91192067D01*
X86520869Y-91303615D01*
X86312481Y-91492586D01*
X86144963Y-91718580D01*
X86024754Y-91972913D01*
X85984096Y-92106961D01*
X86106085Y-92329000D01*
X87249000Y-92329000D01*
X87249000Y-92309000D01*
X87503000Y-92309000D01*
X87503000Y-92329000D01*
X88645915Y-92329000D01*
X88648379Y-92324514D01*
X89089000Y-92324514D01*
X89089000Y-92587486D01*
X89140304Y-92845405D01*
X89240939Y-93088359D01*
X89387038Y-93307013D01*
X89572987Y-93492962D01*
X89791641Y-93639061D01*
X90034595Y-93739696D01*
X90292514Y-93791000D01*
X90555486Y-93791000D01*
X90813405Y-93739696D01*
X91056359Y-93639061D01*
X91275013Y-93492962D01*
X91460962Y-93307013D01*
X91607061Y-93088359D01*
X91707696Y-92845405D01*
X91759000Y-92587486D01*
X91759000Y-92324514D01*
X91707696Y-92066595D01*
X91607061Y-91823641D01*
X91460962Y-91604987D01*
X91275013Y-91419038D01*
X91056359Y-91272939D01*
X90813405Y-91172304D01*
X90555486Y-91121000D01*
X90292514Y-91121000D01*
X90034595Y-91172304D01*
X89791641Y-91272939D01*
X89572987Y-91419038D01*
X89387038Y-91604987D01*
X89240939Y-91823641D01*
X89140304Y-92066595D01*
X89089000Y-92324514D01*
X88648379Y-92324514D01*
X88767904Y-92106961D01*
X88727246Y-91972913D01*
X88607037Y-91718580D01*
X88439519Y-91492586D01*
X88231131Y-91303615D01*
X88045135Y-91192067D01*
X88055727Y-91187680D01*
X88290759Y-91030637D01*
X88490637Y-90830759D01*
X88647680Y-90595727D01*
X88755853Y-90334574D01*
X88811000Y-90057335D01*
X88811000Y-89774665D01*
X93053000Y-89774665D01*
X93053000Y-90057335D01*
X93108147Y-90334574D01*
X93216320Y-90595727D01*
X93373363Y-90830759D01*
X93573241Y-91030637D01*
X93775827Y-91166000D01*
X93573241Y-91301363D01*
X93373363Y-91501241D01*
X93216320Y-91736273D01*
X93108147Y-91997426D01*
X93053000Y-92274665D01*
X93053000Y-92557335D01*
X93108147Y-92834574D01*
X93216320Y-93095727D01*
X93373363Y-93330759D01*
X93573241Y-93530637D01*
X93808273Y-93687680D01*
X94069426Y-93795853D01*
X94346665Y-93851000D01*
X94629335Y-93851000D01*
X94906574Y-93795853D01*
X95167727Y-93687680D01*
X95402759Y-93530637D01*
X95602637Y-93330759D01*
X95759680Y-93095727D01*
X95867853Y-92834574D01*
X95923000Y-92557335D01*
X95923000Y-92274665D01*
X95867853Y-91997426D01*
X95759680Y-91736273D01*
X95602637Y-91501241D01*
X95402759Y-91301363D01*
X95200173Y-91166000D01*
X95402759Y-91030637D01*
X95602637Y-90830759D01*
X95759680Y-90595727D01*
X95867853Y-90334574D01*
X95923000Y-90057335D01*
X95923000Y-89774665D01*
X95867853Y-89497426D01*
X95759680Y-89236273D01*
X95602637Y-89001241D01*
X95402759Y-88801363D01*
X95167727Y-88644320D01*
X95127016Y-88627457D01*
X95229514Y-88572671D01*
X95301097Y-88328702D01*
X94488000Y-87515605D01*
X93674903Y-88328702D01*
X93746486Y-88572671D01*
X93856069Y-88624522D01*
X93808273Y-88644320D01*
X93573241Y-88801363D01*
X93373363Y-89001241D01*
X93216320Y-89236273D01*
X93108147Y-89497426D01*
X93053000Y-89774665D01*
X88811000Y-89774665D01*
X88755853Y-89497426D01*
X88647680Y-89236273D01*
X88490637Y-89001241D01*
X88290759Y-88801363D01*
X88058241Y-88646000D01*
X88290759Y-88490637D01*
X88490637Y-88290759D01*
X88647680Y-88055727D01*
X88755853Y-87794574D01*
X88811000Y-87517335D01*
X88811000Y-87406512D01*
X93047783Y-87406512D01*
X93089213Y-87686130D01*
X93184397Y-87952292D01*
X93251329Y-88077514D01*
X93495298Y-88149097D01*
X94308395Y-87336000D01*
X94667605Y-87336000D01*
X95480702Y-88149097D01*
X95724671Y-88077514D01*
X95845571Y-87822004D01*
X95914300Y-87547816D01*
X95928217Y-87265488D01*
X95886787Y-86985870D01*
X95791603Y-86719708D01*
X95724671Y-86594486D01*
X95480702Y-86522903D01*
X94667605Y-87336000D01*
X94308395Y-87336000D01*
X93495298Y-86522903D01*
X93251329Y-86594486D01*
X93130429Y-86849996D01*
X93061700Y-87124184D01*
X93047783Y-87406512D01*
X88811000Y-87406512D01*
X88811000Y-87234665D01*
X88755853Y-86957426D01*
X88647680Y-86696273D01*
X88490637Y-86461241D01*
X88290759Y-86261363D01*
X88058241Y-86106000D01*
X88290759Y-85950637D01*
X88490637Y-85750759D01*
X88647680Y-85515727D01*
X88755853Y-85254574D01*
X88811000Y-84977335D01*
X88811000Y-84704514D01*
X89089000Y-84704514D01*
X89089000Y-84967486D01*
X89140304Y-85225405D01*
X89240939Y-85468359D01*
X89387038Y-85687013D01*
X89572987Y-85872962D01*
X89791641Y-86019061D01*
X90034595Y-86119696D01*
X90292514Y-86171000D01*
X90555486Y-86171000D01*
X90813405Y-86119696D01*
X91056359Y-86019061D01*
X91275013Y-85872962D01*
X91460962Y-85687013D01*
X91607061Y-85468359D01*
X91707696Y-85225405D01*
X91759000Y-84967486D01*
X91759000Y-84704514D01*
X91757041Y-84694665D01*
X93053000Y-84694665D01*
X93053000Y-84977335D01*
X93108147Y-85254574D01*
X93216320Y-85515727D01*
X93373363Y-85750759D01*
X93573241Y-85950637D01*
X93773869Y-86084692D01*
X93746486Y-86099329D01*
X93674903Y-86343298D01*
X94488000Y-87156395D01*
X95301097Y-86343298D01*
X95229514Y-86099329D01*
X95200659Y-86085676D01*
X95402759Y-85950637D01*
X95602637Y-85750759D01*
X95759680Y-85515727D01*
X95867853Y-85254574D01*
X95923000Y-84977335D01*
X95923000Y-84694665D01*
X95867853Y-84417426D01*
X95759680Y-84156273D01*
X95602637Y-83921241D01*
X95402759Y-83721363D01*
X95167727Y-83564320D01*
X94906574Y-83456147D01*
X94629335Y-83401000D01*
X94346665Y-83401000D01*
X94069426Y-83456147D01*
X93808273Y-83564320D01*
X93573241Y-83721363D01*
X93373363Y-83921241D01*
X93216320Y-84156273D01*
X93108147Y-84417426D01*
X93053000Y-84694665D01*
X91757041Y-84694665D01*
X91707696Y-84446595D01*
X91607061Y-84203641D01*
X91460962Y-83984987D01*
X91275013Y-83799038D01*
X91056359Y-83652939D01*
X90813405Y-83552304D01*
X90555486Y-83501000D01*
X90292514Y-83501000D01*
X90034595Y-83552304D01*
X89791641Y-83652939D01*
X89572987Y-83799038D01*
X89387038Y-83984987D01*
X89240939Y-84203641D01*
X89140304Y-84446595D01*
X89089000Y-84704514D01*
X88811000Y-84704514D01*
X88811000Y-84694665D01*
X88755853Y-84417426D01*
X88647680Y-84156273D01*
X88490637Y-83921241D01*
X88290759Y-83721363D01*
X88055727Y-83564320D01*
X87794574Y-83456147D01*
X87517335Y-83401000D01*
X87234665Y-83401000D01*
X86957426Y-83456147D01*
X86696273Y-83564320D01*
X86461241Y-83721363D01*
X86261363Y-83921241D01*
X86104320Y-84156273D01*
X85996147Y-84417426D01*
X85941000Y-84694665D01*
X78654072Y-84694665D01*
X78654072Y-84036000D01*
X78641812Y-83911518D01*
X78605502Y-83791820D01*
X78546537Y-83681506D01*
X78467185Y-83584815D01*
X78370494Y-83505463D01*
X78260180Y-83446498D01*
X78140482Y-83410188D01*
X78016000Y-83397928D01*
X76416000Y-83397928D01*
X76291518Y-83410188D01*
X76171820Y-83446498D01*
X76061506Y-83505463D01*
X75964815Y-83584815D01*
X75885463Y-83681506D01*
X75826498Y-83791820D01*
X75790188Y-83911518D01*
X75777928Y-84036000D01*
X74343317Y-84036000D01*
X74266637Y-83921241D01*
X74066759Y-83721363D01*
X73831727Y-83564320D01*
X73570574Y-83456147D01*
X73293335Y-83401000D01*
X73010665Y-83401000D01*
X72733426Y-83456147D01*
X72472273Y-83564320D01*
X72237241Y-83721363D01*
X72037363Y-83921241D01*
X71880320Y-84156273D01*
X71772147Y-84417426D01*
X71717000Y-84694665D01*
X70685000Y-84694665D01*
X70685000Y-79415000D01*
X74896928Y-79415000D01*
X74909188Y-79539482D01*
X74945498Y-79659180D01*
X75004463Y-79769494D01*
X75083815Y-79866185D01*
X75180506Y-79945537D01*
X75290820Y-80004502D01*
X75410518Y-80040812D01*
X75535000Y-80053072D01*
X76214250Y-80050000D01*
X76373000Y-79891250D01*
X76373000Y-78627000D01*
X76627000Y-78627000D01*
X76627000Y-79891250D01*
X76785750Y-80050000D01*
X77465000Y-80053072D01*
X77589482Y-80040812D01*
X77709180Y-80004502D01*
X77819494Y-79945537D01*
X77916185Y-79866185D01*
X77995537Y-79769494D01*
X78054502Y-79659180D01*
X78090812Y-79539482D01*
X78103072Y-79415000D01*
X78100000Y-78785750D01*
X77941250Y-78627000D01*
X76627000Y-78627000D01*
X76373000Y-78627000D01*
X75058750Y-78627000D01*
X74900000Y-78785750D01*
X74896928Y-79415000D01*
X70685000Y-79415000D01*
X70685000Y-75232565D01*
X74800000Y-75232565D01*
X74800000Y-75567435D01*
X74865330Y-75895872D01*
X74993479Y-76205252D01*
X75179523Y-76483687D01*
X75416313Y-76720477D01*
X75694748Y-76906521D01*
X75795140Y-76948105D01*
X75535000Y-76946928D01*
X75410518Y-76959188D01*
X75290820Y-76995498D01*
X75180506Y-77054463D01*
X75083815Y-77133815D01*
X75004463Y-77230506D01*
X74945498Y-77340820D01*
X74909188Y-77460518D01*
X74896928Y-77585000D01*
X74900000Y-78214250D01*
X75058750Y-78373000D01*
X76373000Y-78373000D01*
X76373000Y-78353000D01*
X76627000Y-78353000D01*
X76627000Y-78373000D01*
X77941250Y-78373000D01*
X78100000Y-78214250D01*
X78103072Y-77585000D01*
X78090812Y-77460518D01*
X78054502Y-77340820D01*
X77995537Y-77230506D01*
X77916185Y-77133815D01*
X77819494Y-77054463D01*
X77709180Y-76995498D01*
X77589482Y-76959188D01*
X77465000Y-76946928D01*
X77204860Y-76948105D01*
X77305252Y-76906521D01*
X77583687Y-76720477D01*
X77820477Y-76483687D01*
X78006521Y-76205252D01*
X78032719Y-76142003D01*
X83205000Y-76142003D01*
X83205000Y-76857998D01*
X83233867Y-77151088D01*
X83347943Y-77527147D01*
X83533193Y-77873725D01*
X83782498Y-78177503D01*
X84086276Y-78426807D01*
X84432854Y-78612057D01*
X84808913Y-78726133D01*
X85200000Y-78764652D01*
X85591088Y-78726133D01*
X85967147Y-78612057D01*
X86313725Y-78426807D01*
X86617503Y-78177503D01*
X86866807Y-77873725D01*
X87052057Y-77527147D01*
X87166133Y-77151087D01*
X87195000Y-76857997D01*
X87195000Y-76142003D01*
X92805000Y-76142003D01*
X92805000Y-76857998D01*
X92833867Y-77151088D01*
X92947943Y-77527147D01*
X93133193Y-77873725D01*
X93382498Y-78177503D01*
X93686276Y-78426807D01*
X94032854Y-78612057D01*
X94408913Y-78726133D01*
X94800000Y-78764652D01*
X95191088Y-78726133D01*
X95567147Y-78612057D01*
X95913725Y-78426807D01*
X96217503Y-78177503D01*
X96466807Y-77873725D01*
X96652057Y-77527147D01*
X96766133Y-77151087D01*
X96795000Y-76857997D01*
X96795000Y-76142002D01*
X96766133Y-75848912D01*
X96652057Y-75472853D01*
X96466807Y-75126275D01*
X96217503Y-74822497D01*
X95913725Y-74573193D01*
X95567146Y-74387943D01*
X95191087Y-74273867D01*
X94800000Y-74235348D01*
X94408912Y-74273867D01*
X94032853Y-74387943D01*
X93686275Y-74573193D01*
X93382497Y-74822497D01*
X93133193Y-75126275D01*
X92947943Y-75472854D01*
X92833867Y-75848913D01*
X92805000Y-76142003D01*
X87195000Y-76142003D01*
X87195000Y-76142002D01*
X87166133Y-75848912D01*
X87052057Y-75472853D01*
X86866807Y-75126275D01*
X86617503Y-74822497D01*
X86313725Y-74573193D01*
X85967146Y-74387943D01*
X85591087Y-74273867D01*
X85200000Y-74235348D01*
X84808912Y-74273867D01*
X84432853Y-74387943D01*
X84086275Y-74573193D01*
X83782497Y-74822497D01*
X83533193Y-75126275D01*
X83347943Y-75472854D01*
X83233867Y-75848913D01*
X83205000Y-76142003D01*
X78032719Y-76142003D01*
X78134670Y-75895872D01*
X78200000Y-75567435D01*
X78200000Y-75232565D01*
X78134670Y-74904128D01*
X78006521Y-74594748D01*
X77820477Y-74316313D01*
X77583687Y-74079523D01*
X77305252Y-73893479D01*
X76995872Y-73765330D01*
X76667435Y-73700000D01*
X76332565Y-73700000D01*
X76004128Y-73765330D01*
X75694748Y-73893479D01*
X75416313Y-74079523D01*
X75179523Y-74316313D01*
X74993479Y-74594748D01*
X74865330Y-74904128D01*
X74800000Y-75232565D01*
X70685000Y-75232565D01*
X70685000Y-70064080D01*
X86615525Y-70064080D01*
X86699208Y-70318261D01*
X86971775Y-70449158D01*
X87264642Y-70524365D01*
X87566553Y-70540991D01*
X87865907Y-70498397D01*
X88151199Y-70398222D01*
X88300792Y-70318261D01*
X88384475Y-70064080D01*
X87500000Y-69179605D01*
X86615525Y-70064080D01*
X70685000Y-70064080D01*
X70685000Y-69066553D01*
X85959009Y-69066553D01*
X86001603Y-69365907D01*
X86101778Y-69651199D01*
X86181739Y-69800792D01*
X86435920Y-69884475D01*
X87320395Y-69000000D01*
X87679605Y-69000000D01*
X88564080Y-69884475D01*
X88712262Y-69835690D01*
X88807688Y-69978505D01*
X89021495Y-70192312D01*
X89272905Y-70360299D01*
X89552257Y-70476011D01*
X89848816Y-70535000D01*
X90151184Y-70535000D01*
X90447743Y-70476011D01*
X90727095Y-70360299D01*
X90978505Y-70192312D01*
X91016120Y-70154697D01*
X91069463Y-70254494D01*
X91148815Y-70351185D01*
X91245506Y-70430537D01*
X91355820Y-70489502D01*
X91475518Y-70525812D01*
X91600000Y-70538072D01*
X93400000Y-70538072D01*
X93524482Y-70525812D01*
X93644180Y-70489502D01*
X93754494Y-70430537D01*
X93851185Y-70351185D01*
X93930537Y-70254494D01*
X93989502Y-70144180D01*
X94025812Y-70024482D01*
X94038072Y-69900000D01*
X94038072Y-68100000D01*
X94025812Y-67975518D01*
X93989502Y-67855820D01*
X93930537Y-67745506D01*
X93851185Y-67648815D01*
X93754494Y-67569463D01*
X93644180Y-67510498D01*
X93524482Y-67474188D01*
X93400000Y-67461928D01*
X91600000Y-67461928D01*
X91475518Y-67474188D01*
X91355820Y-67510498D01*
X91245506Y-67569463D01*
X91148815Y-67648815D01*
X91069463Y-67745506D01*
X91016120Y-67845303D01*
X90978505Y-67807688D01*
X90727095Y-67639701D01*
X90447743Y-67523989D01*
X90151184Y-67465000D01*
X89848816Y-67465000D01*
X89552257Y-67523989D01*
X89272905Y-67639701D01*
X89021495Y-67807688D01*
X88807688Y-68021495D01*
X88712262Y-68164310D01*
X88564080Y-68115525D01*
X87679605Y-69000000D01*
X87320395Y-69000000D01*
X86435920Y-68115525D01*
X86181739Y-68199208D01*
X86050842Y-68471775D01*
X85975635Y-68764642D01*
X85959009Y-69066553D01*
X70685000Y-69066553D01*
X70685000Y-66932565D01*
X74800000Y-66932565D01*
X74800000Y-67267435D01*
X74865330Y-67595872D01*
X74993479Y-67905252D01*
X75179523Y-68183687D01*
X75416313Y-68420477D01*
X75694748Y-68606521D01*
X76004128Y-68734670D01*
X76332565Y-68800000D01*
X76667435Y-68800000D01*
X76995872Y-68734670D01*
X77305252Y-68606521D01*
X77583687Y-68420477D01*
X77820477Y-68183687D01*
X77986029Y-67935920D01*
X86615525Y-67935920D01*
X87500000Y-68820395D01*
X88384475Y-67935920D01*
X88300792Y-67681739D01*
X88028225Y-67550842D01*
X87735358Y-67475635D01*
X87433447Y-67459009D01*
X87134093Y-67501603D01*
X86848801Y-67601778D01*
X86699208Y-67681739D01*
X86615525Y-67935920D01*
X77986029Y-67935920D01*
X78006521Y-67905252D01*
X78134670Y-67595872D01*
X78200000Y-67267435D01*
X78200000Y-66932565D01*
X78134670Y-66604128D01*
X78006521Y-66294748D01*
X77820477Y-66016313D01*
X77583687Y-65779523D01*
X77305252Y-65593479D01*
X76995872Y-65465330D01*
X76667435Y-65400000D01*
X76332565Y-65400000D01*
X76004128Y-65465330D01*
X75694748Y-65593479D01*
X75416313Y-65779523D01*
X75179523Y-66016313D01*
X74993479Y-66294748D01*
X74865330Y-66604128D01*
X74800000Y-66932565D01*
X70685000Y-66932565D01*
X70685000Y-63876514D01*
X85025000Y-63876514D01*
X85025000Y-64139486D01*
X85076304Y-64397405D01*
X85176939Y-64640359D01*
X85323038Y-64859013D01*
X85508987Y-65044962D01*
X85727641Y-65191061D01*
X85970595Y-65291696D01*
X86228514Y-65343000D01*
X86491486Y-65343000D01*
X86749405Y-65291696D01*
X86992359Y-65191061D01*
X87211013Y-65044962D01*
X87396962Y-64859013D01*
X87543061Y-64640359D01*
X87643696Y-64397405D01*
X87695000Y-64139486D01*
X87695000Y-63876514D01*
X92645000Y-63876514D01*
X92645000Y-64139486D01*
X92696304Y-64397405D01*
X92796939Y-64640359D01*
X92943038Y-64859013D01*
X93128987Y-65044962D01*
X93347641Y-65191061D01*
X93590595Y-65291696D01*
X93848514Y-65343000D01*
X94111486Y-65343000D01*
X94369405Y-65291696D01*
X94612359Y-65191061D01*
X94831013Y-65044962D01*
X95016962Y-64859013D01*
X95163061Y-64640359D01*
X95263696Y-64397405D01*
X95315000Y-64139486D01*
X95315000Y-63876514D01*
X95263696Y-63618595D01*
X95163061Y-63375641D01*
X95016962Y-63156987D01*
X94831013Y-62971038D01*
X94612359Y-62824939D01*
X94369405Y-62724304D01*
X94111486Y-62673000D01*
X93848514Y-62673000D01*
X93590595Y-62724304D01*
X93347641Y-62824939D01*
X93128987Y-62971038D01*
X92943038Y-63156987D01*
X92796939Y-63375641D01*
X92696304Y-63618595D01*
X92645000Y-63876514D01*
X87695000Y-63876514D01*
X87643696Y-63618595D01*
X87543061Y-63375641D01*
X87396962Y-63156987D01*
X87211013Y-62971038D01*
X86992359Y-62824939D01*
X86749405Y-62724304D01*
X86491486Y-62673000D01*
X86228514Y-62673000D01*
X85970595Y-62724304D01*
X85727641Y-62824939D01*
X85508987Y-62971038D01*
X85323038Y-63156987D01*
X85176939Y-63375641D01*
X85076304Y-63618595D01*
X85025000Y-63876514D01*
X70685000Y-63876514D01*
X70685000Y-57415000D01*
X74896928Y-57415000D01*
X74909188Y-57539482D01*
X74945498Y-57659180D01*
X75004463Y-57769494D01*
X75083815Y-57866185D01*
X75180506Y-57945537D01*
X75290820Y-58004502D01*
X75410518Y-58040812D01*
X75535000Y-58053072D01*
X76214250Y-58050000D01*
X76373000Y-57891250D01*
X76373000Y-56627000D01*
X76627000Y-56627000D01*
X76627000Y-57891250D01*
X76785750Y-58050000D01*
X77465000Y-58053072D01*
X77589482Y-58040812D01*
X77709180Y-58004502D01*
X77819494Y-57945537D01*
X77916185Y-57866185D01*
X77995537Y-57769494D01*
X78054502Y-57659180D01*
X78090812Y-57539482D01*
X78103072Y-57415000D01*
X78100000Y-56785750D01*
X77941250Y-56627000D01*
X76627000Y-56627000D01*
X76373000Y-56627000D01*
X75058750Y-56627000D01*
X74900000Y-56785750D01*
X74896928Y-57415000D01*
X70685000Y-57415000D01*
X70685000Y-53232565D01*
X74800000Y-53232565D01*
X74800000Y-53567435D01*
X74865330Y-53895872D01*
X74993479Y-54205252D01*
X75179523Y-54483687D01*
X75416313Y-54720477D01*
X75694748Y-54906521D01*
X75795140Y-54948105D01*
X75535000Y-54946928D01*
X75410518Y-54959188D01*
X75290820Y-54995498D01*
X75180506Y-55054463D01*
X75083815Y-55133815D01*
X75004463Y-55230506D01*
X74945498Y-55340820D01*
X74909188Y-55460518D01*
X74896928Y-55585000D01*
X74900000Y-56214250D01*
X75058750Y-56373000D01*
X76373000Y-56373000D01*
X76373000Y-56353000D01*
X76627000Y-56353000D01*
X76627000Y-56373000D01*
X77941250Y-56373000D01*
X78100000Y-56214250D01*
X78103072Y-55585000D01*
X78090812Y-55460518D01*
X78054502Y-55340820D01*
X77995537Y-55230506D01*
X77916185Y-55133815D01*
X77819494Y-55054463D01*
X77709180Y-54995498D01*
X77589482Y-54959188D01*
X77465000Y-54946928D01*
X77204860Y-54948105D01*
X77305252Y-54906521D01*
X77583687Y-54720477D01*
X77820477Y-54483687D01*
X78006521Y-54205252D01*
X78032719Y-54142003D01*
X83205000Y-54142003D01*
X83205000Y-54857998D01*
X83233867Y-55151088D01*
X83347943Y-55527147D01*
X83533193Y-55873725D01*
X83782498Y-56177503D01*
X84086276Y-56426807D01*
X84432854Y-56612057D01*
X84808913Y-56726133D01*
X85200000Y-56764652D01*
X85591088Y-56726133D01*
X85967147Y-56612057D01*
X86313725Y-56426807D01*
X86617503Y-56177503D01*
X86866807Y-55873725D01*
X87052057Y-55527147D01*
X87166133Y-55151087D01*
X87195000Y-54857997D01*
X87195000Y-54142003D01*
X92805000Y-54142003D01*
X92805000Y-54857998D01*
X92833867Y-55151088D01*
X92947943Y-55527147D01*
X93133193Y-55873725D01*
X93382498Y-56177503D01*
X93686276Y-56426807D01*
X94032854Y-56612057D01*
X94408913Y-56726133D01*
X94800000Y-56764652D01*
X95191088Y-56726133D01*
X95567147Y-56612057D01*
X95913725Y-56426807D01*
X96217503Y-56177503D01*
X96466807Y-55873725D01*
X96652057Y-55527147D01*
X96766133Y-55151087D01*
X96795000Y-54857997D01*
X96795000Y-54142002D01*
X96766133Y-53848912D01*
X96652057Y-53472853D01*
X96466807Y-53126275D01*
X96217503Y-52822497D01*
X95913725Y-52573193D01*
X95567146Y-52387943D01*
X95191087Y-52273867D01*
X94800000Y-52235348D01*
X94408912Y-52273867D01*
X94032853Y-52387943D01*
X93686275Y-52573193D01*
X93382497Y-52822497D01*
X93133193Y-53126275D01*
X92947943Y-53472854D01*
X92833867Y-53848913D01*
X92805000Y-54142003D01*
X87195000Y-54142003D01*
X87195000Y-54142002D01*
X87166133Y-53848912D01*
X87052057Y-53472853D01*
X86866807Y-53126275D01*
X86617503Y-52822497D01*
X86313725Y-52573193D01*
X85967146Y-52387943D01*
X85591087Y-52273867D01*
X85200000Y-52235348D01*
X84808912Y-52273867D01*
X84432853Y-52387943D01*
X84086275Y-52573193D01*
X83782497Y-52822497D01*
X83533193Y-53126275D01*
X83347943Y-53472854D01*
X83233867Y-53848913D01*
X83205000Y-54142003D01*
X78032719Y-54142003D01*
X78134670Y-53895872D01*
X78200000Y-53567435D01*
X78200000Y-53232565D01*
X78134670Y-52904128D01*
X78006521Y-52594748D01*
X77820477Y-52316313D01*
X77583687Y-52079523D01*
X77305252Y-51893479D01*
X76995872Y-51765330D01*
X76667435Y-51700000D01*
X76332565Y-51700000D01*
X76004128Y-51765330D01*
X75694748Y-51893479D01*
X75416313Y-52079523D01*
X75179523Y-52316313D01*
X74993479Y-52594748D01*
X74865330Y-52904128D01*
X74800000Y-53232565D01*
X70685000Y-53232565D01*
X70685000Y-48064080D01*
X86615525Y-48064080D01*
X86699208Y-48318261D01*
X86971775Y-48449158D01*
X87264642Y-48524365D01*
X87566553Y-48540991D01*
X87865907Y-48498397D01*
X88151199Y-48398222D01*
X88300792Y-48318261D01*
X88384475Y-48064080D01*
X87500000Y-47179605D01*
X86615525Y-48064080D01*
X70685000Y-48064080D01*
X70685000Y-47066553D01*
X85959009Y-47066553D01*
X86001603Y-47365907D01*
X86101778Y-47651199D01*
X86181739Y-47800792D01*
X86435920Y-47884475D01*
X87320395Y-47000000D01*
X87679605Y-47000000D01*
X88564080Y-47884475D01*
X88712262Y-47835690D01*
X88807688Y-47978505D01*
X89021495Y-48192312D01*
X89272905Y-48360299D01*
X89552257Y-48476011D01*
X89848816Y-48535000D01*
X90151184Y-48535000D01*
X90447743Y-48476011D01*
X90727095Y-48360299D01*
X90978505Y-48192312D01*
X91016120Y-48154697D01*
X91069463Y-48254494D01*
X91148815Y-48351185D01*
X91245506Y-48430537D01*
X91355820Y-48489502D01*
X91475518Y-48525812D01*
X91600000Y-48538072D01*
X93400000Y-48538072D01*
X93524482Y-48525812D01*
X93644180Y-48489502D01*
X93754494Y-48430537D01*
X93851185Y-48351185D01*
X93930537Y-48254494D01*
X93989502Y-48144180D01*
X94025812Y-48024482D01*
X94038072Y-47900000D01*
X94038072Y-46100000D01*
X94025812Y-45975518D01*
X93989502Y-45855820D01*
X93930537Y-45745506D01*
X93851185Y-45648815D01*
X93754494Y-45569463D01*
X93644180Y-45510498D01*
X93524482Y-45474188D01*
X93400000Y-45461928D01*
X91600000Y-45461928D01*
X91475518Y-45474188D01*
X91355820Y-45510498D01*
X91245506Y-45569463D01*
X91148815Y-45648815D01*
X91069463Y-45745506D01*
X91016120Y-45845303D01*
X90978505Y-45807688D01*
X90727095Y-45639701D01*
X90447743Y-45523989D01*
X90151184Y-45465000D01*
X89848816Y-45465000D01*
X89552257Y-45523989D01*
X89272905Y-45639701D01*
X89021495Y-45807688D01*
X88807688Y-46021495D01*
X88712262Y-46164310D01*
X88564080Y-46115525D01*
X87679605Y-47000000D01*
X87320395Y-47000000D01*
X86435920Y-46115525D01*
X86181739Y-46199208D01*
X86050842Y-46471775D01*
X85975635Y-46764642D01*
X85959009Y-47066553D01*
X70685000Y-47066553D01*
X70685000Y-44932565D01*
X74800000Y-44932565D01*
X74800000Y-45267435D01*
X74865330Y-45595872D01*
X74993479Y-45905252D01*
X75179523Y-46183687D01*
X75416313Y-46420477D01*
X75694748Y-46606521D01*
X76004128Y-46734670D01*
X76332565Y-46800000D01*
X76667435Y-46800000D01*
X76995872Y-46734670D01*
X77305252Y-46606521D01*
X77583687Y-46420477D01*
X77820477Y-46183687D01*
X77986029Y-45935920D01*
X86615525Y-45935920D01*
X87500000Y-46820395D01*
X88384475Y-45935920D01*
X88300792Y-45681739D01*
X88028225Y-45550842D01*
X87735358Y-45475635D01*
X87433447Y-45459009D01*
X87134093Y-45501603D01*
X86848801Y-45601778D01*
X86699208Y-45681739D01*
X86615525Y-45935920D01*
X77986029Y-45935920D01*
X78006521Y-45905252D01*
X78134670Y-45595872D01*
X78200000Y-45267435D01*
X78200000Y-44932565D01*
X78134670Y-44604128D01*
X78006521Y-44294748D01*
X77820477Y-44016313D01*
X77583687Y-43779523D01*
X77305252Y-43593479D01*
X76995872Y-43465330D01*
X76667435Y-43400000D01*
X76332565Y-43400000D01*
X76004128Y-43465330D01*
X75694748Y-43593479D01*
X75416313Y-43779523D01*
X75179523Y-44016313D01*
X74993479Y-44294748D01*
X74865330Y-44604128D01*
X74800000Y-44932565D01*
X70685000Y-44932565D01*
X70685000Y-41524514D01*
X85025000Y-41524514D01*
X85025000Y-41787486D01*
X85076304Y-42045405D01*
X85176939Y-42288359D01*
X85323038Y-42507013D01*
X85508987Y-42692962D01*
X85727641Y-42839061D01*
X85970595Y-42939696D01*
X86228514Y-42991000D01*
X86491486Y-42991000D01*
X86749405Y-42939696D01*
X86992359Y-42839061D01*
X87211013Y-42692962D01*
X87396962Y-42507013D01*
X87543061Y-42288359D01*
X87643696Y-42045405D01*
X87695000Y-41787486D01*
X87695000Y-41524514D01*
X92645000Y-41524514D01*
X92645000Y-41787486D01*
X92696304Y-42045405D01*
X92796939Y-42288359D01*
X92943038Y-42507013D01*
X93128987Y-42692962D01*
X93347641Y-42839061D01*
X93590595Y-42939696D01*
X93848514Y-42991000D01*
X94111486Y-42991000D01*
X94369405Y-42939696D01*
X94612359Y-42839061D01*
X94831013Y-42692962D01*
X95016962Y-42507013D01*
X95163061Y-42288359D01*
X95263696Y-42045405D01*
X95315000Y-41787486D01*
X95315000Y-41524514D01*
X95263696Y-41266595D01*
X95163061Y-41023641D01*
X95016962Y-40804987D01*
X94831013Y-40619038D01*
X94612359Y-40472939D01*
X94369405Y-40372304D01*
X94111486Y-40321000D01*
X93848514Y-40321000D01*
X93590595Y-40372304D01*
X93347641Y-40472939D01*
X93128987Y-40619038D01*
X92943038Y-40804987D01*
X92796939Y-41023641D01*
X92696304Y-41266595D01*
X92645000Y-41524514D01*
X87695000Y-41524514D01*
X87643696Y-41266595D01*
X87543061Y-41023641D01*
X87396962Y-40804987D01*
X87211013Y-40619038D01*
X86992359Y-40472939D01*
X86749405Y-40372304D01*
X86491486Y-40321000D01*
X86228514Y-40321000D01*
X85970595Y-40372304D01*
X85727641Y-40472939D01*
X85508987Y-40619038D01*
X85323038Y-40804987D01*
X85176939Y-41023641D01*
X85076304Y-41266595D01*
X85025000Y-41524514D01*
X70685000Y-41524514D01*
X70685000Y-35415000D01*
X74896928Y-35415000D01*
X74909188Y-35539482D01*
X74945498Y-35659180D01*
X75004463Y-35769494D01*
X75083815Y-35866185D01*
X75180506Y-35945537D01*
X75290820Y-36004502D01*
X75410518Y-36040812D01*
X75535000Y-36053072D01*
X76214250Y-36050000D01*
X76373000Y-35891250D01*
X76373000Y-34627000D01*
X76627000Y-34627000D01*
X76627000Y-35891250D01*
X76785750Y-36050000D01*
X77465000Y-36053072D01*
X77589482Y-36040812D01*
X77709180Y-36004502D01*
X77819494Y-35945537D01*
X77916185Y-35866185D01*
X77995537Y-35769494D01*
X78054502Y-35659180D01*
X78090812Y-35539482D01*
X78103072Y-35415000D01*
X78100000Y-34785750D01*
X77941250Y-34627000D01*
X76627000Y-34627000D01*
X76373000Y-34627000D01*
X75058750Y-34627000D01*
X74900000Y-34785750D01*
X74896928Y-35415000D01*
X70685000Y-35415000D01*
X70685000Y-31232565D01*
X74800000Y-31232565D01*
X74800000Y-31567435D01*
X74865330Y-31895872D01*
X74993479Y-32205252D01*
X75179523Y-32483687D01*
X75416313Y-32720477D01*
X75694748Y-32906521D01*
X75795140Y-32948105D01*
X75535000Y-32946928D01*
X75410518Y-32959188D01*
X75290820Y-32995498D01*
X75180506Y-33054463D01*
X75083815Y-33133815D01*
X75004463Y-33230506D01*
X74945498Y-33340820D01*
X74909188Y-33460518D01*
X74896928Y-33585000D01*
X74900000Y-34214250D01*
X75058750Y-34373000D01*
X76373000Y-34373000D01*
X76373000Y-34353000D01*
X76627000Y-34353000D01*
X76627000Y-34373000D01*
X77941250Y-34373000D01*
X78100000Y-34214250D01*
X78103072Y-33585000D01*
X78090812Y-33460518D01*
X78054502Y-33340820D01*
X77995537Y-33230506D01*
X77916185Y-33133815D01*
X77819494Y-33054463D01*
X77709180Y-32995498D01*
X77589482Y-32959188D01*
X77465000Y-32946928D01*
X77204860Y-32948105D01*
X77305252Y-32906521D01*
X77583687Y-32720477D01*
X77820477Y-32483687D01*
X78006521Y-32205252D01*
X78032719Y-32142003D01*
X83205000Y-32142003D01*
X83205000Y-32857998D01*
X83233867Y-33151088D01*
X83347943Y-33527147D01*
X83533193Y-33873725D01*
X83782498Y-34177503D01*
X84086276Y-34426807D01*
X84432854Y-34612057D01*
X84808913Y-34726133D01*
X85200000Y-34764652D01*
X85591088Y-34726133D01*
X85967147Y-34612057D01*
X86313725Y-34426807D01*
X86617503Y-34177503D01*
X86866807Y-33873725D01*
X87052057Y-33527147D01*
X87166133Y-33151087D01*
X87195000Y-32857997D01*
X87195000Y-32142003D01*
X92805000Y-32142003D01*
X92805000Y-32857998D01*
X92833867Y-33151088D01*
X92947943Y-33527147D01*
X93133193Y-33873725D01*
X93382498Y-34177503D01*
X93686276Y-34426807D01*
X94032854Y-34612057D01*
X94408913Y-34726133D01*
X94800000Y-34764652D01*
X95191088Y-34726133D01*
X95567147Y-34612057D01*
X95913725Y-34426807D01*
X96217503Y-34177503D01*
X96466807Y-33873725D01*
X96652057Y-33527147D01*
X96766133Y-33151087D01*
X96795000Y-32857997D01*
X96795000Y-32142002D01*
X96766133Y-31848912D01*
X96652057Y-31472853D01*
X96466807Y-31126275D01*
X96217503Y-30822497D01*
X95913725Y-30573193D01*
X95567146Y-30387943D01*
X95191087Y-30273867D01*
X94800000Y-30235348D01*
X94408912Y-30273867D01*
X94032853Y-30387943D01*
X93686275Y-30573193D01*
X93382497Y-30822497D01*
X93133193Y-31126275D01*
X92947943Y-31472854D01*
X92833867Y-31848913D01*
X92805000Y-32142003D01*
X87195000Y-32142003D01*
X87195000Y-32142002D01*
X87166133Y-31848912D01*
X87052057Y-31472853D01*
X86866807Y-31126275D01*
X86617503Y-30822497D01*
X86313725Y-30573193D01*
X85967146Y-30387943D01*
X85591087Y-30273867D01*
X85200000Y-30235348D01*
X84808912Y-30273867D01*
X84432853Y-30387943D01*
X84086275Y-30573193D01*
X83782497Y-30822497D01*
X83533193Y-31126275D01*
X83347943Y-31472854D01*
X83233867Y-31848913D01*
X83205000Y-32142003D01*
X78032719Y-32142003D01*
X78134670Y-31895872D01*
X78200000Y-31567435D01*
X78200000Y-31232565D01*
X78134670Y-30904128D01*
X78006521Y-30594748D01*
X77820477Y-30316313D01*
X77583687Y-30079523D01*
X77305252Y-29893479D01*
X76995872Y-29765330D01*
X76667435Y-29700000D01*
X76332565Y-29700000D01*
X76004128Y-29765330D01*
X75694748Y-29893479D01*
X75416313Y-30079523D01*
X75179523Y-30316313D01*
X74993479Y-30594748D01*
X74865330Y-30904128D01*
X74800000Y-31232565D01*
X70685000Y-31232565D01*
X70685000Y-26064080D01*
X86615525Y-26064080D01*
X86699208Y-26318261D01*
X86971775Y-26449158D01*
X87264642Y-26524365D01*
X87566553Y-26540991D01*
X87865907Y-26498397D01*
X88151199Y-26398222D01*
X88300792Y-26318261D01*
X88384475Y-26064080D01*
X87500000Y-25179605D01*
X86615525Y-26064080D01*
X70685000Y-26064080D01*
X70685000Y-25066553D01*
X85959009Y-25066553D01*
X86001603Y-25365907D01*
X86101778Y-25651199D01*
X86181739Y-25800792D01*
X86435920Y-25884475D01*
X87320395Y-25000000D01*
X87679605Y-25000000D01*
X88564080Y-25884475D01*
X88712262Y-25835690D01*
X88807688Y-25978505D01*
X89021495Y-26192312D01*
X89272905Y-26360299D01*
X89552257Y-26476011D01*
X89848816Y-26535000D01*
X90151184Y-26535000D01*
X90447743Y-26476011D01*
X90727095Y-26360299D01*
X90978505Y-26192312D01*
X91016120Y-26154697D01*
X91069463Y-26254494D01*
X91148815Y-26351185D01*
X91245506Y-26430537D01*
X91355820Y-26489502D01*
X91475518Y-26525812D01*
X91600000Y-26538072D01*
X93400000Y-26538072D01*
X93524482Y-26525812D01*
X93644180Y-26489502D01*
X93754494Y-26430537D01*
X93851185Y-26351185D01*
X93930537Y-26254494D01*
X93989502Y-26144180D01*
X94025812Y-26024482D01*
X94038072Y-25900000D01*
X94038072Y-24100000D01*
X94025812Y-23975518D01*
X93989502Y-23855820D01*
X93930537Y-23745506D01*
X93851185Y-23648815D01*
X93754494Y-23569463D01*
X93644180Y-23510498D01*
X93524482Y-23474188D01*
X93400000Y-23461928D01*
X91600000Y-23461928D01*
X91475518Y-23474188D01*
X91355820Y-23510498D01*
X91245506Y-23569463D01*
X91148815Y-23648815D01*
X91069463Y-23745506D01*
X91016120Y-23845303D01*
X90978505Y-23807688D01*
X90727095Y-23639701D01*
X90447743Y-23523989D01*
X90151184Y-23465000D01*
X89848816Y-23465000D01*
X89552257Y-23523989D01*
X89272905Y-23639701D01*
X89021495Y-23807688D01*
X88807688Y-24021495D01*
X88712262Y-24164310D01*
X88564080Y-24115525D01*
X87679605Y-25000000D01*
X87320395Y-25000000D01*
X86435920Y-24115525D01*
X86181739Y-24199208D01*
X86050842Y-24471775D01*
X85975635Y-24764642D01*
X85959009Y-25066553D01*
X70685000Y-25066553D01*
X70685000Y-22932565D01*
X74800000Y-22932565D01*
X74800000Y-23267435D01*
X74865330Y-23595872D01*
X74993479Y-23905252D01*
X75179523Y-24183687D01*
X75416313Y-24420477D01*
X75694748Y-24606521D01*
X76004128Y-24734670D01*
X76332565Y-24800000D01*
X76667435Y-24800000D01*
X76995872Y-24734670D01*
X77305252Y-24606521D01*
X77583687Y-24420477D01*
X77820477Y-24183687D01*
X77986029Y-23935920D01*
X86615525Y-23935920D01*
X87500000Y-24820395D01*
X88384475Y-23935920D01*
X88300792Y-23681739D01*
X88028225Y-23550842D01*
X87735358Y-23475635D01*
X87433447Y-23459009D01*
X87134093Y-23501603D01*
X86848801Y-23601778D01*
X86699208Y-23681739D01*
X86615525Y-23935920D01*
X77986029Y-23935920D01*
X78006521Y-23905252D01*
X78134670Y-23595872D01*
X78200000Y-23267435D01*
X78200000Y-22932565D01*
X78134670Y-22604128D01*
X78006521Y-22294748D01*
X77820477Y-22016313D01*
X77583687Y-21779523D01*
X77305252Y-21593479D01*
X76995872Y-21465330D01*
X76667435Y-21400000D01*
X76332565Y-21400000D01*
X76004128Y-21465330D01*
X75694748Y-21593479D01*
X75416313Y-21779523D01*
X75179523Y-22016313D01*
X74993479Y-22294748D01*
X74865330Y-22604128D01*
X74800000Y-22932565D01*
X70685000Y-22932565D01*
X70685000Y-20685000D01*
X85691631Y-20685000D01*
X85508987Y-20807038D01*
G37*
X85508987Y-20807038D02*
X85323038Y-20992987D01*
X85176939Y-21211641D01*
X85076304Y-21454595D01*
X85025000Y-21712514D01*
X85025000Y-21975486D01*
X85076304Y-22233405D01*
X85176939Y-22476359D01*
X85323038Y-22695013D01*
X85508987Y-22880962D01*
X85727641Y-23027061D01*
X85970595Y-23127696D01*
X86228514Y-23179000D01*
X86491486Y-23179000D01*
X86749405Y-23127696D01*
X86992359Y-23027061D01*
X87211013Y-22880962D01*
X87396962Y-22695013D01*
X87543061Y-22476359D01*
X87643696Y-22233405D01*
X87695000Y-21975486D01*
X87695000Y-21712514D01*
X87643696Y-21454595D01*
X87543061Y-21211641D01*
X87396962Y-20992987D01*
X87211013Y-20807038D01*
X87028369Y-20685000D01*
X93311631Y-20685000D01*
X93128987Y-20807038D01*
X92943038Y-20992987D01*
X92796939Y-21211641D01*
X92696304Y-21454595D01*
X92645000Y-21712514D01*
X92645000Y-21975486D01*
X92696304Y-22233405D01*
X92796939Y-22476359D01*
X92943038Y-22695013D01*
X93128987Y-22880962D01*
X93347641Y-23027061D01*
X93590595Y-23127696D01*
X93848514Y-23179000D01*
X94111486Y-23179000D01*
X94369405Y-23127696D01*
X94612359Y-23027061D01*
X94831013Y-22880962D01*
X95016962Y-22695013D01*
X95163061Y-22476359D01*
X95263696Y-22233405D01*
X95315000Y-21975486D01*
X95315000Y-21712514D01*
X95263696Y-21454595D01*
X95163061Y-21211641D01*
X95016962Y-20992987D01*
X94831013Y-20807038D01*
X94648369Y-20685000D01*
X97315001Y-20685000D01*
X97315000Y-127315000D01*
X77442223Y-127315000D01*
X77583687Y-127220477D01*
X77820477Y-126983687D01*
X78006521Y-126705252D01*
X78134670Y-126395872D01*
X78200000Y-126067435D01*
X78200000Y-125732565D01*
X78156474Y-125513740D01*
X91515000Y-125513740D01*
X91515000Y-125806260D01*
X91572068Y-126093158D01*
X91684010Y-126363411D01*
X91846525Y-126606632D01*
X92053368Y-126813475D01*
X92296589Y-126975990D01*
X92566842Y-127087932D01*
X92853740Y-127145000D01*
X93146260Y-127145000D01*
X93433158Y-127087932D01*
X93703411Y-126975990D01*
X93946632Y-126813475D01*
X94153475Y-126606632D01*
X94270000Y-126432240D01*
X94386525Y-126606632D01*
X94593368Y-126813475D01*
X94836589Y-126975990D01*
X95106842Y-127087932D01*
X95393740Y-127145000D01*
X95686260Y-127145000D01*
X95973158Y-127087932D01*
X96243411Y-126975990D01*
X96486632Y-126813475D01*
X96693475Y-126606632D01*
X96855990Y-126363411D01*
X96967932Y-126093158D01*
X97025000Y-125806260D01*
X97025000Y-125513740D01*
X96967932Y-125226842D01*
X96855990Y-124956589D01*
X96693475Y-124713368D01*
X96486632Y-124506525D01*
X96304466Y-124384805D01*
X96421355Y-124315178D01*
X96637588Y-124120269D01*
X96811641Y-123886920D01*
X96936825Y-123624099D01*
X96981476Y-123476890D01*
X96860155Y-123247000D01*
X95667000Y-123247000D01*
X95667000Y-123267000D01*
X95413000Y-123267000D01*
X95413000Y-123247000D01*
X93127000Y-123247000D01*
X93127000Y-123267000D01*
X92873000Y-123267000D01*
X92873000Y-123247000D01*
X91679845Y-123247000D01*
X91558524Y-123476890D01*
X91603175Y-123624099D01*
X91728359Y-123886920D01*
X91902412Y-124120269D01*
X92118645Y-124315178D01*
X92235534Y-124384805D01*
X92053368Y-124506525D01*
X91846525Y-124713368D01*
X91684010Y-124956589D01*
X91572068Y-125226842D01*
X91515000Y-125513740D01*
X78156474Y-125513740D01*
X78134670Y-125404128D01*
X78006521Y-125094748D01*
X77820477Y-124816313D01*
X77583687Y-124579523D01*
X77305252Y-124393479D01*
X76995872Y-124265330D01*
X76667435Y-124200000D01*
X76332565Y-124200000D01*
X76004128Y-124265330D01*
X75694748Y-124393479D01*
X75416313Y-124579523D01*
X75179523Y-124816313D01*
X74993479Y-125094748D01*
X74865330Y-125404128D01*
X74800000Y-125732565D01*
X74800000Y-126067435D01*
X74865330Y-126395872D01*
X74993479Y-126705252D01*
X75179523Y-126983687D01*
X75416313Y-127220477D01*
X75557777Y-127315000D01*
X70685000Y-127315000D01*
X70685000Y-120936890D01*
X91558524Y-120936890D01*
X91603175Y-121084099D01*
X91728359Y-121346920D01*
X91902412Y-121580269D01*
X92118645Y-121775178D01*
X92244255Y-121850000D01*
X92118645Y-121924822D01*
X91902412Y-122119731D01*
X91728359Y-122353080D01*
X91603175Y-122615901D01*
X91558524Y-122763110D01*
X91679845Y-122993000D01*
X92873000Y-122993000D01*
X92873000Y-120707000D01*
X93127000Y-120707000D01*
X93127000Y-122993000D01*
X95413000Y-122993000D01*
X95413000Y-120707000D01*
X95667000Y-120707000D01*
X95667000Y-122993000D01*
X96860155Y-122993000D01*
X96981476Y-122763110D01*
X96936825Y-122615901D01*
X96811641Y-122353080D01*
X96637588Y-122119731D01*
X96421355Y-121924822D01*
X96295745Y-121850000D01*
X96421355Y-121775178D01*
X96637588Y-121580269D01*
X96811641Y-121346920D01*
X96936825Y-121084099D01*
X96981476Y-120936890D01*
X96860155Y-120707000D01*
X95667000Y-120707000D01*
X95413000Y-120707000D01*
X93127000Y-120707000D01*
X92873000Y-120707000D01*
X91679845Y-120707000D01*
X91558524Y-120936890D01*
X70685000Y-120936890D01*
X70685000Y-117432565D01*
X74800000Y-117432565D01*
X74800000Y-117767435D01*
X74865330Y-118095872D01*
X74993479Y-118405252D01*
X75179523Y-118683687D01*
X75416313Y-118920477D01*
X75694748Y-119106521D01*
X76004128Y-119234670D01*
X76332565Y-119300000D01*
X76667435Y-119300000D01*
X76995872Y-119234670D01*
X77305252Y-119106521D01*
X77583687Y-118920477D01*
X77820477Y-118683687D01*
X78006521Y-118405252D01*
X78009984Y-118396890D01*
X91558524Y-118396890D01*
X91603175Y-118544099D01*
X91728359Y-118806920D01*
X91902412Y-119040269D01*
X92118645Y-119235178D01*
X92244255Y-119310000D01*
X92118645Y-119384822D01*
X91902412Y-119579731D01*
X91728359Y-119813080D01*
X91603175Y-120075901D01*
X91558524Y-120223110D01*
X91679845Y-120453000D01*
X92873000Y-120453000D01*
X92873000Y-118167000D01*
X93127000Y-118167000D01*
X93127000Y-120453000D01*
X95413000Y-120453000D01*
X95413000Y-118167000D01*
X95667000Y-118167000D01*
X95667000Y-120453000D01*
X96860155Y-120453000D01*
X96981476Y-120223110D01*
X96936825Y-120075901D01*
X96811641Y-119813080D01*
X96637588Y-119579731D01*
X96421355Y-119384822D01*
X96295745Y-119310000D01*
X96421355Y-119235178D01*
X96637588Y-119040269D01*
X96811641Y-118806920D01*
X96936825Y-118544099D01*
X96981476Y-118396890D01*
X96860155Y-118167000D01*
X95667000Y-118167000D01*
X95413000Y-118167000D01*
X93127000Y-118167000D01*
X92873000Y-118167000D01*
X91679845Y-118167000D01*
X91558524Y-118396890D01*
X78009984Y-118396890D01*
X78134670Y-118095872D01*
X78200000Y-117767435D01*
X78200000Y-117432565D01*
X78134670Y-117104128D01*
X78006521Y-116794748D01*
X77820477Y-116516313D01*
X77583687Y-116279523D01*
X77305252Y-116093479D01*
X77204860Y-116051895D01*
X77465000Y-116053072D01*
X77589482Y-116040812D01*
X77709180Y-116004502D01*
X77819494Y-115945537D01*
X77916185Y-115866185D01*
X77995537Y-115769494D01*
X78054502Y-115659180D01*
X78090812Y-115539482D01*
X78103072Y-115415000D01*
X78100000Y-114785750D01*
X77964250Y-114650000D01*
X91511928Y-114650000D01*
X91511928Y-116350000D01*
X91524188Y-116474482D01*
X91560498Y-116594180D01*
X91619463Y-116704494D01*
X91698815Y-116801185D01*
X91795506Y-116880537D01*
X91905820Y-116939502D01*
X91986466Y-116963966D01*
X91902412Y-117039731D01*
X91728359Y-117273080D01*
X91603175Y-117535901D01*
X91558524Y-117683110D01*
X91679845Y-117913000D01*
X92873000Y-117913000D01*
X92873000Y-117893000D01*
X93127000Y-117893000D01*
X93127000Y-117913000D01*
X95413000Y-117913000D01*
X95413000Y-117893000D01*
X95667000Y-117893000D01*
X95667000Y-117913000D01*
X96860155Y-117913000D01*
X96981476Y-117683110D01*
X96936825Y-117535901D01*
X96811641Y-117273080D01*
X96637588Y-117039731D01*
X96421355Y-116844822D01*
X96304466Y-116775195D01*
X96486632Y-116653475D01*
X96693475Y-116446632D01*
X96855990Y-116203411D01*
X96967932Y-115933158D01*
X97025000Y-115646260D01*
X97025000Y-115353740D01*
X96967932Y-115066842D01*
X96855990Y-114796589D01*
X96693475Y-114553368D01*
X96486632Y-114346525D01*
X96243411Y-114184010D01*
X95973158Y-114072068D01*
X95686260Y-114015000D01*
X95393740Y-114015000D01*
X95106842Y-114072068D01*
X94836589Y-114184010D01*
X94593368Y-114346525D01*
X94461513Y-114478380D01*
X94439502Y-114405820D01*
X94380537Y-114295506D01*
X94301185Y-114198815D01*
X94204494Y-114119463D01*
X94094180Y-114060498D01*
X93974482Y-114024188D01*
X93850000Y-114011928D01*
X92150000Y-114011928D01*
X92025518Y-114024188D01*
X91905820Y-114060498D01*
X91795506Y-114119463D01*
X91698815Y-114198815D01*
X91619463Y-114295506D01*
X91560498Y-114405820D01*
X91524188Y-114525518D01*
X91511928Y-114650000D01*
X77964250Y-114650000D01*
X77941250Y-114627000D01*
X76627000Y-114627000D01*
X76627000Y-114647000D01*
X76373000Y-114647000D01*
X76373000Y-114627000D01*
X75058750Y-114627000D01*
X74900000Y-114785750D01*
X74896928Y-115415000D01*
X74909188Y-115539482D01*
X74945498Y-115659180D01*
X75004463Y-115769494D01*
X75083815Y-115866185D01*
X75180506Y-115945537D01*
X75290820Y-116004502D01*
X75410518Y-116040812D01*
X75535000Y-116053072D01*
X75795140Y-116051895D01*
X75694748Y-116093479D01*
X75416313Y-116279523D01*
X75179523Y-116516313D01*
X74993479Y-116794748D01*
X74865330Y-117104128D01*
X74800000Y-117432565D01*
X70685000Y-117432565D01*
X70685000Y-113585000D01*
X74896928Y-113585000D01*
X74900000Y-114214250D01*
X75058750Y-114373000D01*
X76373000Y-114373000D01*
X76373000Y-113108750D01*
X76627000Y-113108750D01*
X76627000Y-114373000D01*
X77941250Y-114373000D01*
X78100000Y-114214250D01*
X78103072Y-113585000D01*
X78090812Y-113460518D01*
X78054502Y-113340820D01*
X77995537Y-113230506D01*
X77916185Y-113133815D01*
X77819494Y-113054463D01*
X77709180Y-112995498D01*
X77589482Y-112959188D01*
X77465000Y-112946928D01*
X76785750Y-112950000D01*
X76627000Y-113108750D01*
X76373000Y-113108750D01*
X76214250Y-112950000D01*
X75535000Y-112946928D01*
X75410518Y-112959188D01*
X75290820Y-112995498D01*
X75180506Y-113054463D01*
X75083815Y-113133815D01*
X75004463Y-113230506D01*
X74945498Y-113340820D01*
X74909188Y-113460518D01*
X74896928Y-113585000D01*
X70685000Y-113585000D01*
X70685000Y-108979576D01*
X70932854Y-109112057D01*
X71308913Y-109226133D01*
X71700000Y-109264652D01*
X72091088Y-109226133D01*
X72467147Y-109112057D01*
X72813725Y-108926807D01*
X73117503Y-108677503D01*
X73366807Y-108373725D01*
X73552057Y-108027147D01*
X73666133Y-107651087D01*
X73695000Y-107357997D01*
X73695000Y-106642003D01*
X79305000Y-106642003D01*
X79305000Y-107357998D01*
X79333867Y-107651088D01*
X79447943Y-108027147D01*
X79633193Y-108373725D01*
X79882498Y-108677503D01*
X80186276Y-108926807D01*
X80532854Y-109112057D01*
X80908913Y-109226133D01*
X81300000Y-109264652D01*
X81691088Y-109226133D01*
X82067147Y-109112057D01*
X82111192Y-109088514D01*
X84009000Y-109088514D01*
X84009000Y-109351486D01*
X84060304Y-109609405D01*
X84160939Y-109852359D01*
X84307038Y-110071013D01*
X84492987Y-110256962D01*
X84711641Y-110403061D01*
X84954595Y-110503696D01*
X85212514Y-110555000D01*
X85475486Y-110555000D01*
X85733405Y-110503696D01*
X85976359Y-110403061D01*
X86195013Y-110256962D01*
X86380962Y-110071013D01*
X86527061Y-109852359D01*
X86627696Y-109609405D01*
X86679000Y-109351486D01*
X86679000Y-109118514D01*
X88915000Y-109118514D01*
X88915000Y-109381486D01*
X88966304Y-109639405D01*
X89066939Y-109882359D01*
X89213038Y-110101013D01*
X89398987Y-110286962D01*
X89617641Y-110433061D01*
X89860595Y-110533696D01*
X90118514Y-110585000D01*
X90381486Y-110585000D01*
X90639405Y-110533696D01*
X90882359Y-110433061D01*
X91101013Y-110286962D01*
X91286962Y-110101013D01*
X91433061Y-109882359D01*
X91533696Y-109639405D01*
X91585000Y-109381486D01*
X91585000Y-109118514D01*
X91533696Y-108860595D01*
X91433061Y-108617641D01*
X91286962Y-108398987D01*
X91101013Y-108213038D01*
X90882359Y-108066939D01*
X90639405Y-107966304D01*
X90381486Y-107915000D01*
X90118514Y-107915000D01*
X89860595Y-107966304D01*
X89617641Y-108066939D01*
X89398987Y-108213038D01*
X89213038Y-108398987D01*
X89066939Y-108617641D01*
X88966304Y-108860595D01*
X88915000Y-109118514D01*
X86679000Y-109118514D01*
X86679000Y-109088514D01*
X86627696Y-108830595D01*
X86527061Y-108587641D01*
X86380962Y-108368987D01*
X86195013Y-108183038D01*
X85976359Y-108036939D01*
X85733405Y-107936304D01*
X85475486Y-107885000D01*
X85212514Y-107885000D01*
X84954595Y-107936304D01*
X84711641Y-108036939D01*
X84492987Y-108183038D01*
X84307038Y-108368987D01*
X84160939Y-108587641D01*
X84060304Y-108830595D01*
X84009000Y-109088514D01*
X82111192Y-109088514D01*
X82413725Y-108926807D01*
X82717503Y-108677503D01*
X82966807Y-108373725D01*
X83152057Y-108027147D01*
X83266133Y-107651087D01*
X83295000Y-107357997D01*
X83295000Y-106642002D01*
X83266133Y-106348912D01*
X83152057Y-105972853D01*
X82966807Y-105626275D01*
X82717503Y-105322497D01*
X82413725Y-105073193D01*
X82067146Y-104887943D01*
X81691087Y-104773867D01*
X81300000Y-104735348D01*
X80908912Y-104773867D01*
X80532853Y-104887943D01*
X80186275Y-105073193D01*
X79882497Y-105322497D01*
X79633193Y-105626275D01*
X79447943Y-105972854D01*
X79333867Y-106348913D01*
X79305000Y-106642003D01*
X73695000Y-106642003D01*
X73695000Y-106642002D01*
X73666133Y-106348912D01*
X73552057Y-105972853D01*
X73366807Y-105626275D01*
X73117503Y-105322497D01*
X72813725Y-105073193D01*
X72467146Y-104887943D01*
X72091087Y-104773867D01*
X71700000Y-104735348D01*
X71308912Y-104773867D01*
X70932853Y-104887943D01*
X70685000Y-105020423D01*
X70685000Y-101468514D01*
X84009000Y-101468514D01*
X84009000Y-101731486D01*
X84060304Y-101989405D01*
X84160939Y-102232359D01*
X84307038Y-102451013D01*
X84492987Y-102636962D01*
X84711641Y-102783061D01*
X84954595Y-102883696D01*
X85212514Y-102935000D01*
X85475486Y-102935000D01*
X85733405Y-102883696D01*
X85976359Y-102783061D01*
X86195013Y-102636962D01*
X86380962Y-102451013D01*
X86527061Y-102232359D01*
X86627696Y-101989405D01*
X86679000Y-101731486D01*
X86679000Y-101468514D01*
X86627696Y-101210595D01*
X86527061Y-100967641D01*
X86380962Y-100748987D01*
X86195013Y-100563038D01*
X85976359Y-100416939D01*
X85733405Y-100316304D01*
X85475486Y-100265000D01*
X85212514Y-100265000D01*
X84954595Y-100316304D01*
X84711641Y-100416939D01*
X84492987Y-100563038D01*
X84307038Y-100748987D01*
X84160939Y-100967641D01*
X84060304Y-101210595D01*
X84009000Y-101468514D01*
X70685000Y-101468514D01*
X70685000Y-99348816D01*
X72465000Y-99348816D01*
X72465000Y-99651184D01*
X72523989Y-99947743D01*
X72639701Y-100227095D01*
X72807688Y-100478505D01*
X73021495Y-100692312D01*
X73272905Y-100860299D01*
X73552257Y-100976011D01*
X73848816Y-101035000D01*
X74151184Y-101035000D01*
X74447743Y-100976011D01*
X74727095Y-100860299D01*
X74978505Y-100692312D01*
X75192312Y-100478505D01*
X75250000Y-100392169D01*
X75307688Y-100478505D01*
X75521495Y-100692312D01*
X75772905Y-100860299D01*
X76052257Y-100976011D01*
X76348816Y-101035000D01*
X76651184Y-101035000D01*
X76947743Y-100976011D01*
X77227095Y-100860299D01*
X77478505Y-100692312D01*
X77516120Y-100654697D01*
X77569463Y-100754494D01*
X77648815Y-100851185D01*
X77745506Y-100930537D01*
X77855820Y-100989502D01*
X77975518Y-101025812D01*
X78100000Y-101038072D01*
X79900000Y-101038072D01*
X80024482Y-101025812D01*
X80144180Y-100989502D01*
X80254494Y-100930537D01*
X80351185Y-100851185D01*
X80430537Y-100754494D01*
X80489502Y-100644180D01*
X80525812Y-100524482D01*
X80538072Y-100400000D01*
X80538072Y-98600000D01*
X80525812Y-98475518D01*
X80489502Y-98355820D01*
X80430537Y-98245506D01*
X80351185Y-98148815D01*
X80350267Y-98148061D01*
X84465000Y-98148061D01*
X84465000Y-98351939D01*
X84504774Y-98551898D01*
X84582795Y-98740256D01*
X84696063Y-98909774D01*
X84840226Y-99053937D01*
X85009744Y-99167205D01*
X85198102Y-99245226D01*
X85229104Y-99251393D01*
X88236370Y-102258659D01*
X88265656Y-102294344D01*
X88408028Y-102411186D01*
X88570460Y-102498007D01*
X88746708Y-102551471D01*
X88930000Y-102569524D01*
X88975932Y-102565000D01*
X89297025Y-102565000D01*
X89398987Y-102666962D01*
X89617641Y-102813061D01*
X89860595Y-102913696D01*
X90118514Y-102965000D01*
X90381486Y-102965000D01*
X90639405Y-102913696D01*
X90882359Y-102813061D01*
X91101013Y-102666962D01*
X91286962Y-102481013D01*
X91433061Y-102262359D01*
X91533696Y-102019405D01*
X91585000Y-101761486D01*
X91585000Y-101498514D01*
X91533696Y-101240595D01*
X91433061Y-100997641D01*
X91286962Y-100778987D01*
X91101013Y-100593038D01*
X90882359Y-100446939D01*
X90639405Y-100346304D01*
X90381486Y-100295000D01*
X90118514Y-100295000D01*
X89860595Y-100346304D01*
X89617641Y-100446939D01*
X89398987Y-100593038D01*
X89307157Y-100684868D01*
X86442076Y-97819787D01*
X86417205Y-97759744D01*
X86303937Y-97590226D01*
X86159774Y-97446063D01*
X85990256Y-97332795D01*
X85801898Y-97254774D01*
X85601939Y-97215000D01*
X85398061Y-97215000D01*
X85198102Y-97254774D01*
X85009744Y-97332795D01*
X84840226Y-97446063D01*
X84696063Y-97590226D01*
X84582795Y-97759744D01*
X84504774Y-97948102D01*
X84465000Y-98148061D01*
X80350267Y-98148061D01*
X80254494Y-98069463D01*
X80144180Y-98010498D01*
X80024482Y-97974188D01*
X79900000Y-97961928D01*
X78100000Y-97961928D01*
X77975518Y-97974188D01*
X77855820Y-98010498D01*
X77745506Y-98069463D01*
X77648815Y-98148815D01*
X77569463Y-98245506D01*
X77516120Y-98345303D01*
X77478505Y-98307688D01*
X77227095Y-98139701D01*
X76947743Y-98023989D01*
X76651184Y-97965000D01*
X76348816Y-97965000D01*
X76052257Y-98023989D01*
X75772905Y-98139701D01*
X75521495Y-98307688D01*
X75307688Y-98521495D01*
X75250000Y-98607831D01*
X75192312Y-98521495D01*
X74978505Y-98307688D01*
X74727095Y-98139701D01*
X74447743Y-98023989D01*
X74151184Y-97965000D01*
X73848816Y-97965000D01*
X73552257Y-98023989D01*
X73272905Y-98139701D01*
X73021495Y-98307688D01*
X72807688Y-98521495D01*
X72639701Y-98772905D01*
X72523989Y-99052257D01*
X72465000Y-99348816D01*
X70685000Y-99348816D01*
X70685000Y-95870665D01*
X79377000Y-95870665D01*
X79377000Y-96153335D01*
X79432147Y-96430574D01*
X79540320Y-96691727D01*
X79697363Y-96926759D01*
X79897241Y-97126637D01*
X80132273Y-97283680D01*
X80393426Y-97391853D01*
X80670665Y-97447000D01*
X80953335Y-97447000D01*
X81230574Y-97391853D01*
X81491727Y-97283680D01*
X81726759Y-97126637D01*
X81848694Y-97004702D01*
X82498903Y-97004702D01*
X82570486Y-97248671D01*
X82825996Y-97369571D01*
X83100184Y-97438300D01*
X83382512Y-97452217D01*
X83662130Y-97410787D01*
X83928292Y-97315603D01*
X84053514Y-97248671D01*
X84125097Y-97004702D01*
X83312000Y-96191605D01*
X82498903Y-97004702D01*
X81848694Y-97004702D01*
X81926637Y-96926759D01*
X82060692Y-96726131D01*
X82075329Y-96753514D01*
X82319298Y-96825097D01*
X83132395Y-96012000D01*
X83491605Y-96012000D01*
X84304702Y-96825097D01*
X84548671Y-96753514D01*
X84669571Y-96498004D01*
X84738300Y-96223816D01*
X84752217Y-95941488D01*
X84710787Y-95661870D01*
X84615603Y-95395708D01*
X84548671Y-95270486D01*
X84304702Y-95198903D01*
X83491605Y-96012000D01*
X83132395Y-96012000D01*
X82319298Y-95198903D01*
X82075329Y-95270486D01*
X82061676Y-95299341D01*
X81926637Y-95097241D01*
X81848694Y-95019298D01*
X82498903Y-95019298D01*
X83312000Y-95832395D01*
X84125097Y-95019298D01*
X84053514Y-94775329D01*
X83798004Y-94654429D01*
X83523816Y-94585700D01*
X83241488Y-94571783D01*
X82961870Y-94613213D01*
X82695708Y-94708397D01*
X82570486Y-94775329D01*
X82498903Y-95019298D01*
X81848694Y-95019298D01*
X81726759Y-94897363D01*
X81491727Y-94740320D01*
X81230574Y-94632147D01*
X80953335Y-94577000D01*
X80670665Y-94577000D01*
X80393426Y-94632147D01*
X80132273Y-94740320D01*
X79897241Y-94897363D01*
X79697363Y-95097241D01*
X79540320Y-95332273D01*
X79432147Y-95593426D01*
X79377000Y-95870665D01*
X70685000Y-95870665D01*
X70685000Y-92314665D01*
X75781000Y-92314665D01*
X75781000Y-92597335D01*
X75836147Y-92874574D01*
X75944320Y-93135727D01*
X76101363Y-93370759D01*
X76301241Y-93570637D01*
X76536273Y-93727680D01*
X76797426Y-93835853D01*
X77074665Y-93891000D01*
X77357335Y-93891000D01*
X77634574Y-93835853D01*
X77895727Y-93727680D01*
X78130759Y-93570637D01*
X78330637Y-93370759D01*
X78487680Y-93135727D01*
X78595853Y-92874574D01*
X78609684Y-92805039D01*
X85984096Y-92805039D01*
X86024754Y-92939087D01*
X86144963Y-93193420D01*
X86312481Y-93419414D01*
X86520869Y-93608385D01*
X86762119Y-93753070D01*
X87026960Y-93847909D01*
X87249000Y-93726624D01*
X87249000Y-92583000D01*
X87503000Y-92583000D01*
X87503000Y-93726624D01*
X87725040Y-93847909D01*
X87989881Y-93753070D01*
X88231131Y-93608385D01*
X88439519Y-93419414D01*
X88607037Y-93193420D01*
X88727246Y-92939087D01*
X88767904Y-92805039D01*
X88645915Y-92583000D01*
X87503000Y-92583000D01*
X87249000Y-92583000D01*
X86106085Y-92583000D01*
X85984096Y-92805039D01*
X78609684Y-92805039D01*
X78651000Y-92597335D01*
X78651000Y-92314665D01*
X78595853Y-92037426D01*
X78487680Y-91776273D01*
X78330637Y-91541241D01*
X78130759Y-91341363D01*
X77895727Y-91184320D01*
X77885135Y-91179933D01*
X78071131Y-91068385D01*
X78279519Y-90879414D01*
X78447037Y-90653420D01*
X78567246Y-90399087D01*
X78607904Y-90265039D01*
X78485915Y-90043000D01*
X77343000Y-90043000D01*
X77343000Y-90063000D01*
X77089000Y-90063000D01*
X77089000Y-90043000D01*
X75946085Y-90043000D01*
X75824096Y-90265039D01*
X75864754Y-90399087D01*
X75984963Y-90653420D01*
X76152481Y-90879414D01*
X76360869Y-91068385D01*
X76546865Y-91179933D01*
X76536273Y-91184320D01*
X76301241Y-91341363D01*
X76101363Y-91541241D01*
X75944320Y-91776273D01*
X75836147Y-92037426D01*
X75781000Y-92314665D01*
X70685000Y-92314665D01*
X70685000Y-84694665D01*
X71717000Y-84694665D01*
X71717000Y-84977335D01*
X71772147Y-85254574D01*
X71880320Y-85515727D01*
X72037363Y-85750759D01*
X72237241Y-85950637D01*
X72439827Y-86086000D01*
X72237241Y-86221363D01*
X72037363Y-86421241D01*
X71880320Y-86656273D01*
X71772147Y-86917426D01*
X71717000Y-87194665D01*
X71717000Y-87477335D01*
X71772147Y-87754574D01*
X71880320Y-88015727D01*
X72037363Y-88250759D01*
X72237241Y-88450637D01*
X72472273Y-88607680D01*
X72733426Y-88715853D01*
X73010665Y-88771000D01*
X73293335Y-88771000D01*
X73570574Y-88715853D01*
X73831727Y-88607680D01*
X74066759Y-88450637D01*
X74266637Y-88250759D01*
X74423680Y-88015727D01*
X74531853Y-87754574D01*
X74587000Y-87477335D01*
X74587000Y-87194665D01*
X74531853Y-86917426D01*
X74423680Y-86656273D01*
X74266637Y-86421241D01*
X74066759Y-86221363D01*
X73864173Y-86086000D01*
X74066759Y-85950637D01*
X74266637Y-85750759D01*
X74423680Y-85515727D01*
X74531853Y-85254574D01*
X74587000Y-84977335D01*
X74587000Y-84694665D01*
X74531853Y-84417426D01*
X74423680Y-84156273D01*
X74343317Y-84036000D01*
X75777928Y-84036000D01*
X75777928Y-85636000D01*
X75790188Y-85760482D01*
X75826498Y-85880180D01*
X75885463Y-85990494D01*
X75964815Y-86087185D01*
X76061506Y-86166537D01*
X76171820Y-86225502D01*
X76291518Y-86261812D01*
X76299961Y-86262643D01*
X76101363Y-86461241D01*
X75944320Y-86696273D01*
X75836147Y-86957426D01*
X75781000Y-87234665D01*
X75781000Y-87517335D01*
X75836147Y-87794574D01*
X75944320Y-88055727D01*
X76101363Y-88290759D01*
X76301241Y-88490637D01*
X76536273Y-88647680D01*
X76546865Y-88652067D01*
X76360869Y-88763615D01*
X76152481Y-88952586D01*
X75984963Y-89178580D01*
X75864754Y-89432913D01*
X75824096Y-89566961D01*
X75946085Y-89789000D01*
X77089000Y-89789000D01*
X77089000Y-89769000D01*
X77343000Y-89769000D01*
X77343000Y-89789000D01*
X78485915Y-89789000D01*
X78607904Y-89566961D01*
X78567246Y-89432913D01*
X78447037Y-89178580D01*
X78279519Y-88952586D01*
X78071131Y-88763615D01*
X77885135Y-88652067D01*
X77895727Y-88647680D01*
X78130759Y-88490637D01*
X78330637Y-88290759D01*
X78487680Y-88055727D01*
X78595853Y-87794574D01*
X78651000Y-87517335D01*
X78651000Y-87234665D01*
X78595853Y-86957426D01*
X78487680Y-86696273D01*
X78330637Y-86461241D01*
X78132039Y-86262643D01*
X78140482Y-86261812D01*
X78260180Y-86225502D01*
X78370494Y-86166537D01*
X78467185Y-86087185D01*
X78546537Y-85990494D01*
X78605502Y-85880180D01*
X78641812Y-85760482D01*
X78654072Y-85636000D01*
X78654072Y-84694665D01*
X85941000Y-84694665D01*
X85941000Y-84977335D01*
X85996147Y-85254574D01*
X86104320Y-85515727D01*
X86261363Y-85750759D01*
X86461241Y-85950637D01*
X86693759Y-86106000D01*
X86461241Y-86261363D01*
X86261363Y-86461241D01*
X86104320Y-86696273D01*
X85996147Y-86957426D01*
X85941000Y-87234665D01*
X85941000Y-87517335D01*
X85996147Y-87794574D01*
X86104320Y-88055727D01*
X86261363Y-88290759D01*
X86461241Y-88490637D01*
X86693759Y-88646000D01*
X86461241Y-88801363D01*
X86261363Y-89001241D01*
X86104320Y-89236273D01*
X85996147Y-89497426D01*
X85941000Y-89774665D01*
X85941000Y-90057335D01*
X85996147Y-90334574D01*
X86104320Y-90595727D01*
X86261363Y-90830759D01*
X86461241Y-91030637D01*
X86696273Y-91187680D01*
X86706865Y-91192067D01*
X86520869Y-91303615D01*
X86312481Y-91492586D01*
X86144963Y-91718580D01*
X86024754Y-91972913D01*
X85984096Y-92106961D01*
X86106085Y-92329000D01*
X87249000Y-92329000D01*
X87249000Y-92309000D01*
X87503000Y-92309000D01*
X87503000Y-92329000D01*
X88645915Y-92329000D01*
X88648379Y-92324514D01*
X89089000Y-92324514D01*
X89089000Y-92587486D01*
X89140304Y-92845405D01*
X89240939Y-93088359D01*
X89387038Y-93307013D01*
X89572987Y-93492962D01*
X89791641Y-93639061D01*
X90034595Y-93739696D01*
X90292514Y-93791000D01*
X90555486Y-93791000D01*
X90813405Y-93739696D01*
X91056359Y-93639061D01*
X91275013Y-93492962D01*
X91460962Y-93307013D01*
X91607061Y-93088359D01*
X91707696Y-92845405D01*
X91759000Y-92587486D01*
X91759000Y-92324514D01*
X91707696Y-92066595D01*
X91607061Y-91823641D01*
X91460962Y-91604987D01*
X91275013Y-91419038D01*
X91056359Y-91272939D01*
X90813405Y-91172304D01*
X90555486Y-91121000D01*
X90292514Y-91121000D01*
X90034595Y-91172304D01*
X89791641Y-91272939D01*
X89572987Y-91419038D01*
X89387038Y-91604987D01*
X89240939Y-91823641D01*
X89140304Y-92066595D01*
X89089000Y-92324514D01*
X88648379Y-92324514D01*
X88767904Y-92106961D01*
X88727246Y-91972913D01*
X88607037Y-91718580D01*
X88439519Y-91492586D01*
X88231131Y-91303615D01*
X88045135Y-91192067D01*
X88055727Y-91187680D01*
X88290759Y-91030637D01*
X88490637Y-90830759D01*
X88647680Y-90595727D01*
X88755853Y-90334574D01*
X88811000Y-90057335D01*
X88811000Y-89774665D01*
X93053000Y-89774665D01*
X93053000Y-90057335D01*
X93108147Y-90334574D01*
X93216320Y-90595727D01*
X93373363Y-90830759D01*
X93573241Y-91030637D01*
X93775827Y-91166000D01*
X93573241Y-91301363D01*
X93373363Y-91501241D01*
X93216320Y-91736273D01*
X93108147Y-91997426D01*
X93053000Y-92274665D01*
X93053000Y-92557335D01*
X93108147Y-92834574D01*
X93216320Y-93095727D01*
X93373363Y-93330759D01*
X93573241Y-93530637D01*
X93808273Y-93687680D01*
X94069426Y-93795853D01*
X94346665Y-93851000D01*
X94629335Y-93851000D01*
X94906574Y-93795853D01*
X95167727Y-93687680D01*
X95402759Y-93530637D01*
X95602637Y-93330759D01*
X95759680Y-93095727D01*
X95867853Y-92834574D01*
X95923000Y-92557335D01*
X95923000Y-92274665D01*
X95867853Y-91997426D01*
X95759680Y-91736273D01*
X95602637Y-91501241D01*
X95402759Y-91301363D01*
X95200173Y-91166000D01*
X95402759Y-91030637D01*
X95602637Y-90830759D01*
X95759680Y-90595727D01*
X95867853Y-90334574D01*
X95923000Y-90057335D01*
X95923000Y-89774665D01*
X95867853Y-89497426D01*
X95759680Y-89236273D01*
X95602637Y-89001241D01*
X95402759Y-88801363D01*
X95167727Y-88644320D01*
X95127016Y-88627457D01*
X95229514Y-88572671D01*
X95301097Y-88328702D01*
X94488000Y-87515605D01*
X93674903Y-88328702D01*
X93746486Y-88572671D01*
X93856069Y-88624522D01*
X93808273Y-88644320D01*
X93573241Y-88801363D01*
X93373363Y-89001241D01*
X93216320Y-89236273D01*
X93108147Y-89497426D01*
X93053000Y-89774665D01*
X88811000Y-89774665D01*
X88755853Y-89497426D01*
X88647680Y-89236273D01*
X88490637Y-89001241D01*
X88290759Y-88801363D01*
X88058241Y-88646000D01*
X88290759Y-88490637D01*
X88490637Y-88290759D01*
X88647680Y-88055727D01*
X88755853Y-87794574D01*
X88811000Y-87517335D01*
X88811000Y-87406512D01*
X93047783Y-87406512D01*
X93089213Y-87686130D01*
X93184397Y-87952292D01*
X93251329Y-88077514D01*
X93495298Y-88149097D01*
X94308395Y-87336000D01*
X94667605Y-87336000D01*
X95480702Y-88149097D01*
X95724671Y-88077514D01*
X95845571Y-87822004D01*
X95914300Y-87547816D01*
X95928217Y-87265488D01*
X95886787Y-86985870D01*
X95791603Y-86719708D01*
X95724671Y-86594486D01*
X95480702Y-86522903D01*
X94667605Y-87336000D01*
X94308395Y-87336000D01*
X93495298Y-86522903D01*
X93251329Y-86594486D01*
X93130429Y-86849996D01*
X93061700Y-87124184D01*
X93047783Y-87406512D01*
X88811000Y-87406512D01*
X88811000Y-87234665D01*
X88755853Y-86957426D01*
X88647680Y-86696273D01*
X88490637Y-86461241D01*
X88290759Y-86261363D01*
X88058241Y-86106000D01*
X88290759Y-85950637D01*
X88490637Y-85750759D01*
X88647680Y-85515727D01*
X88755853Y-85254574D01*
X88811000Y-84977335D01*
X88811000Y-84704514D01*
X89089000Y-84704514D01*
X89089000Y-84967486D01*
X89140304Y-85225405D01*
X89240939Y-85468359D01*
X89387038Y-85687013D01*
X89572987Y-85872962D01*
X89791641Y-86019061D01*
X90034595Y-86119696D01*
X90292514Y-86171000D01*
X90555486Y-86171000D01*
X90813405Y-86119696D01*
X91056359Y-86019061D01*
X91275013Y-85872962D01*
X91460962Y-85687013D01*
X91607061Y-85468359D01*
X91707696Y-85225405D01*
X91759000Y-84967486D01*
X91759000Y-84704514D01*
X91757041Y-84694665D01*
X93053000Y-84694665D01*
X93053000Y-84977335D01*
X93108147Y-85254574D01*
X93216320Y-85515727D01*
X93373363Y-85750759D01*
X93573241Y-85950637D01*
X93773869Y-86084692D01*
X93746486Y-86099329D01*
X93674903Y-86343298D01*
X94488000Y-87156395D01*
X95301097Y-86343298D01*
X95229514Y-86099329D01*
X95200659Y-86085676D01*
X95402759Y-85950637D01*
X95602637Y-85750759D01*
X95759680Y-85515727D01*
X95867853Y-85254574D01*
X95923000Y-84977335D01*
X95923000Y-84694665D01*
X95867853Y-84417426D01*
X95759680Y-84156273D01*
X95602637Y-83921241D01*
X95402759Y-83721363D01*
X95167727Y-83564320D01*
X94906574Y-83456147D01*
X94629335Y-83401000D01*
X94346665Y-83401000D01*
X94069426Y-83456147D01*
X93808273Y-83564320D01*
X93573241Y-83721363D01*
X93373363Y-83921241D01*
X93216320Y-84156273D01*
X93108147Y-84417426D01*
X93053000Y-84694665D01*
X91757041Y-84694665D01*
X91707696Y-84446595D01*
X91607061Y-84203641D01*
X91460962Y-83984987D01*
X91275013Y-83799038D01*
X91056359Y-83652939D01*
X90813405Y-83552304D01*
X90555486Y-83501000D01*
X90292514Y-83501000D01*
X90034595Y-83552304D01*
X89791641Y-83652939D01*
X89572987Y-83799038D01*
X89387038Y-83984987D01*
X89240939Y-84203641D01*
X89140304Y-84446595D01*
X89089000Y-84704514D01*
X88811000Y-84704514D01*
X88811000Y-84694665D01*
X88755853Y-84417426D01*
X88647680Y-84156273D01*
X88490637Y-83921241D01*
X88290759Y-83721363D01*
X88055727Y-83564320D01*
X87794574Y-83456147D01*
X87517335Y-83401000D01*
X87234665Y-83401000D01*
X86957426Y-83456147D01*
X86696273Y-83564320D01*
X86461241Y-83721363D01*
X86261363Y-83921241D01*
X86104320Y-84156273D01*
X85996147Y-84417426D01*
X85941000Y-84694665D01*
X78654072Y-84694665D01*
X78654072Y-84036000D01*
X78641812Y-83911518D01*
X78605502Y-83791820D01*
X78546537Y-83681506D01*
X78467185Y-83584815D01*
X78370494Y-83505463D01*
X78260180Y-83446498D01*
X78140482Y-83410188D01*
X78016000Y-83397928D01*
X76416000Y-83397928D01*
X76291518Y-83410188D01*
X76171820Y-83446498D01*
X76061506Y-83505463D01*
X75964815Y-83584815D01*
X75885463Y-83681506D01*
X75826498Y-83791820D01*
X75790188Y-83911518D01*
X75777928Y-84036000D01*
X74343317Y-84036000D01*
X74266637Y-83921241D01*
X74066759Y-83721363D01*
X73831727Y-83564320D01*
X73570574Y-83456147D01*
X73293335Y-83401000D01*
X73010665Y-83401000D01*
X72733426Y-83456147D01*
X72472273Y-83564320D01*
X72237241Y-83721363D01*
X72037363Y-83921241D01*
X71880320Y-84156273D01*
X71772147Y-84417426D01*
X71717000Y-84694665D01*
X70685000Y-84694665D01*
X70685000Y-79415000D01*
X74896928Y-79415000D01*
X74909188Y-79539482D01*
X74945498Y-79659180D01*
X75004463Y-79769494D01*
X75083815Y-79866185D01*
X75180506Y-79945537D01*
X75290820Y-80004502D01*
X75410518Y-80040812D01*
X75535000Y-80053072D01*
X76214250Y-80050000D01*
X76373000Y-79891250D01*
X76373000Y-78627000D01*
X76627000Y-78627000D01*
X76627000Y-79891250D01*
X76785750Y-80050000D01*
X77465000Y-80053072D01*
X77589482Y-80040812D01*
X77709180Y-80004502D01*
X77819494Y-79945537D01*
X77916185Y-79866185D01*
X77995537Y-79769494D01*
X78054502Y-79659180D01*
X78090812Y-79539482D01*
X78103072Y-79415000D01*
X78100000Y-78785750D01*
X77941250Y-78627000D01*
X76627000Y-78627000D01*
X76373000Y-78627000D01*
X75058750Y-78627000D01*
X74900000Y-78785750D01*
X74896928Y-79415000D01*
X70685000Y-79415000D01*
X70685000Y-75232565D01*
X74800000Y-75232565D01*
X74800000Y-75567435D01*
X74865330Y-75895872D01*
X74993479Y-76205252D01*
X75179523Y-76483687D01*
X75416313Y-76720477D01*
X75694748Y-76906521D01*
X75795140Y-76948105D01*
X75535000Y-76946928D01*
X75410518Y-76959188D01*
X75290820Y-76995498D01*
X75180506Y-77054463D01*
X75083815Y-77133815D01*
X75004463Y-77230506D01*
X74945498Y-77340820D01*
X74909188Y-77460518D01*
X74896928Y-77585000D01*
X74900000Y-78214250D01*
X75058750Y-78373000D01*
X76373000Y-78373000D01*
X76373000Y-78353000D01*
X76627000Y-78353000D01*
X76627000Y-78373000D01*
X77941250Y-78373000D01*
X78100000Y-78214250D01*
X78103072Y-77585000D01*
X78090812Y-77460518D01*
X78054502Y-77340820D01*
X77995537Y-77230506D01*
X77916185Y-77133815D01*
X77819494Y-77054463D01*
X77709180Y-76995498D01*
X77589482Y-76959188D01*
X77465000Y-76946928D01*
X77204860Y-76948105D01*
X77305252Y-76906521D01*
X77583687Y-76720477D01*
X77820477Y-76483687D01*
X78006521Y-76205252D01*
X78032719Y-76142003D01*
X83205000Y-76142003D01*
X83205000Y-76857998D01*
X83233867Y-77151088D01*
X83347943Y-77527147D01*
X83533193Y-77873725D01*
X83782498Y-78177503D01*
X84086276Y-78426807D01*
X84432854Y-78612057D01*
X84808913Y-78726133D01*
X85200000Y-78764652D01*
X85591088Y-78726133D01*
X85967147Y-78612057D01*
X86313725Y-78426807D01*
X86617503Y-78177503D01*
X86866807Y-77873725D01*
X87052057Y-77527147D01*
X87166133Y-77151087D01*
X87195000Y-76857997D01*
X87195000Y-76142003D01*
X92805000Y-76142003D01*
X92805000Y-76857998D01*
X92833867Y-77151088D01*
X92947943Y-77527147D01*
X93133193Y-77873725D01*
X93382498Y-78177503D01*
X93686276Y-78426807D01*
X94032854Y-78612057D01*
X94408913Y-78726133D01*
X94800000Y-78764652D01*
X95191088Y-78726133D01*
X95567147Y-78612057D01*
X95913725Y-78426807D01*
X96217503Y-78177503D01*
X96466807Y-77873725D01*
X96652057Y-77527147D01*
X96766133Y-77151087D01*
X96795000Y-76857997D01*
X96795000Y-76142002D01*
X96766133Y-75848912D01*
X96652057Y-75472853D01*
X96466807Y-75126275D01*
X96217503Y-74822497D01*
X95913725Y-74573193D01*
X95567146Y-74387943D01*
X95191087Y-74273867D01*
X94800000Y-74235348D01*
X94408912Y-74273867D01*
X94032853Y-74387943D01*
X93686275Y-74573193D01*
X93382497Y-74822497D01*
X93133193Y-75126275D01*
X92947943Y-75472854D01*
X92833867Y-75848913D01*
X92805000Y-76142003D01*
X87195000Y-76142003D01*
X87195000Y-76142002D01*
X87166133Y-75848912D01*
X87052057Y-75472853D01*
X86866807Y-75126275D01*
X86617503Y-74822497D01*
X86313725Y-74573193D01*
X85967146Y-74387943D01*
X85591087Y-74273867D01*
X85200000Y-74235348D01*
X84808912Y-74273867D01*
X84432853Y-74387943D01*
X84086275Y-74573193D01*
X83782497Y-74822497D01*
X83533193Y-75126275D01*
X83347943Y-75472854D01*
X83233867Y-75848913D01*
X83205000Y-76142003D01*
X78032719Y-76142003D01*
X78134670Y-75895872D01*
X78200000Y-75567435D01*
X78200000Y-75232565D01*
X78134670Y-74904128D01*
X78006521Y-74594748D01*
X77820477Y-74316313D01*
X77583687Y-74079523D01*
X77305252Y-73893479D01*
X76995872Y-73765330D01*
X76667435Y-73700000D01*
X76332565Y-73700000D01*
X76004128Y-73765330D01*
X75694748Y-73893479D01*
X75416313Y-74079523D01*
X75179523Y-74316313D01*
X74993479Y-74594748D01*
X74865330Y-74904128D01*
X74800000Y-75232565D01*
X70685000Y-75232565D01*
X70685000Y-70064080D01*
X86615525Y-70064080D01*
X86699208Y-70318261D01*
X86971775Y-70449158D01*
X87264642Y-70524365D01*
X87566553Y-70540991D01*
X87865907Y-70498397D01*
X88151199Y-70398222D01*
X88300792Y-70318261D01*
X88384475Y-70064080D01*
X87500000Y-69179605D01*
X86615525Y-70064080D01*
X70685000Y-70064080D01*
X70685000Y-69066553D01*
X85959009Y-69066553D01*
X86001603Y-69365907D01*
X86101778Y-69651199D01*
X86181739Y-69800792D01*
X86435920Y-69884475D01*
X87320395Y-69000000D01*
X87679605Y-69000000D01*
X88564080Y-69884475D01*
X88712262Y-69835690D01*
X88807688Y-69978505D01*
X89021495Y-70192312D01*
X89272905Y-70360299D01*
X89552257Y-70476011D01*
X89848816Y-70535000D01*
X90151184Y-70535000D01*
X90447743Y-70476011D01*
X90727095Y-70360299D01*
X90978505Y-70192312D01*
X91016120Y-70154697D01*
X91069463Y-70254494D01*
X91148815Y-70351185D01*
X91245506Y-70430537D01*
X91355820Y-70489502D01*
X91475518Y-70525812D01*
X91600000Y-70538072D01*
X93400000Y-70538072D01*
X93524482Y-70525812D01*
X93644180Y-70489502D01*
X93754494Y-70430537D01*
X93851185Y-70351185D01*
X93930537Y-70254494D01*
X93989502Y-70144180D01*
X94025812Y-70024482D01*
X94038072Y-69900000D01*
X94038072Y-68100000D01*
X94025812Y-67975518D01*
X93989502Y-67855820D01*
X93930537Y-67745506D01*
X93851185Y-67648815D01*
X93754494Y-67569463D01*
X93644180Y-67510498D01*
X93524482Y-67474188D01*
X93400000Y-67461928D01*
X91600000Y-67461928D01*
X91475518Y-67474188D01*
X91355820Y-67510498D01*
X91245506Y-67569463D01*
X91148815Y-67648815D01*
X91069463Y-67745506D01*
X91016120Y-67845303D01*
X90978505Y-67807688D01*
X90727095Y-67639701D01*
X90447743Y-67523989D01*
X90151184Y-67465000D01*
X89848816Y-67465000D01*
X89552257Y-67523989D01*
X89272905Y-67639701D01*
X89021495Y-67807688D01*
X88807688Y-68021495D01*
X88712262Y-68164310D01*
X88564080Y-68115525D01*
X87679605Y-69000000D01*
X87320395Y-69000000D01*
X86435920Y-68115525D01*
X86181739Y-68199208D01*
X86050842Y-68471775D01*
X85975635Y-68764642D01*
X85959009Y-69066553D01*
X70685000Y-69066553D01*
X70685000Y-66932565D01*
X74800000Y-66932565D01*
X74800000Y-67267435D01*
X74865330Y-67595872D01*
X74993479Y-67905252D01*
X75179523Y-68183687D01*
X75416313Y-68420477D01*
X75694748Y-68606521D01*
X76004128Y-68734670D01*
X76332565Y-68800000D01*
X76667435Y-68800000D01*
X76995872Y-68734670D01*
X77305252Y-68606521D01*
X77583687Y-68420477D01*
X77820477Y-68183687D01*
X77986029Y-67935920D01*
X86615525Y-67935920D01*
X87500000Y-68820395D01*
X88384475Y-67935920D01*
X88300792Y-67681739D01*
X88028225Y-67550842D01*
X87735358Y-67475635D01*
X87433447Y-67459009D01*
X87134093Y-67501603D01*
X86848801Y-67601778D01*
X86699208Y-67681739D01*
X86615525Y-67935920D01*
X77986029Y-67935920D01*
X78006521Y-67905252D01*
X78134670Y-67595872D01*
X78200000Y-67267435D01*
X78200000Y-66932565D01*
X78134670Y-66604128D01*
X78006521Y-66294748D01*
X77820477Y-66016313D01*
X77583687Y-65779523D01*
X77305252Y-65593479D01*
X76995872Y-65465330D01*
X76667435Y-65400000D01*
X76332565Y-65400000D01*
X76004128Y-65465330D01*
X75694748Y-65593479D01*
X75416313Y-65779523D01*
X75179523Y-66016313D01*
X74993479Y-66294748D01*
X74865330Y-66604128D01*
X74800000Y-66932565D01*
X70685000Y-66932565D01*
X70685000Y-63876514D01*
X85025000Y-63876514D01*
X85025000Y-64139486D01*
X85076304Y-64397405D01*
X85176939Y-64640359D01*
X85323038Y-64859013D01*
X85508987Y-65044962D01*
X85727641Y-65191061D01*
X85970595Y-65291696D01*
X86228514Y-65343000D01*
X86491486Y-65343000D01*
X86749405Y-65291696D01*
X86992359Y-65191061D01*
X87211013Y-65044962D01*
X87396962Y-64859013D01*
X87543061Y-64640359D01*
X87643696Y-64397405D01*
X87695000Y-64139486D01*
X87695000Y-63876514D01*
X92645000Y-63876514D01*
X92645000Y-64139486D01*
X92696304Y-64397405D01*
X92796939Y-64640359D01*
X92943038Y-64859013D01*
X93128987Y-65044962D01*
X93347641Y-65191061D01*
X93590595Y-65291696D01*
X93848514Y-65343000D01*
X94111486Y-65343000D01*
X94369405Y-65291696D01*
X94612359Y-65191061D01*
X94831013Y-65044962D01*
X95016962Y-64859013D01*
X95163061Y-64640359D01*
X95263696Y-64397405D01*
X95315000Y-64139486D01*
X95315000Y-63876514D01*
X95263696Y-63618595D01*
X95163061Y-63375641D01*
X95016962Y-63156987D01*
X94831013Y-62971038D01*
X94612359Y-62824939D01*
X94369405Y-62724304D01*
X94111486Y-62673000D01*
X93848514Y-62673000D01*
X93590595Y-62724304D01*
X93347641Y-62824939D01*
X93128987Y-62971038D01*
X92943038Y-63156987D01*
X92796939Y-63375641D01*
X92696304Y-63618595D01*
X92645000Y-63876514D01*
X87695000Y-63876514D01*
X87643696Y-63618595D01*
X87543061Y-63375641D01*
X87396962Y-63156987D01*
X87211013Y-62971038D01*
X86992359Y-62824939D01*
X86749405Y-62724304D01*
X86491486Y-62673000D01*
X86228514Y-62673000D01*
X85970595Y-62724304D01*
X85727641Y-62824939D01*
X85508987Y-62971038D01*
X85323038Y-63156987D01*
X85176939Y-63375641D01*
X85076304Y-63618595D01*
X85025000Y-63876514D01*
X70685000Y-63876514D01*
X70685000Y-57415000D01*
X74896928Y-57415000D01*
X74909188Y-57539482D01*
X74945498Y-57659180D01*
X75004463Y-57769494D01*
X75083815Y-57866185D01*
X75180506Y-57945537D01*
X75290820Y-58004502D01*
X75410518Y-58040812D01*
X75535000Y-58053072D01*
X76214250Y-58050000D01*
X76373000Y-57891250D01*
X76373000Y-56627000D01*
X76627000Y-56627000D01*
X76627000Y-57891250D01*
X76785750Y-58050000D01*
X77465000Y-58053072D01*
X77589482Y-58040812D01*
X77709180Y-58004502D01*
X77819494Y-57945537D01*
X77916185Y-57866185D01*
X77995537Y-57769494D01*
X78054502Y-57659180D01*
X78090812Y-57539482D01*
X78103072Y-57415000D01*
X78100000Y-56785750D01*
X77941250Y-56627000D01*
X76627000Y-56627000D01*
X76373000Y-56627000D01*
X75058750Y-56627000D01*
X74900000Y-56785750D01*
X74896928Y-57415000D01*
X70685000Y-57415000D01*
X70685000Y-53232565D01*
X74800000Y-53232565D01*
X74800000Y-53567435D01*
X74865330Y-53895872D01*
X74993479Y-54205252D01*
X75179523Y-54483687D01*
X75416313Y-54720477D01*
X75694748Y-54906521D01*
X75795140Y-54948105D01*
X75535000Y-54946928D01*
X75410518Y-54959188D01*
X75290820Y-54995498D01*
X75180506Y-55054463D01*
X75083815Y-55133815D01*
X75004463Y-55230506D01*
X74945498Y-55340820D01*
X74909188Y-55460518D01*
X74896928Y-55585000D01*
X74900000Y-56214250D01*
X75058750Y-56373000D01*
X76373000Y-56373000D01*
X76373000Y-56353000D01*
X76627000Y-56353000D01*
X76627000Y-56373000D01*
X77941250Y-56373000D01*
X78100000Y-56214250D01*
X78103072Y-55585000D01*
X78090812Y-55460518D01*
X78054502Y-55340820D01*
X77995537Y-55230506D01*
X77916185Y-55133815D01*
X77819494Y-55054463D01*
X77709180Y-54995498D01*
X77589482Y-54959188D01*
X77465000Y-54946928D01*
X77204860Y-54948105D01*
X77305252Y-54906521D01*
X77583687Y-54720477D01*
X77820477Y-54483687D01*
X78006521Y-54205252D01*
X78032719Y-54142003D01*
X83205000Y-54142003D01*
X83205000Y-54857998D01*
X83233867Y-55151088D01*
X83347943Y-55527147D01*
X83533193Y-55873725D01*
X83782498Y-56177503D01*
X84086276Y-56426807D01*
X84432854Y-56612057D01*
X84808913Y-56726133D01*
X85200000Y-56764652D01*
X85591088Y-56726133D01*
X85967147Y-56612057D01*
X86313725Y-56426807D01*
X86617503Y-56177503D01*
X86866807Y-55873725D01*
X87052057Y-55527147D01*
X87166133Y-55151087D01*
X87195000Y-54857997D01*
X87195000Y-54142003D01*
X92805000Y-54142003D01*
X92805000Y-54857998D01*
X92833867Y-55151088D01*
X92947943Y-55527147D01*
X93133193Y-55873725D01*
X93382498Y-56177503D01*
X93686276Y-56426807D01*
X94032854Y-56612057D01*
X94408913Y-56726133D01*
X94800000Y-56764652D01*
X95191088Y-56726133D01*
X95567147Y-56612057D01*
X95913725Y-56426807D01*
X96217503Y-56177503D01*
X96466807Y-55873725D01*
X96652057Y-55527147D01*
X96766133Y-55151087D01*
X96795000Y-54857997D01*
X96795000Y-54142002D01*
X96766133Y-53848912D01*
X96652057Y-53472853D01*
X96466807Y-53126275D01*
X96217503Y-52822497D01*
X95913725Y-52573193D01*
X95567146Y-52387943D01*
X95191087Y-52273867D01*
X94800000Y-52235348D01*
X94408912Y-52273867D01*
X94032853Y-52387943D01*
X93686275Y-52573193D01*
X93382497Y-52822497D01*
X93133193Y-53126275D01*
X92947943Y-53472854D01*
X92833867Y-53848913D01*
X92805000Y-54142003D01*
X87195000Y-54142003D01*
X87195000Y-54142002D01*
X87166133Y-53848912D01*
X87052057Y-53472853D01*
X86866807Y-53126275D01*
X86617503Y-52822497D01*
X86313725Y-52573193D01*
X85967146Y-52387943D01*
X85591087Y-52273867D01*
X85200000Y-52235348D01*
X84808912Y-52273867D01*
X84432853Y-52387943D01*
X84086275Y-52573193D01*
X83782497Y-52822497D01*
X83533193Y-53126275D01*
X83347943Y-53472854D01*
X83233867Y-53848913D01*
X83205000Y-54142003D01*
X78032719Y-54142003D01*
X78134670Y-53895872D01*
X78200000Y-53567435D01*
X78200000Y-53232565D01*
X78134670Y-52904128D01*
X78006521Y-52594748D01*
X77820477Y-52316313D01*
X77583687Y-52079523D01*
X77305252Y-51893479D01*
X76995872Y-51765330D01*
X76667435Y-51700000D01*
X76332565Y-51700000D01*
X76004128Y-51765330D01*
X75694748Y-51893479D01*
X75416313Y-52079523D01*
X75179523Y-52316313D01*
X74993479Y-52594748D01*
X74865330Y-52904128D01*
X74800000Y-53232565D01*
X70685000Y-53232565D01*
X70685000Y-48064080D01*
X86615525Y-48064080D01*
X86699208Y-48318261D01*
X86971775Y-48449158D01*
X87264642Y-48524365D01*
X87566553Y-48540991D01*
X87865907Y-48498397D01*
X88151199Y-48398222D01*
X88300792Y-48318261D01*
X88384475Y-48064080D01*
X87500000Y-47179605D01*
X86615525Y-48064080D01*
X70685000Y-48064080D01*
X70685000Y-47066553D01*
X85959009Y-47066553D01*
X86001603Y-47365907D01*
X86101778Y-47651199D01*
X86181739Y-47800792D01*
X86435920Y-47884475D01*
X87320395Y-47000000D01*
X87679605Y-47000000D01*
X88564080Y-47884475D01*
X88712262Y-47835690D01*
X88807688Y-47978505D01*
X89021495Y-48192312D01*
X89272905Y-48360299D01*
X89552257Y-48476011D01*
X89848816Y-48535000D01*
X90151184Y-48535000D01*
X90447743Y-48476011D01*
X90727095Y-48360299D01*
X90978505Y-48192312D01*
X91016120Y-48154697D01*
X91069463Y-48254494D01*
X91148815Y-48351185D01*
X91245506Y-48430537D01*
X91355820Y-48489502D01*
X91475518Y-48525812D01*
X91600000Y-48538072D01*
X93400000Y-48538072D01*
X93524482Y-48525812D01*
X93644180Y-48489502D01*
X93754494Y-48430537D01*
X93851185Y-48351185D01*
X93930537Y-48254494D01*
X93989502Y-48144180D01*
X94025812Y-48024482D01*
X94038072Y-47900000D01*
X94038072Y-46100000D01*
X94025812Y-45975518D01*
X93989502Y-45855820D01*
X93930537Y-45745506D01*
X93851185Y-45648815D01*
X93754494Y-45569463D01*
X93644180Y-45510498D01*
X93524482Y-45474188D01*
X93400000Y-45461928D01*
X91600000Y-45461928D01*
X91475518Y-45474188D01*
X91355820Y-45510498D01*
X91245506Y-45569463D01*
X91148815Y-45648815D01*
X91069463Y-45745506D01*
X91016120Y-45845303D01*
X90978505Y-45807688D01*
X90727095Y-45639701D01*
X90447743Y-45523989D01*
X90151184Y-45465000D01*
X89848816Y-45465000D01*
X89552257Y-45523989D01*
X89272905Y-45639701D01*
X89021495Y-45807688D01*
X88807688Y-46021495D01*
X88712262Y-46164310D01*
X88564080Y-46115525D01*
X87679605Y-47000000D01*
X87320395Y-47000000D01*
X86435920Y-46115525D01*
X86181739Y-46199208D01*
X86050842Y-46471775D01*
X85975635Y-46764642D01*
X85959009Y-47066553D01*
X70685000Y-47066553D01*
X70685000Y-44932565D01*
X74800000Y-44932565D01*
X74800000Y-45267435D01*
X74865330Y-45595872D01*
X74993479Y-45905252D01*
X75179523Y-46183687D01*
X75416313Y-46420477D01*
X75694748Y-46606521D01*
X76004128Y-46734670D01*
X76332565Y-46800000D01*
X76667435Y-46800000D01*
X76995872Y-46734670D01*
X77305252Y-46606521D01*
X77583687Y-46420477D01*
X77820477Y-46183687D01*
X77986029Y-45935920D01*
X86615525Y-45935920D01*
X87500000Y-46820395D01*
X88384475Y-45935920D01*
X88300792Y-45681739D01*
X88028225Y-45550842D01*
X87735358Y-45475635D01*
X87433447Y-45459009D01*
X87134093Y-45501603D01*
X86848801Y-45601778D01*
X86699208Y-45681739D01*
X86615525Y-45935920D01*
X77986029Y-45935920D01*
X78006521Y-45905252D01*
X78134670Y-45595872D01*
X78200000Y-45267435D01*
X78200000Y-44932565D01*
X78134670Y-44604128D01*
X78006521Y-44294748D01*
X77820477Y-44016313D01*
X77583687Y-43779523D01*
X77305252Y-43593479D01*
X76995872Y-43465330D01*
X76667435Y-43400000D01*
X76332565Y-43400000D01*
X76004128Y-43465330D01*
X75694748Y-43593479D01*
X75416313Y-43779523D01*
X75179523Y-44016313D01*
X74993479Y-44294748D01*
X74865330Y-44604128D01*
X74800000Y-44932565D01*
X70685000Y-44932565D01*
X70685000Y-41524514D01*
X85025000Y-41524514D01*
X85025000Y-41787486D01*
X85076304Y-42045405D01*
X85176939Y-42288359D01*
X85323038Y-42507013D01*
X85508987Y-42692962D01*
X85727641Y-42839061D01*
X85970595Y-42939696D01*
X86228514Y-42991000D01*
X86491486Y-42991000D01*
X86749405Y-42939696D01*
X86992359Y-42839061D01*
X87211013Y-42692962D01*
X87396962Y-42507013D01*
X87543061Y-42288359D01*
X87643696Y-42045405D01*
X87695000Y-41787486D01*
X87695000Y-41524514D01*
X92645000Y-41524514D01*
X92645000Y-41787486D01*
X92696304Y-42045405D01*
X92796939Y-42288359D01*
X92943038Y-42507013D01*
X93128987Y-42692962D01*
X93347641Y-42839061D01*
X93590595Y-42939696D01*
X93848514Y-42991000D01*
X94111486Y-42991000D01*
X94369405Y-42939696D01*
X94612359Y-42839061D01*
X94831013Y-42692962D01*
X95016962Y-42507013D01*
X95163061Y-42288359D01*
X95263696Y-42045405D01*
X95315000Y-41787486D01*
X95315000Y-41524514D01*
X95263696Y-41266595D01*
X95163061Y-41023641D01*
X95016962Y-40804987D01*
X94831013Y-40619038D01*
X94612359Y-40472939D01*
X94369405Y-40372304D01*
X94111486Y-40321000D01*
X93848514Y-40321000D01*
X93590595Y-40372304D01*
X93347641Y-40472939D01*
X93128987Y-40619038D01*
X92943038Y-40804987D01*
X92796939Y-41023641D01*
X92696304Y-41266595D01*
X92645000Y-41524514D01*
X87695000Y-41524514D01*
X87643696Y-41266595D01*
X87543061Y-41023641D01*
X87396962Y-40804987D01*
X87211013Y-40619038D01*
X86992359Y-40472939D01*
X86749405Y-40372304D01*
X86491486Y-40321000D01*
X86228514Y-40321000D01*
X85970595Y-40372304D01*
X85727641Y-40472939D01*
X85508987Y-40619038D01*
X85323038Y-40804987D01*
X85176939Y-41023641D01*
X85076304Y-41266595D01*
X85025000Y-41524514D01*
X70685000Y-41524514D01*
X70685000Y-35415000D01*
X74896928Y-35415000D01*
X74909188Y-35539482D01*
X74945498Y-35659180D01*
X75004463Y-35769494D01*
X75083815Y-35866185D01*
X75180506Y-35945537D01*
X75290820Y-36004502D01*
X75410518Y-36040812D01*
X75535000Y-36053072D01*
X76214250Y-36050000D01*
X76373000Y-35891250D01*
X76373000Y-34627000D01*
X76627000Y-34627000D01*
X76627000Y-35891250D01*
X76785750Y-36050000D01*
X77465000Y-36053072D01*
X77589482Y-36040812D01*
X77709180Y-36004502D01*
X77819494Y-35945537D01*
X77916185Y-35866185D01*
X77995537Y-35769494D01*
X78054502Y-35659180D01*
X78090812Y-35539482D01*
X78103072Y-35415000D01*
X78100000Y-34785750D01*
X77941250Y-34627000D01*
X76627000Y-34627000D01*
X76373000Y-34627000D01*
X75058750Y-34627000D01*
X74900000Y-34785750D01*
X74896928Y-35415000D01*
X70685000Y-35415000D01*
X70685000Y-31232565D01*
X74800000Y-31232565D01*
X74800000Y-31567435D01*
X74865330Y-31895872D01*
X74993479Y-32205252D01*
X75179523Y-32483687D01*
X75416313Y-32720477D01*
X75694748Y-32906521D01*
X75795140Y-32948105D01*
X75535000Y-32946928D01*
X75410518Y-32959188D01*
X75290820Y-32995498D01*
X75180506Y-33054463D01*
X75083815Y-33133815D01*
X75004463Y-33230506D01*
X74945498Y-33340820D01*
X74909188Y-33460518D01*
X74896928Y-33585000D01*
X74900000Y-34214250D01*
X75058750Y-34373000D01*
X76373000Y-34373000D01*
X76373000Y-34353000D01*
X76627000Y-34353000D01*
X76627000Y-34373000D01*
X77941250Y-34373000D01*
X78100000Y-34214250D01*
X78103072Y-33585000D01*
X78090812Y-33460518D01*
X78054502Y-33340820D01*
X77995537Y-33230506D01*
X77916185Y-33133815D01*
X77819494Y-33054463D01*
X77709180Y-32995498D01*
X77589482Y-32959188D01*
X77465000Y-32946928D01*
X77204860Y-32948105D01*
X77305252Y-32906521D01*
X77583687Y-32720477D01*
X77820477Y-32483687D01*
X78006521Y-32205252D01*
X78032719Y-32142003D01*
X83205000Y-32142003D01*
X83205000Y-32857998D01*
X83233867Y-33151088D01*
X83347943Y-33527147D01*
X83533193Y-33873725D01*
X83782498Y-34177503D01*
X84086276Y-34426807D01*
X84432854Y-34612057D01*
X84808913Y-34726133D01*
X85200000Y-34764652D01*
X85591088Y-34726133D01*
X85967147Y-34612057D01*
X86313725Y-34426807D01*
X86617503Y-34177503D01*
X86866807Y-33873725D01*
X87052057Y-33527147D01*
X87166133Y-33151087D01*
X87195000Y-32857997D01*
X87195000Y-32142003D01*
X92805000Y-32142003D01*
X92805000Y-32857998D01*
X92833867Y-33151088D01*
X92947943Y-33527147D01*
X93133193Y-33873725D01*
X93382498Y-34177503D01*
X93686276Y-34426807D01*
X94032854Y-34612057D01*
X94408913Y-34726133D01*
X94800000Y-34764652D01*
X95191088Y-34726133D01*
X95567147Y-34612057D01*
X95913725Y-34426807D01*
X96217503Y-34177503D01*
X96466807Y-33873725D01*
X96652057Y-33527147D01*
X96766133Y-33151087D01*
X96795000Y-32857997D01*
X96795000Y-32142002D01*
X96766133Y-31848912D01*
X96652057Y-31472853D01*
X96466807Y-31126275D01*
X96217503Y-30822497D01*
X95913725Y-30573193D01*
X95567146Y-30387943D01*
X95191087Y-30273867D01*
X94800000Y-30235348D01*
X94408912Y-30273867D01*
X94032853Y-30387943D01*
X93686275Y-30573193D01*
X93382497Y-30822497D01*
X93133193Y-31126275D01*
X92947943Y-31472854D01*
X92833867Y-31848913D01*
X92805000Y-32142003D01*
X87195000Y-32142003D01*
X87195000Y-32142002D01*
X87166133Y-31848912D01*
X87052057Y-31472853D01*
X86866807Y-31126275D01*
X86617503Y-30822497D01*
X86313725Y-30573193D01*
X85967146Y-30387943D01*
X85591087Y-30273867D01*
X85200000Y-30235348D01*
X84808912Y-30273867D01*
X84432853Y-30387943D01*
X84086275Y-30573193D01*
X83782497Y-30822497D01*
X83533193Y-31126275D01*
X83347943Y-31472854D01*
X83233867Y-31848913D01*
X83205000Y-32142003D01*
X78032719Y-32142003D01*
X78134670Y-31895872D01*
X78200000Y-31567435D01*
X78200000Y-31232565D01*
X78134670Y-30904128D01*
X78006521Y-30594748D01*
X77820477Y-30316313D01*
X77583687Y-30079523D01*
X77305252Y-29893479D01*
X76995872Y-29765330D01*
X76667435Y-29700000D01*
X76332565Y-29700000D01*
X76004128Y-29765330D01*
X75694748Y-29893479D01*
X75416313Y-30079523D01*
X75179523Y-30316313D01*
X74993479Y-30594748D01*
X74865330Y-30904128D01*
X74800000Y-31232565D01*
X70685000Y-31232565D01*
X70685000Y-26064080D01*
X86615525Y-26064080D01*
X86699208Y-26318261D01*
X86971775Y-26449158D01*
X87264642Y-26524365D01*
X87566553Y-26540991D01*
X87865907Y-26498397D01*
X88151199Y-26398222D01*
X88300792Y-26318261D01*
X88384475Y-26064080D01*
X87500000Y-25179605D01*
X86615525Y-26064080D01*
X70685000Y-26064080D01*
X70685000Y-25066553D01*
X85959009Y-25066553D01*
X86001603Y-25365907D01*
X86101778Y-25651199D01*
X86181739Y-25800792D01*
X86435920Y-25884475D01*
X87320395Y-25000000D01*
X87679605Y-25000000D01*
X88564080Y-25884475D01*
X88712262Y-25835690D01*
X88807688Y-25978505D01*
X89021495Y-26192312D01*
X89272905Y-26360299D01*
X89552257Y-26476011D01*
X89848816Y-26535000D01*
X90151184Y-26535000D01*
X90447743Y-26476011D01*
X90727095Y-26360299D01*
X90978505Y-26192312D01*
X91016120Y-26154697D01*
X91069463Y-26254494D01*
X91148815Y-26351185D01*
X91245506Y-26430537D01*
X91355820Y-26489502D01*
X91475518Y-26525812D01*
X91600000Y-26538072D01*
X93400000Y-26538072D01*
X93524482Y-26525812D01*
X93644180Y-26489502D01*
X93754494Y-26430537D01*
X93851185Y-26351185D01*
X93930537Y-26254494D01*
X93989502Y-26144180D01*
X94025812Y-26024482D01*
X94038072Y-25900000D01*
X94038072Y-24100000D01*
X94025812Y-23975518D01*
X93989502Y-23855820D01*
X93930537Y-23745506D01*
X93851185Y-23648815D01*
X93754494Y-23569463D01*
X93644180Y-23510498D01*
X93524482Y-23474188D01*
X93400000Y-23461928D01*
X91600000Y-23461928D01*
X91475518Y-23474188D01*
X91355820Y-23510498D01*
X91245506Y-23569463D01*
X91148815Y-23648815D01*
X91069463Y-23745506D01*
X91016120Y-23845303D01*
X90978505Y-23807688D01*
X90727095Y-23639701D01*
X90447743Y-23523989D01*
X90151184Y-23465000D01*
X89848816Y-23465000D01*
X89552257Y-23523989D01*
X89272905Y-23639701D01*
X89021495Y-23807688D01*
X88807688Y-24021495D01*
X88712262Y-24164310D01*
X88564080Y-24115525D01*
X87679605Y-25000000D01*
X87320395Y-25000000D01*
X86435920Y-24115525D01*
X86181739Y-24199208D01*
X86050842Y-24471775D01*
X85975635Y-24764642D01*
X85959009Y-25066553D01*
X70685000Y-25066553D01*
X70685000Y-22932565D01*
X74800000Y-22932565D01*
X74800000Y-23267435D01*
X74865330Y-23595872D01*
X74993479Y-23905252D01*
X75179523Y-24183687D01*
X75416313Y-24420477D01*
X75694748Y-24606521D01*
X76004128Y-24734670D01*
X76332565Y-24800000D01*
X76667435Y-24800000D01*
X76995872Y-24734670D01*
X77305252Y-24606521D01*
X77583687Y-24420477D01*
X77820477Y-24183687D01*
X77986029Y-23935920D01*
X86615525Y-23935920D01*
X87500000Y-24820395D01*
X88384475Y-23935920D01*
X88300792Y-23681739D01*
X88028225Y-23550842D01*
X87735358Y-23475635D01*
X87433447Y-23459009D01*
X87134093Y-23501603D01*
X86848801Y-23601778D01*
X86699208Y-23681739D01*
X86615525Y-23935920D01*
X77986029Y-23935920D01*
X78006521Y-23905252D01*
X78134670Y-23595872D01*
X78200000Y-23267435D01*
X78200000Y-22932565D01*
X78134670Y-22604128D01*
X78006521Y-22294748D01*
X77820477Y-22016313D01*
X77583687Y-21779523D01*
X77305252Y-21593479D01*
X76995872Y-21465330D01*
X76667435Y-21400000D01*
X76332565Y-21400000D01*
X76004128Y-21465330D01*
X75694748Y-21593479D01*
X75416313Y-21779523D01*
X75179523Y-22016313D01*
X74993479Y-22294748D01*
X74865330Y-22604128D01*
X74800000Y-22932565D01*
X70685000Y-22932565D01*
X70685000Y-20685000D01*
X85691631Y-20685000D01*
X85508987Y-20807038D01*
M02*
