G04 #@! TF.GenerationSoftware,KiCad,Pcbnew,(5.1.6-0-10_14)*
G04 #@! TF.CreationDate,2020-07-27T13:54:38+02:00*
G04 #@! TF.ProjectId,HelloWorld-noPanel,48656c6c-6f57-46f7-926c-642d6e6f5061,rev?*
G04 #@! TF.SameCoordinates,Original*
G04 #@! TF.FileFunction,Copper,L1,Top*
G04 #@! TF.FilePolarity,Positive*
%FSLAX46Y46*%
G04 Gerber Fmt 4.6, Leading zero omitted, Abs format (unit mm)*
G04 Created by KiCad (PCBNEW (5.1.6-0-10_14)) date 2020-07-27 13:54:38*
%MOMM*%
%LPD*%
G01*
G04 APERTURE LIST*
G04 #@! TA.AperFunction,ComponentPad*
%ADD10O,1.600000X1.600000*%
G04 #@! TD*
G04 #@! TA.AperFunction,ComponentPad*
%ADD11R,1.600000X1.600000*%
G04 #@! TD*
G04 #@! TA.AperFunction,ComponentPad*
%ADD12C,1.600000*%
G04 #@! TD*
G04 #@! TA.AperFunction,ComponentPad*
%ADD13C,2.130000*%
G04 #@! TD*
G04 #@! TA.AperFunction,ComponentPad*
%ADD14R,1.930000X1.830000*%
G04 #@! TD*
G04 #@! TA.AperFunction,ComponentPad*
%ADD15O,1.700000X1.700000*%
G04 #@! TD*
G04 #@! TA.AperFunction,ComponentPad*
%ADD16R,1.700000X1.700000*%
G04 #@! TD*
G04 #@! TA.AperFunction,ComponentPad*
%ADD17O,1.400000X1.400000*%
G04 #@! TD*
G04 #@! TA.AperFunction,ComponentPad*
%ADD18C,1.400000*%
G04 #@! TD*
G04 #@! TA.AperFunction,ComponentPad*
%ADD19O,2.720000X3.240000*%
G04 #@! TD*
G04 #@! TA.AperFunction,ComponentPad*
%ADD20C,1.800000*%
G04 #@! TD*
G04 #@! TA.AperFunction,ComponentPad*
%ADD21R,1.800000X1.800000*%
G04 #@! TD*
G04 #@! TA.AperFunction,ViaPad*
%ADD22C,0.800000*%
G04 #@! TD*
G04 #@! TA.AperFunction,Conductor*
%ADD23C,0.600000*%
G04 #@! TD*
G04 APERTURE END LIST*
D10*
X87376000Y-84836000D03*
X77216000Y-92456000D03*
X87376000Y-87376000D03*
X77216000Y-89916000D03*
X87376000Y-89916000D03*
X77216000Y-87376000D03*
X87376000Y-92456000D03*
D11*
X77216000Y-84836000D03*
D12*
X94488000Y-87336000D03*
X94488000Y-84836000D03*
X80812000Y-96012000D03*
X83312000Y-96012000D03*
X73152000Y-87336000D03*
X73152000Y-84836000D03*
X94488000Y-92416000D03*
X94488000Y-89916000D03*
D13*
X76500000Y-23100000D03*
D14*
X76500000Y-34500000D03*
D13*
X76500000Y-31400000D03*
X76500000Y-45100000D03*
D14*
X76500000Y-56500000D03*
D13*
X76500000Y-53400000D03*
X76500000Y-67100000D03*
D14*
X76500000Y-78500000D03*
D13*
X76500000Y-75400000D03*
D15*
X95540000Y-125660000D03*
X93000000Y-125660000D03*
X95540000Y-123120000D03*
X93000000Y-123120000D03*
X95540000Y-120580000D03*
X93000000Y-120580000D03*
X95540000Y-118040000D03*
X93000000Y-118040000D03*
X95540000Y-115500000D03*
D16*
X93000000Y-115500000D03*
D13*
X76500000Y-125900000D03*
D14*
X76500000Y-114500000D03*
D13*
X76500000Y-117600000D03*
D17*
X86360000Y-21844000D03*
D18*
X93980000Y-21844000D03*
D17*
X86360000Y-41656000D03*
D18*
X93980000Y-41656000D03*
D17*
X86360000Y-64008000D03*
D18*
X93980000Y-64008000D03*
D17*
X85344000Y-109220000D03*
D18*
X85344000Y-101600000D03*
D17*
X90424000Y-92456000D03*
D18*
X90424000Y-84836000D03*
D17*
X90250000Y-101630000D03*
D18*
X90250000Y-109250000D03*
D19*
X94800000Y-32500000D03*
X85200000Y-32500000D03*
D20*
X87500000Y-25000000D03*
X90000000Y-25000000D03*
D21*
X92500000Y-25000000D03*
D19*
X94800000Y-54500000D03*
X85200000Y-54500000D03*
D20*
X87500000Y-47000000D03*
X90000000Y-47000000D03*
D21*
X92500000Y-47000000D03*
D19*
X94800000Y-76500000D03*
X85200000Y-76500000D03*
D20*
X87500000Y-69000000D03*
X90000000Y-69000000D03*
D21*
X92500000Y-69000000D03*
D19*
X81300000Y-107000000D03*
X71700000Y-107000000D03*
D20*
X74000000Y-99500000D03*
X76500000Y-99500000D03*
D21*
X79000000Y-99500000D03*
D22*
X85500000Y-98250000D03*
D23*
X95540000Y-115500000D02*
X93000000Y-115500000D01*
X95613001Y-85961001D02*
X94488000Y-84836000D01*
X95540000Y-115500000D02*
X95613001Y-115426999D01*
X96500000Y-86848000D02*
X95613001Y-85961001D01*
X96500000Y-114540000D02*
X96500000Y-86848000D01*
X95613001Y-115426999D02*
X96500000Y-114540000D01*
X89212000Y-83000000D02*
X87376000Y-84836000D01*
X92652000Y-83000000D02*
X89212000Y-83000000D01*
X94488000Y-84836000D02*
X92652000Y-83000000D01*
X77176000Y-92416000D02*
X77216000Y-92456000D01*
X95540000Y-125660000D02*
X93000000Y-125660000D01*
X77256000Y-92456000D02*
X77216000Y-92456000D01*
X80812000Y-96012000D02*
X77256000Y-92456000D01*
X93000000Y-125660000D02*
X91824999Y-124484999D01*
X82296000Y-97496000D02*
X80812000Y-96012000D01*
X82296000Y-101092000D02*
X82296000Y-97496000D01*
X86704000Y-105500000D02*
X82296000Y-101092000D01*
X90000000Y-105500000D02*
X86704000Y-105500000D01*
X92000000Y-107500000D02*
X90000000Y-105500000D01*
X92000000Y-107500000D02*
X92000000Y-111000000D01*
X92000000Y-111000000D02*
X90250000Y-112750000D01*
X90250000Y-122910000D02*
X91824999Y-124484999D01*
X90250000Y-112750000D02*
X90250000Y-122910000D01*
X77216000Y-84836000D02*
X72644000Y-84836000D01*
X72344000Y-101808000D02*
X76500000Y-101808000D01*
X73478998Y-84836000D02*
X71068989Y-87246009D01*
X77216000Y-84836000D02*
X73478998Y-84836000D01*
X71068989Y-87246009D02*
X71068989Y-100532989D01*
X71068989Y-100532989D02*
X72344000Y-101808000D01*
X76500000Y-99500000D02*
X76500000Y-101808000D01*
X76500000Y-106472000D02*
X80010000Y-109982000D01*
X76500000Y-101808000D02*
X76500000Y-106472000D01*
X84582000Y-109982000D02*
X85344000Y-109220000D01*
X80010000Y-109982000D02*
X84582000Y-109982000D01*
X77176000Y-87336000D02*
X77216000Y-87376000D01*
X72644000Y-87336000D02*
X77176000Y-87336000D01*
X93725001Y-64262999D02*
X93980000Y-64008000D01*
X94996000Y-42672000D02*
X93980000Y-41656000D01*
X90932000Y-53340000D02*
X94996000Y-49276000D01*
X94996000Y-49276000D02*
X94996000Y-42672000D01*
X90932000Y-60960000D02*
X90932000Y-53340000D01*
X93980000Y-64008000D02*
X90932000Y-60960000D01*
X94996000Y-27432000D02*
X94996000Y-22860000D01*
X91440000Y-39116000D02*
X91440000Y-30988000D01*
X94996000Y-22860000D02*
X93980000Y-21844000D01*
X91440000Y-30988000D02*
X94996000Y-27432000D01*
X93980000Y-41656000D02*
X91440000Y-39116000D01*
X73152000Y-98652000D02*
X74000000Y-99500000D01*
X73152000Y-87336000D02*
X73152000Y-98652000D01*
X83312000Y-81280000D02*
X77216000Y-87376000D01*
X89916000Y-77834000D02*
X86470000Y-81280000D01*
X93980000Y-64008000D02*
X94488000Y-64516000D01*
X89916000Y-74676000D02*
X89916000Y-77834000D01*
X94488000Y-70104000D02*
X89916000Y-74676000D01*
X86470000Y-81280000D02*
X83312000Y-81280000D01*
X94488000Y-64516000D02*
X94488000Y-70104000D01*
X89916000Y-92456000D02*
X90424000Y-92456000D01*
X87376000Y-89916000D02*
X89916000Y-92456000D01*
X94448000Y-92456000D02*
X94488000Y-92416000D01*
X90424000Y-92456000D02*
X94448000Y-92456000D01*
X90424000Y-96520000D02*
X85344000Y-101600000D01*
X90424000Y-92456000D02*
X90424000Y-96520000D01*
X89916000Y-84836000D02*
X90424000Y-84836000D01*
X94488000Y-89916000D02*
X92964000Y-89916000D01*
X90424000Y-87376000D02*
X87376000Y-87376000D01*
X92964000Y-89916000D02*
X90424000Y-87376000D01*
X90424000Y-84836000D02*
X90424000Y-87376000D01*
X87376000Y-87376000D02*
X85500000Y-89252000D01*
X85500000Y-89252000D02*
X85500000Y-98250000D01*
X79625001Y-26225001D02*
X76500000Y-23100000D01*
X91500000Y-27250000D02*
X80650000Y-27250000D01*
X92500000Y-26250000D02*
X91500000Y-27250000D01*
X80650000Y-27250000D02*
X79625001Y-26225001D01*
X92500000Y-25000000D02*
X92500000Y-26250000D01*
X92500000Y-47000000D02*
X92500000Y-46780000D01*
X79625001Y-48225001D02*
X76500000Y-45100000D01*
X80676000Y-49276000D02*
X79625001Y-48225001D01*
X91474000Y-49276000D02*
X80676000Y-49276000D01*
X92500000Y-48250000D02*
X91474000Y-49276000D01*
X92500000Y-47000000D02*
X92500000Y-48250000D01*
X92500000Y-69522000D02*
X90902000Y-71120000D01*
X80520000Y-71120000D02*
X76500000Y-67100000D01*
X90902000Y-71120000D02*
X80520000Y-71120000D01*
X92500000Y-69000000D02*
X92500000Y-69522000D01*
X76500000Y-125900000D02*
X84600000Y-125900000D01*
X84600000Y-125900000D02*
X87750000Y-122750000D01*
X87750000Y-111750000D02*
X90250000Y-109250000D01*
X87750000Y-122750000D02*
X87750000Y-111750000D01*
X86844000Y-21844000D02*
X86360000Y-21844000D01*
X90000000Y-25000000D02*
X86844000Y-21844000D01*
X90000000Y-45296000D02*
X86360000Y-41656000D01*
X90000000Y-47000000D02*
X90000000Y-45296000D01*
X90000000Y-67648000D02*
X86360000Y-64008000D01*
X90000000Y-69000000D02*
X90000000Y-67648000D01*
X79000000Y-99500000D02*
X79180000Y-99500000D01*
M02*
