G04 #@! TF.GenerationSoftware,KiCad,Pcbnew,(5.1.6-0-10_14)*
G04 #@! TF.CreationDate,2020-07-27T13:35:09+02:00*
G04 #@! TF.ProjectId,HelloWorld,48656c6c-6f57-46f7-926c-642e6b696361,rev?*
G04 #@! TF.SameCoordinates,Original*
G04 #@! TF.FileFunction,Soldermask,Bot*
G04 #@! TF.FilePolarity,Negative*
%FSLAX46Y46*%
G04 Gerber Fmt 4.6, Leading zero omitted, Abs format (unit mm)*
G04 Created by KiCad (PCBNEW (5.1.6-0-10_14)) date 2020-07-27 13:35:09*
%MOMM*%
%LPD*%
G01*
G04 APERTURE LIST*
%ADD10C,0.500000*%
%ADD11C,8.500000*%
%ADD12C,7.700000*%
%ADD13O,6.900000X3.700000*%
%ADD14O,1.600000X1.600000*%
%ADD15R,1.600000X1.600000*%
%ADD16C,1.600000*%
%ADD17C,2.130000*%
%ADD18R,1.930000X1.830000*%
%ADD19O,1.700000X1.700000*%
%ADD20R,1.700000X1.700000*%
%ADD21O,1.400000X1.400000*%
%ADD22C,1.400000*%
%ADD23O,2.720000X3.240000*%
%ADD24C,1.800000*%
%ADD25R,1.800000X1.800000*%
G04 APERTURE END LIST*
D10*
X99750000Y-107250000D03*
X99750000Y-108750000D03*
X98250000Y-108750000D03*
X98250000Y-107250000D03*
X99750000Y-108000000D03*
X98250000Y-108000000D03*
X99750000Y-40750000D03*
X99750000Y-42250000D03*
X98250000Y-42250000D03*
X98250000Y-40750000D03*
X99750000Y-41500000D03*
X98250000Y-41500000D03*
D11*
X107500000Y-117250000D03*
D12*
X107500000Y-131250000D03*
X107500000Y-82750000D03*
X107500000Y-60750000D03*
X107500000Y-38750000D03*
D11*
X121000000Y-86750000D03*
X121000000Y-64750000D03*
X121000000Y-42750000D03*
D13*
X109100000Y-23000000D03*
X109100000Y-145500000D03*
D14*
X87376000Y-84836000D03*
X77216000Y-92456000D03*
X87376000Y-87376000D03*
X77216000Y-89916000D03*
X87376000Y-89916000D03*
X77216000Y-87376000D03*
X87376000Y-92456000D03*
D15*
X77216000Y-84836000D03*
D16*
X94488000Y-87336000D03*
X94488000Y-84836000D03*
X80812000Y-96012000D03*
X83312000Y-96012000D03*
X73152000Y-87336000D03*
X73152000Y-84836000D03*
X94488000Y-92416000D03*
X94488000Y-89916000D03*
D17*
X76500000Y-23100000D03*
D18*
X76500000Y-34500000D03*
D17*
X76500000Y-31400000D03*
X76500000Y-45100000D03*
D18*
X76500000Y-56500000D03*
D17*
X76500000Y-53400000D03*
X76500000Y-67100000D03*
D18*
X76500000Y-78500000D03*
D17*
X76500000Y-75400000D03*
D19*
X95540000Y-125660000D03*
X93000000Y-125660000D03*
X95540000Y-123120000D03*
X93000000Y-123120000D03*
X95540000Y-120580000D03*
X93000000Y-120580000D03*
X95540000Y-118040000D03*
X93000000Y-118040000D03*
X95540000Y-115500000D03*
D20*
X93000000Y-115500000D03*
D17*
X76500000Y-125900000D03*
D18*
X76500000Y-114500000D03*
D17*
X76500000Y-117600000D03*
D21*
X86360000Y-21844000D03*
D22*
X93980000Y-21844000D03*
D21*
X86360000Y-41656000D03*
D22*
X93980000Y-41656000D03*
D21*
X86360000Y-64008000D03*
D22*
X93980000Y-64008000D03*
D21*
X85344000Y-109220000D03*
D22*
X85344000Y-101600000D03*
D21*
X90424000Y-92456000D03*
D22*
X90424000Y-84836000D03*
D21*
X90250000Y-101630000D03*
D22*
X90250000Y-109250000D03*
D23*
X94800000Y-32500000D03*
X85200000Y-32500000D03*
D24*
X87500000Y-25000000D03*
X90000000Y-25000000D03*
D25*
X92500000Y-25000000D03*
D23*
X94800000Y-54500000D03*
X85200000Y-54500000D03*
D24*
X87500000Y-47000000D03*
X90000000Y-47000000D03*
D25*
X92500000Y-47000000D03*
D23*
X94800000Y-76500000D03*
X85200000Y-76500000D03*
D24*
X87500000Y-69000000D03*
X90000000Y-69000000D03*
D25*
X92500000Y-69000000D03*
D23*
X81300000Y-107000000D03*
X71700000Y-107000000D03*
D24*
X74000000Y-99500000D03*
X76500000Y-99500000D03*
D25*
X79000000Y-99500000D03*
M02*
