M48
; DRILL file {KiCad (5.1.6-0-10_14)} date Monday, July 27, 2020 at 01:35:33 PM
; FORMAT={-:-/ absolute / inch / decimal}
; #@! TF.CreationDate,2020-07-27T13:35:33+02:00
; #@! TF.GenerationSoftware,Kicad,Pcbnew,(5.1.6-0-10_14)
; #@! TF.FileFunction,Plated,1,2,PTH
FMAT,2
INCH
T1C0.0157
T2C0.0276
T3C0.0315
T4C0.0394
T5C0.0433
T6C0.0480
T7C0.0559
T8C0.0563
T9C0.1260
T10C0.2441
T11C0.2795
%
G90
G05
T1
X3.3661Y-3.8681
T2
X3.4Y-1.64
X3.5531Y-4.0012
X3.5531Y-4.3012
X3.4Y-0.86
X3.7Y-0.86
X3.4Y-2.52
X3.7Y-2.52
X3.56Y-3.34
X3.56Y-3.64
X3.36Y-4.0
X3.36Y-4.3
X3.7Y-1.64
T3
X3.72Y-3.54
X3.72Y-3.6384
X3.1816Y-3.78
X3.28Y-3.78
X3.72Y-3.34
X3.72Y-3.4384
X3.04Y-3.34
X3.04Y-3.44
X3.04Y-3.54
X3.04Y-3.64
X3.44Y-3.34
X3.44Y-3.44
X3.44Y-3.54
X3.44Y-3.64
X2.88Y-3.34
X2.88Y-3.4384
T4
X3.4449Y-0.9843
X3.5433Y-0.9843
X3.6417Y-0.9843
X3.6614Y-4.5472
X3.6614Y-4.6472
X3.6614Y-4.7472
X3.6614Y-4.8472
X3.6614Y-4.9472
X3.7614Y-4.5472
X3.7614Y-4.6472
X3.7614Y-4.7472
X3.7614Y-4.8472
X3.7614Y-4.9472
X2.9134Y-3.9173
X3.0118Y-3.9173
X3.1102Y-3.9173
X3.4449Y-2.7165
X3.5433Y-2.7165
X3.6417Y-2.7165
X3.4449Y-1.8504
X3.5433Y-1.8504
X3.6417Y-1.8504
T6
X3.0118Y-1.3583
X3.0118Y-2.2244
X3.0118Y-4.5079
X3.0118Y-3.0906
T7
X3.0118Y-1.2362
X3.0118Y-2.1024
X3.0118Y-4.6299
X3.0118Y-2.9685
T8
X3.0118Y-0.9094
X3.0118Y-1.7756
X3.0118Y-4.9567
X3.0118Y-2.6417
T10
X4.2323Y-5.1673
X4.2323Y-1.5256
X4.2323Y-3.2579
X4.2323Y-2.3917
T11
X4.2323Y-4.6161
X4.7638Y-2.5492
X4.7638Y-3.4154
X4.7638Y-1.6831
T5
G00X3.3543Y-1.2657
M15
G01X3.3543Y-1.2933
M16
G05
G00X3.7323Y-1.2657
M15
G01X3.7323Y-1.2933
M16
G05
G00X2.8228Y-4.1988
M15
G01X2.8228Y-4.2264
M16
G05
G00X3.2008Y-4.1988
M15
G01X3.2008Y-4.2264
M16
G05
G00X3.3543Y-2.998
M15
G01X3.3543Y-3.0256
M16
G05
G00X3.7323Y-2.998
M15
G01X3.7323Y-3.0256
M16
G05
G00X3.3543Y-2.1319
M15
G01X3.3543Y-2.1594
M16
G05
G00X3.7323Y-2.1319
M15
G01X3.7323Y-2.1594
M16
G05
T9
G00X4.2323Y-5.7283
M15
G01X4.3583Y-5.7283
M16
G05
G00X4.2323Y-0.9055
M15
G01X4.3583Y-0.9055
M16
G05
T0
M30
