G04 #@! TF.GenerationSoftware,KiCad,Pcbnew,(5.1.6-0-10_14)*
G04 #@! TF.CreationDate,2020-07-27T13:35:09+02:00*
G04 #@! TF.ProjectId,HelloWorld,48656c6c-6f57-46f7-926c-642e6b696361,rev?*
G04 #@! TF.SameCoordinates,Original*
G04 #@! TF.FileFunction,Legend,Bot*
G04 #@! TF.FilePolarity,Positive*
%FSLAX46Y46*%
G04 Gerber Fmt 4.6, Leading zero omitted, Abs format (unit mm)*
G04 Created by KiCad (PCBNEW (5.1.6-0-10_14)) date 2020-07-27 13:35:09*
%MOMM*%
%LPD*%
G01*
G04 APERTURE LIST*
%ADD10C,0.150000*%
G04 APERTURE END LIST*
D10*
X119619047Y-73452380D02*
X119619047Y-74166666D01*
X119666666Y-74309523D01*
X119761904Y-74404761D01*
X119904761Y-74452380D01*
X120000000Y-74452380D01*
X118666666Y-74452380D02*
X119142857Y-74452380D01*
X119142857Y-73452380D01*
X117761904Y-74357142D02*
X117809523Y-74404761D01*
X117952380Y-74452380D01*
X118047619Y-74452380D01*
X118190476Y-74404761D01*
X118285714Y-74309523D01*
X118333333Y-74214285D01*
X118380952Y-74023809D01*
X118380952Y-73880952D01*
X118333333Y-73690476D01*
X118285714Y-73595238D01*
X118190476Y-73500000D01*
X118047619Y-73452380D01*
X117952380Y-73452380D01*
X117809523Y-73500000D01*
X117761904Y-73547619D01*
X117047619Y-73452380D02*
X117047619Y-74166666D01*
X117095238Y-74309523D01*
X117190476Y-74404761D01*
X117333333Y-74452380D01*
X117428571Y-74452380D01*
X116095238Y-74452380D02*
X116571428Y-74452380D01*
X116571428Y-73452380D01*
X115190476Y-74357142D02*
X115238095Y-74404761D01*
X115380952Y-74452380D01*
X115476190Y-74452380D01*
X115619047Y-74404761D01*
X115714285Y-74309523D01*
X115761904Y-74214285D01*
X115809523Y-74023809D01*
X115809523Y-73880952D01*
X115761904Y-73690476D01*
X115714285Y-73595238D01*
X115619047Y-73500000D01*
X115476190Y-73452380D01*
X115380952Y-73452380D01*
X115238095Y-73500000D01*
X115190476Y-73547619D01*
X114476190Y-73452380D02*
X114476190Y-74166666D01*
X114523809Y-74309523D01*
X114619047Y-74404761D01*
X114761904Y-74452380D01*
X114857142Y-74452380D01*
X113523809Y-74452380D02*
X114000000Y-74452380D01*
X114000000Y-73452380D01*
X112619047Y-74357142D02*
X112666666Y-74404761D01*
X112809523Y-74452380D01*
X112904761Y-74452380D01*
X113047619Y-74404761D01*
X113142857Y-74309523D01*
X113190476Y-74214285D01*
X113238095Y-74023809D01*
X113238095Y-73880952D01*
X113190476Y-73690476D01*
X113142857Y-73595238D01*
X113047619Y-73500000D01*
X112904761Y-73452380D01*
X112809523Y-73452380D01*
X112666666Y-73500000D01*
X112619047Y-73547619D01*
X111904761Y-73452380D02*
X111904761Y-74166666D01*
X111952380Y-74309523D01*
X112047619Y-74404761D01*
X112190476Y-74452380D01*
X112285714Y-74452380D01*
X110952380Y-74452380D02*
X111428571Y-74452380D01*
X111428571Y-73452380D01*
X110047619Y-74357142D02*
X110095238Y-74404761D01*
X110238095Y-74452380D01*
X110333333Y-74452380D01*
X110476190Y-74404761D01*
X110571428Y-74309523D01*
X110619047Y-74214285D01*
X110666666Y-74023809D01*
X110666666Y-73880952D01*
X110619047Y-73690476D01*
X110571428Y-73595238D01*
X110476190Y-73500000D01*
X110333333Y-73452380D01*
X110238095Y-73452380D01*
X110095238Y-73500000D01*
X110047619Y-73547619D01*
X71964285Y-37226190D02*
X71154761Y-37226190D01*
X71059523Y-37273809D01*
X71011904Y-37321428D01*
X70964285Y-37416666D01*
X70964285Y-37559523D01*
X71011904Y-37654761D01*
X71345238Y-37226190D02*
X71297619Y-37321428D01*
X71297619Y-37511904D01*
X71345238Y-37607142D01*
X71392857Y-37654761D01*
X71488095Y-37702380D01*
X71773809Y-37702380D01*
X71869047Y-37654761D01*
X71916666Y-37607142D01*
X71964285Y-37511904D01*
X71964285Y-37321428D01*
X71916666Y-37226190D01*
X71297619Y-36750000D02*
X71964285Y-36750000D01*
X72297619Y-36750000D02*
X72250000Y-36797619D01*
X72202380Y-36750000D01*
X72250000Y-36702380D01*
X72297619Y-36750000D01*
X72202380Y-36750000D01*
X71964285Y-36416666D02*
X71964285Y-36035714D01*
X72297619Y-36273809D02*
X71440476Y-36273809D01*
X71345238Y-36226190D01*
X71297619Y-36130952D01*
X71297619Y-36035714D01*
X71297619Y-35702380D02*
X72297619Y-35702380D01*
X71297619Y-35273809D02*
X71821428Y-35273809D01*
X71916666Y-35321428D01*
X71964285Y-35416666D01*
X71964285Y-35559523D01*
X71916666Y-35654761D01*
X71869047Y-35702380D01*
X71964285Y-34369047D02*
X71297619Y-34369047D01*
X71964285Y-34797619D02*
X71440476Y-34797619D01*
X71345238Y-34750000D01*
X71297619Y-34654761D01*
X71297619Y-34511904D01*
X71345238Y-34416666D01*
X71392857Y-34369047D01*
X71297619Y-33892857D02*
X72297619Y-33892857D01*
X71916666Y-33892857D02*
X71964285Y-33797619D01*
X71964285Y-33607142D01*
X71916666Y-33511904D01*
X71869047Y-33464285D01*
X71773809Y-33416666D01*
X71488095Y-33416666D01*
X71392857Y-33464285D01*
X71345238Y-33511904D01*
X71297619Y-33607142D01*
X71297619Y-33797619D01*
X71345238Y-33892857D01*
X71392857Y-32988095D02*
X71345238Y-32940476D01*
X71297619Y-32988095D01*
X71345238Y-33035714D01*
X71392857Y-32988095D01*
X71297619Y-32988095D01*
X71345238Y-32083333D02*
X71297619Y-32178571D01*
X71297619Y-32369047D01*
X71345238Y-32464285D01*
X71392857Y-32511904D01*
X71488095Y-32559523D01*
X71773809Y-32559523D01*
X71869047Y-32511904D01*
X71916666Y-32464285D01*
X71964285Y-32369047D01*
X71964285Y-32178571D01*
X71916666Y-32083333D01*
X71297619Y-31511904D02*
X71345238Y-31607142D01*
X71392857Y-31654761D01*
X71488095Y-31702380D01*
X71773809Y-31702380D01*
X71869047Y-31654761D01*
X71916666Y-31607142D01*
X71964285Y-31511904D01*
X71964285Y-31369047D01*
X71916666Y-31273809D01*
X71869047Y-31226190D01*
X71773809Y-31178571D01*
X71488095Y-31178571D01*
X71392857Y-31226190D01*
X71345238Y-31273809D01*
X71297619Y-31369047D01*
X71297619Y-31511904D01*
X71297619Y-30750000D02*
X71964285Y-30750000D01*
X71869047Y-30750000D02*
X71916666Y-30702380D01*
X71964285Y-30607142D01*
X71964285Y-30464285D01*
X71916666Y-30369047D01*
X71821428Y-30321428D01*
X71297619Y-30321428D01*
X71821428Y-30321428D02*
X71916666Y-30273809D01*
X71964285Y-30178571D01*
X71964285Y-30035714D01*
X71916666Y-29940476D01*
X71821428Y-29892857D01*
X71297619Y-29892857D01*
X72345238Y-28702380D02*
X71059523Y-29559523D01*
X71821428Y-28035714D02*
X71821428Y-28369047D01*
X71297619Y-28369047D02*
X72297619Y-28369047D01*
X72297619Y-27892857D01*
X71297619Y-27369047D02*
X71345238Y-27464285D01*
X71440476Y-27511904D01*
X72297619Y-27511904D01*
X71297619Y-26988095D02*
X71964285Y-26988095D01*
X72297619Y-26988095D02*
X72250000Y-27035714D01*
X72202380Y-26988095D01*
X72250000Y-26940476D01*
X72297619Y-26988095D01*
X72202380Y-26988095D01*
X71964285Y-26511904D02*
X70964285Y-26511904D01*
X71916666Y-26511904D02*
X71964285Y-26416666D01*
X71964285Y-26226190D01*
X71916666Y-26130952D01*
X71869047Y-26083333D01*
X71773809Y-26035714D01*
X71488095Y-26035714D01*
X71392857Y-26083333D01*
X71345238Y-26130952D01*
X71297619Y-26226190D01*
X71297619Y-26416666D01*
X71345238Y-26511904D01*
X72297619Y-25750000D02*
X72297619Y-25178571D01*
X71297619Y-25464285D02*
X72297619Y-25464285D01*
X71297619Y-24845238D02*
X72297619Y-24845238D01*
X71297619Y-24416666D02*
X71821428Y-24416666D01*
X71916666Y-24464285D01*
X71964285Y-24559523D01*
X71964285Y-24702380D01*
X71916666Y-24797619D01*
X71869047Y-24845238D01*
X71345238Y-23559523D02*
X71297619Y-23654761D01*
X71297619Y-23845238D01*
X71345238Y-23940476D01*
X71440476Y-23988095D01*
X71821428Y-23988095D01*
X71916666Y-23940476D01*
X71964285Y-23845238D01*
X71964285Y-23654761D01*
X71916666Y-23559523D01*
X71821428Y-23511904D01*
X71726190Y-23511904D01*
X71630952Y-23988095D01*
X71821428Y-23083333D02*
X71821428Y-22750000D01*
X71297619Y-22607142D02*
X71297619Y-23083333D01*
X72297619Y-23083333D01*
X72297619Y-22607142D01*
X71964285Y-21750000D02*
X71154761Y-21750000D01*
X71059523Y-21797619D01*
X71011904Y-21845238D01*
X70964285Y-21940476D01*
X70964285Y-22083333D01*
X71011904Y-22178571D01*
X71345238Y-21750000D02*
X71297619Y-21845238D01*
X71297619Y-22035714D01*
X71345238Y-22130952D01*
X71392857Y-22178571D01*
X71488095Y-22226190D01*
X71773809Y-22226190D01*
X71869047Y-22178571D01*
X71916666Y-22130952D01*
X71964285Y-22035714D01*
X71964285Y-21845238D01*
X71916666Y-21750000D01*
X71964285Y-20845238D02*
X71154761Y-20845238D01*
X71059523Y-20892857D01*
X71011904Y-20940476D01*
X70964285Y-21035714D01*
X70964285Y-21178571D01*
X71011904Y-21273809D01*
X71345238Y-20845238D02*
X71297619Y-20940476D01*
X71297619Y-21130952D01*
X71345238Y-21226190D01*
X71392857Y-21273809D01*
X71488095Y-21321428D01*
X71773809Y-21321428D01*
X71869047Y-21273809D01*
X71916666Y-21226190D01*
X71964285Y-21130952D01*
X71964285Y-20940476D01*
X71916666Y-20845238D01*
X73297619Y-37654761D02*
X74297619Y-37654761D01*
X74297619Y-37416666D01*
X74250000Y-37273809D01*
X74154761Y-37178571D01*
X74059523Y-37130952D01*
X73869047Y-37083333D01*
X73726190Y-37083333D01*
X73535714Y-37130952D01*
X73440476Y-37178571D01*
X73345238Y-37273809D01*
X73297619Y-37416666D01*
X73297619Y-37654761D01*
X73345238Y-36273809D02*
X73297619Y-36369047D01*
X73297619Y-36559523D01*
X73345238Y-36654761D01*
X73440476Y-36702380D01*
X73821428Y-36702380D01*
X73916666Y-36654761D01*
X73964285Y-36559523D01*
X73964285Y-36369047D01*
X73916666Y-36273809D01*
X73821428Y-36226190D01*
X73726190Y-36226190D01*
X73630952Y-36702380D01*
X73345238Y-35845238D02*
X73297619Y-35750000D01*
X73297619Y-35559523D01*
X73345238Y-35464285D01*
X73440476Y-35416666D01*
X73488095Y-35416666D01*
X73583333Y-35464285D01*
X73630952Y-35559523D01*
X73630952Y-35702380D01*
X73678571Y-35797619D01*
X73773809Y-35845238D01*
X73821428Y-35845238D01*
X73916666Y-35797619D01*
X73964285Y-35702380D01*
X73964285Y-35559523D01*
X73916666Y-35464285D01*
X73297619Y-34988095D02*
X73964285Y-34988095D01*
X74297619Y-34988095D02*
X74250000Y-35035714D01*
X74202380Y-34988095D01*
X74250000Y-34940476D01*
X74297619Y-34988095D01*
X74202380Y-34988095D01*
X73964285Y-34083333D02*
X73154761Y-34083333D01*
X73059523Y-34130952D01*
X73011904Y-34178571D01*
X72964285Y-34273809D01*
X72964285Y-34416666D01*
X73011904Y-34511904D01*
X73345238Y-34083333D02*
X73297619Y-34178571D01*
X73297619Y-34369047D01*
X73345238Y-34464285D01*
X73392857Y-34511904D01*
X73488095Y-34559523D01*
X73773809Y-34559523D01*
X73869047Y-34511904D01*
X73916666Y-34464285D01*
X73964285Y-34369047D01*
X73964285Y-34178571D01*
X73916666Y-34083333D01*
X73964285Y-33607142D02*
X73297619Y-33607142D01*
X73869047Y-33607142D02*
X73916666Y-33559523D01*
X73964285Y-33464285D01*
X73964285Y-33321428D01*
X73916666Y-33226190D01*
X73821428Y-33178571D01*
X73297619Y-33178571D01*
X73821428Y-31607142D02*
X73773809Y-31464285D01*
X73726190Y-31416666D01*
X73630952Y-31369047D01*
X73488095Y-31369047D01*
X73392857Y-31416666D01*
X73345238Y-31464285D01*
X73297619Y-31559523D01*
X73297619Y-31940476D01*
X74297619Y-31940476D01*
X74297619Y-31607142D01*
X74250000Y-31511904D01*
X74202380Y-31464285D01*
X74107142Y-31416666D01*
X74011904Y-31416666D01*
X73916666Y-31464285D01*
X73869047Y-31511904D01*
X73821428Y-31607142D01*
X73821428Y-31940476D01*
X73964285Y-31035714D02*
X73297619Y-30797619D01*
X73964285Y-30559523D02*
X73297619Y-30797619D01*
X73059523Y-30892857D01*
X73011904Y-30940476D01*
X72964285Y-31035714D01*
X73297619Y-28845238D02*
X73773809Y-29178571D01*
X73297619Y-29416666D02*
X74297619Y-29416666D01*
X74297619Y-29035714D01*
X74250000Y-28940476D01*
X74202380Y-28892857D01*
X74107142Y-28845238D01*
X73964285Y-28845238D01*
X73869047Y-28892857D01*
X73821428Y-28940476D01*
X73773809Y-29035714D01*
X73773809Y-29416666D01*
X73297619Y-28273809D02*
X73345238Y-28369047D01*
X73392857Y-28416666D01*
X73488095Y-28464285D01*
X73773809Y-28464285D01*
X73869047Y-28416666D01*
X73916666Y-28369047D01*
X73964285Y-28273809D01*
X73964285Y-28130952D01*
X73916666Y-28035714D01*
X73869047Y-27988095D01*
X73773809Y-27940476D01*
X73488095Y-27940476D01*
X73392857Y-27988095D01*
X73345238Y-28035714D01*
X73297619Y-28130952D01*
X73297619Y-28273809D01*
X73297619Y-27511904D02*
X74297619Y-27511904D01*
X73916666Y-27511904D02*
X73964285Y-27416666D01*
X73964285Y-27226190D01*
X73916666Y-27130952D01*
X73869047Y-27083333D01*
X73773809Y-27035714D01*
X73488095Y-27035714D01*
X73392857Y-27083333D01*
X73345238Y-27130952D01*
X73297619Y-27226190D01*
X73297619Y-27416666D01*
X73345238Y-27511904D01*
X73345238Y-26226190D02*
X73297619Y-26321428D01*
X73297619Y-26511904D01*
X73345238Y-26607142D01*
X73440476Y-26654761D01*
X73821428Y-26654761D01*
X73916666Y-26607142D01*
X73964285Y-26511904D01*
X73964285Y-26321428D01*
X73916666Y-26226190D01*
X73821428Y-26178571D01*
X73726190Y-26178571D01*
X73630952Y-26654761D01*
X73297619Y-25750000D02*
X73964285Y-25750000D01*
X73773809Y-25750000D02*
X73869047Y-25702380D01*
X73916666Y-25654761D01*
X73964285Y-25559523D01*
X73964285Y-25464285D01*
X73964285Y-25273809D02*
X73964285Y-24892857D01*
X74297619Y-25130952D02*
X73440476Y-25130952D01*
X73345238Y-25083333D01*
X73297619Y-24988095D01*
X73297619Y-24892857D01*
X73821428Y-23464285D02*
X73773809Y-23321428D01*
X73726190Y-23273809D01*
X73630952Y-23226190D01*
X73488095Y-23226190D01*
X73392857Y-23273809D01*
X73345238Y-23321428D01*
X73297619Y-23416666D01*
X73297619Y-23797619D01*
X74297619Y-23797619D01*
X74297619Y-23464285D01*
X74250000Y-23369047D01*
X74202380Y-23321428D01*
X74107142Y-23273809D01*
X74011904Y-23273809D01*
X73916666Y-23321428D01*
X73869047Y-23369047D01*
X73821428Y-23464285D01*
X73821428Y-23797619D01*
X73297619Y-22654761D02*
X73345238Y-22750000D01*
X73392857Y-22797619D01*
X73488095Y-22845238D01*
X73773809Y-22845238D01*
X73869047Y-22797619D01*
X73916666Y-22750000D01*
X73964285Y-22654761D01*
X73964285Y-22511904D01*
X73916666Y-22416666D01*
X73869047Y-22369047D01*
X73773809Y-22321428D01*
X73488095Y-22321428D01*
X73392857Y-22369047D01*
X73345238Y-22416666D01*
X73297619Y-22511904D01*
X73297619Y-22654761D01*
X73297619Y-21892857D02*
X73964285Y-21892857D01*
X73773809Y-21892857D02*
X73869047Y-21845238D01*
X73916666Y-21797619D01*
X73964285Y-21702380D01*
X73964285Y-21607142D01*
X73964285Y-20845238D02*
X73154761Y-20845238D01*
X73059523Y-20892857D01*
X73011904Y-20940476D01*
X72964285Y-21035714D01*
X72964285Y-21178571D01*
X73011904Y-21273809D01*
X73345238Y-20845238D02*
X73297619Y-20940476D01*
X73297619Y-21130952D01*
X73345238Y-21226190D01*
X73392857Y-21273809D01*
X73488095Y-21321428D01*
X73773809Y-21321428D01*
X73869047Y-21273809D01*
X73916666Y-21226190D01*
X73964285Y-21130952D01*
X73964285Y-20940476D01*
X73916666Y-20845238D01*
X73297619Y-126369047D02*
X74297619Y-126369047D01*
X73821428Y-126369047D02*
X73821428Y-125797619D01*
X73297619Y-125797619D02*
X74297619Y-125797619D01*
X73345238Y-124940476D02*
X73297619Y-125035714D01*
X73297619Y-125226190D01*
X73345238Y-125321428D01*
X73440476Y-125369047D01*
X73821428Y-125369047D01*
X73916666Y-125321428D01*
X73964285Y-125226190D01*
X73964285Y-125035714D01*
X73916666Y-124940476D01*
X73821428Y-124892857D01*
X73726190Y-124892857D01*
X73630952Y-125369047D01*
X73297619Y-124321428D02*
X73345238Y-124416666D01*
X73440476Y-124464285D01*
X74297619Y-124464285D01*
X73297619Y-123797619D02*
X73345238Y-123892857D01*
X73440476Y-123940476D01*
X74297619Y-123940476D01*
X73297619Y-123273809D02*
X73345238Y-123369047D01*
X73392857Y-123416666D01*
X73488095Y-123464285D01*
X73773809Y-123464285D01*
X73869047Y-123416666D01*
X73916666Y-123369047D01*
X73964285Y-123273809D01*
X73964285Y-123130952D01*
X73916666Y-123035714D01*
X73869047Y-122988095D01*
X73773809Y-122940476D01*
X73488095Y-122940476D01*
X73392857Y-122988095D01*
X73345238Y-123035714D01*
X73297619Y-123130952D01*
X73297619Y-123273809D01*
X74297619Y-121845238D02*
X73297619Y-121607142D01*
X74011904Y-121416666D01*
X73297619Y-121226190D01*
X74297619Y-120988095D01*
X73297619Y-120464285D02*
X73345238Y-120559523D01*
X73392857Y-120607142D01*
X73488095Y-120654761D01*
X73773809Y-120654761D01*
X73869047Y-120607142D01*
X73916666Y-120559523D01*
X73964285Y-120464285D01*
X73964285Y-120321428D01*
X73916666Y-120226190D01*
X73869047Y-120178571D01*
X73773809Y-120130952D01*
X73488095Y-120130952D01*
X73392857Y-120178571D01*
X73345238Y-120226190D01*
X73297619Y-120321428D01*
X73297619Y-120464285D01*
X73297619Y-119702380D02*
X73964285Y-119702380D01*
X73773809Y-119702380D02*
X73869047Y-119654761D01*
X73916666Y-119607142D01*
X73964285Y-119511904D01*
X73964285Y-119416666D01*
X73297619Y-118940476D02*
X73345238Y-119035714D01*
X73440476Y-119083333D01*
X74297619Y-119083333D01*
X73297619Y-118130952D02*
X74297619Y-118130952D01*
X73345238Y-118130952D02*
X73297619Y-118226190D01*
X73297619Y-118416666D01*
X73345238Y-118511904D01*
X73392857Y-118559523D01*
X73488095Y-118607142D01*
X73773809Y-118607142D01*
X73869047Y-118559523D01*
X73916666Y-118511904D01*
X73964285Y-118416666D01*
X73964285Y-118226190D01*
X73916666Y-118130952D01*
X74297619Y-117035714D02*
X73297619Y-116702380D01*
X74297619Y-116369047D01*
X73297619Y-115511904D02*
X73297619Y-116083333D01*
X73297619Y-115797619D02*
X74297619Y-115797619D01*
X74154761Y-115892857D01*
X74059523Y-115988095D01*
X74011904Y-116083333D01*
X73392857Y-115083333D02*
X73345238Y-115035714D01*
X73297619Y-115083333D01*
X73345238Y-115130952D01*
X73392857Y-115083333D01*
X73297619Y-115083333D01*
X74297619Y-114416666D02*
X74297619Y-114321428D01*
X74250000Y-114226190D01*
X74202380Y-114178571D01*
X74107142Y-114130952D01*
X73916666Y-114083333D01*
X73678571Y-114083333D01*
X73488095Y-114130952D01*
X73392857Y-114178571D01*
X73345238Y-114226190D01*
X73297619Y-114321428D01*
X73297619Y-114416666D01*
X73345238Y-114511904D01*
X73392857Y-114559523D01*
X73488095Y-114607142D01*
X73678571Y-114654761D01*
X73916666Y-114654761D01*
X74107142Y-114607142D01*
X74202380Y-114559523D01*
X74250000Y-114511904D01*
X74297619Y-114416666D01*
X71642857Y-125761904D02*
X71595238Y-125809523D01*
X71547619Y-125952380D01*
X71547619Y-126047619D01*
X71595238Y-126190476D01*
X71690476Y-126285714D01*
X71785714Y-126333333D01*
X71976190Y-126380952D01*
X72119047Y-126380952D01*
X72309523Y-126333333D01*
X72404761Y-126285714D01*
X72500000Y-126190476D01*
X72547619Y-126047619D01*
X72547619Y-125952380D01*
X72500000Y-125809523D01*
X72452380Y-125761904D01*
X71642857Y-124761904D02*
X71595238Y-124809523D01*
X71547619Y-124952380D01*
X71547619Y-125047619D01*
X71595238Y-125190476D01*
X71690476Y-125285714D01*
X71785714Y-125333333D01*
X71976190Y-125380952D01*
X72119047Y-125380952D01*
X72309523Y-125333333D01*
X72404761Y-125285714D01*
X72500000Y-125190476D01*
X72547619Y-125047619D01*
X72547619Y-124952380D01*
X72500000Y-124809523D01*
X72452380Y-124761904D01*
X71928571Y-124333333D02*
X71928571Y-123571428D01*
X72071428Y-122761904D02*
X72023809Y-122619047D01*
X71976190Y-122571428D01*
X71880952Y-122523809D01*
X71738095Y-122523809D01*
X71642857Y-122571428D01*
X71595238Y-122619047D01*
X71547619Y-122714285D01*
X71547619Y-123095238D01*
X72547619Y-123095238D01*
X72547619Y-122761904D01*
X72500000Y-122666666D01*
X72452380Y-122619047D01*
X72357142Y-122571428D01*
X72261904Y-122571428D01*
X72166666Y-122619047D01*
X72119047Y-122666666D01*
X72071428Y-122761904D01*
X72071428Y-123095238D01*
X72023809Y-121904761D02*
X71547619Y-121904761D01*
X72547619Y-122238095D02*
X72023809Y-121904761D01*
X72547619Y-121571428D01*
X71928571Y-121238095D02*
X71928571Y-120476190D01*
X71595238Y-120047619D02*
X71547619Y-119904761D01*
X71547619Y-119666666D01*
X71595238Y-119571428D01*
X71642857Y-119523809D01*
X71738095Y-119476190D01*
X71833333Y-119476190D01*
X71928571Y-119523809D01*
X71976190Y-119571428D01*
X72023809Y-119666666D01*
X72071428Y-119857142D01*
X72119047Y-119952380D01*
X72166666Y-120000000D01*
X72261904Y-120047619D01*
X72357142Y-120047619D01*
X72452380Y-120000000D01*
X72500000Y-119952380D01*
X72547619Y-119857142D01*
X72547619Y-119619047D01*
X72500000Y-119476190D01*
X71833333Y-119095238D02*
X71833333Y-118619047D01*
X71547619Y-119190476D02*
X72547619Y-118857142D01*
X71547619Y-118523809D01*
X91511904Y-125571428D02*
X90750000Y-125571428D01*
X89750000Y-125952380D02*
X90321428Y-125952380D01*
X90035714Y-125952380D02*
X90035714Y-124952380D01*
X90130952Y-125095238D01*
X90226190Y-125190476D01*
X90321428Y-125238095D01*
X89369047Y-125047619D02*
X89321428Y-125000000D01*
X89226190Y-124952380D01*
X88988095Y-124952380D01*
X88892857Y-125000000D01*
X88845238Y-125047619D01*
X88797619Y-125142857D01*
X88797619Y-125238095D01*
X88845238Y-125380952D01*
X89416666Y-125952380D01*
X88797619Y-125952380D01*
X88511904Y-124952380D02*
X88178571Y-125952380D01*
X87845238Y-124952380D01*
X91511904Y-115571428D02*
X90750000Y-115571428D01*
X91130952Y-115952380D02*
X91130952Y-115190476D01*
X89750000Y-115952380D02*
X90321428Y-115952380D01*
X90035714Y-115952380D02*
X90035714Y-114952380D01*
X90130952Y-115095238D01*
X90226190Y-115190476D01*
X90321428Y-115238095D01*
X89369047Y-115047619D02*
X89321428Y-115000000D01*
X89226190Y-114952380D01*
X88988095Y-114952380D01*
X88892857Y-115000000D01*
X88845238Y-115047619D01*
X88797619Y-115142857D01*
X88797619Y-115238095D01*
X88845238Y-115380952D01*
X89416666Y-115952380D01*
X88797619Y-115952380D01*
X88511904Y-114952380D02*
X88178571Y-115952380D01*
X87845238Y-114952380D01*
M02*
